<svg width="237" height="107" viewBox="0 0 237 107" fill="none" xmlns="http://www.w3.org/2000/svg">
<path d="M12.6968 3.7402V2.51493C12.6968 1.32873 13.3275 0.731445 14.5919 0.731445H18.9348C20.1238 0.731445 20.7183 1.32594 20.7183 2.51493V3.7402C20.7183 7.89888 19.4539 12.5041 16.9308 17.5531C17.0034 17.5531 17.2657 17.2936 17.7095 16.7744C18.1561 16.2553 18.7143 15.6803 19.3814 15.0496C20.0484 14.4188 20.8299 13.7322 21.7203 12.9898C23.8722 11.2816 26.2111 10.0564 28.737 9.31394L30.0739 8.86737C31.1875 8.57152 31.9272 8.97901 32.3012 10.0926L33.6381 14.215C34.0065 15.4794 33.599 16.2581 32.41 16.5539C28.1788 18.1141 23.0153 18.4463 16.928 17.5559C17.1485 17.5559 18.2259 18.0751 20.1573 19.1161C24.3159 21.5667 27.3247 24.3159 29.1808 27.3581C29.9957 28.3238 29.8869 29.1416 28.8458 29.8087L25.2816 32.3709C24.168 32.9654 23.314 32.8174 22.7195 31.9243C19.8977 28.6587 17.9663 23.8665 16.928 17.5559C16.1102 23.4981 14.55 28.0643 12.2502 31.2572L11.4687 32.3709C10.8016 33.2612 9.94758 33.3366 8.90652 32.5941L5.45398 30.0319C4.26499 29.3621 4.11707 28.5108 5.0102 27.4698C7.60868 23.6097 11.5831 20.3023 16.928 17.5559C10.69 18.6696 5.90055 18.6333 2.55965 17.4443L1.22274 16.9977C0.109106 16.5512 -0.22582 15.7724 0.220749 14.6588L1.55767 10.4276C1.92888 9.24137 2.70758 8.90645 3.89657 9.42558C8.12781 10.3913 12.4735 13.1014 16.9308 17.5559C14.109 11.9124 12.6968 7.30717 12.6968 3.74299V3.7402Z" fill="white"/>
<path d="M44.5605 39.9217V34.1163C44.5605 33.4352 44.9011 33.0947 45.5821 33.0947H49.7268C50.4078 33.0947 50.7483 33.4352 50.7483 34.1163V39.9217C50.7483 40.6445 50.4078 41.0046 49.7268 41.0046H45.5821C44.9011 41.0046 44.5605 40.6445 44.5605 39.9217ZM44.5605 76.7887V46.4276C44.5605 45.7047 44.9011 45.3447 45.5821 45.3447H49.6654C50.3883 45.3447 50.7483 45.7075 50.7483 46.4276V76.7887C50.7483 77.213 50.673 77.5004 50.525 77.6512C50.3771 77.8019 50.1092 77.8744 49.7268 77.8744H45.6435C44.9206 77.8744 44.5605 77.5144 44.5605 76.7915V76.7887Z" fill="white"/>
<path d="M62.438 77.8717H58.4189C57.696 77.8717 57.3359 77.5117 57.3359 76.7888V46.4277C57.3359 45.7048 57.696 45.3447 58.4189 45.3447H62.438C63.1609 45.3447 63.5209 45.7076 63.5209 46.4277V48.7247H63.7749C64.7964 46.4723 66.9428 45.3447 70.2167 45.3447H73.0245C76.1281 45.3447 78.5089 46.196 80.1668 47.8958C81.8247 49.5983 82.6536 52.0405 82.6536 55.2306V76.7888C82.6536 77.5117 82.2712 77.8717 81.5065 77.8717H77.4874C76.7645 77.8717 76.4044 77.5117 76.4044 76.7888V55.4846C76.4044 52.3391 74.8526 50.765 71.7489 50.765H68.7514C65.2653 50.765 63.5209 52.5736 63.5209 56.1852V76.786C63.5209 77.5089 63.1581 77.8689 62.438 77.8689V77.8717Z" fill="white"/>
<path d="M103.91 77.8714H98.2969C95.1486 77.8714 92.7148 77.0006 90.9927 75.2562C89.2706 73.5118 88.4082 71.0892 88.4082 67.9855V55.2276C88.4082 52.0821 89.2706 49.6455 90.9927 47.9234C92.7148 46.2013 95.1486 45.3389 98.2969 45.3389H103.91C107.013 45.3389 109.447 46.2013 111.214 47.9234C112.978 49.6455 113.86 52.0793 113.86 55.2276V67.9855C113.86 71.0892 112.978 73.5146 111.214 75.2562C109.45 77.0006 107.013 77.8714 103.91 77.8714ZM99.1901 72.4512H103.081C106.143 72.4512 107.672 70.8994 107.672 67.7957V55.423C107.672 52.3193 106.143 50.7675 103.081 50.7675H99.1901C97.574 50.7675 96.4046 51.1415 95.6817 51.8839C94.9588 52.6291 94.5988 53.8097 94.5988 55.423V67.7957C94.5988 69.4117 94.9588 70.5924 95.6817 71.3348C96.4046 72.08 97.574 72.4512 99.1901 72.4512Z" fill="white"/>
<path d="M118.26 45.3447H122.533C123.214 45.3447 123.616 45.7076 123.745 46.4277L130.379 72.0691H130.826L137.331 46.4277C137.502 45.7048 137.948 45.3447 138.671 45.3447H142.88C143.645 45.3447 143.902 45.7076 143.645 46.4277L135.034 76.7246C134.864 77.4893 134.395 77.8717 133.631 77.8717H127.507C126.742 77.8717 126.273 77.4893 126.103 76.7246L117.493 46.4277C117.322 45.7048 117.576 45.3447 118.257 45.3447H118.26Z" fill="white"/>
<path d="M159.68 77.8714H157.193C154.045 77.8714 151.611 77.0006 149.889 75.2562C148.167 73.5118 147.305 71.0892 147.305 67.9855V55.2276C147.305 52.0821 148.167 49.6455 149.889 47.9234C151.611 46.2013 154.045 45.3389 157.193 45.3389H171.481C172.246 45.3389 172.628 45.7017 172.628 46.4218V76.7829C172.628 77.5058 172.246 77.8659 171.481 77.8659H167.462C166.739 77.8659 166.379 77.5058 166.379 76.7829V74.4859H166.125C165.103 76.741 162.957 77.8659 159.683 77.8659L159.68 77.8714ZM166.379 67.0282V51.4011C166.379 50.9768 166.144 50.7619 165.678 50.7619H158.089C155.028 50.7619 153.498 52.3361 153.498 55.4816V67.7287C153.498 70.877 155.028 72.4484 158.089 72.4484H161.151C164.637 72.4484 166.382 70.6426 166.382 67.0282H166.379Z" fill="white"/>
<path d="M196.419 77.8707H184.683C183.96 77.8707 183.6 77.5107 183.6 76.7878V73.6618C183.6 72.9808 183.96 72.6403 184.683 72.6403H195.397C198.161 72.6403 199.542 71.683 199.542 69.7711V69.0063C199.542 67.3066 198.543 66.0087 196.545 65.1156L189.592 61.7998C187.423 60.7783 185.849 59.6535 184.872 58.4198C183.893 57.1862 183.404 55.5702 183.404 53.5718C183.404 48.0874 186.444 45.3438 192.525 45.3438H203.115C203.796 45.3438 204.136 45.7066 204.136 46.4267V49.5527C204.136 50.2756 203.796 50.6356 203.115 50.6356H193.804C192.528 50.6356 191.549 50.8589 190.87 51.3054C190.189 51.752 189.849 52.3381 189.849 53.0582V53.7588C189.849 55.1208 190.932 56.3098 193.1 57.3313L200.117 60.9039C202.328 61.8836 203.849 63.0418 204.678 64.3788C205.507 65.7157 205.923 67.4517 205.923 69.5757C205.923 75.1048 202.755 77.8679 196.419 77.8679V77.8707Z" fill="white"/>
<path d="M216.446 86.8665H212.427C211.704 86.8665 211.344 86.5036 211.344 85.7835V46.4296C211.344 45.7067 211.704 45.3467 212.427 45.3467H216.446C217.169 45.3467 217.529 45.7095 217.529 46.4296V48.7267H217.783C218.804 46.4743 220.951 45.3467 224.224 45.3467H227.476C230.538 45.3467 232.888 46.1979 234.523 47.8977C236.159 49.6002 236.98 52.0424 236.98 55.2326V67.9905C236.98 71.1388 236.159 73.5726 234.523 75.2947C232.885 77.0168 230.538 77.8792 227.476 77.8792H224.224C220.951 77.8792 218.804 76.7545 217.783 74.4993H217.529V85.7891C217.529 86.512 217.166 86.872 216.446 86.872V86.8665ZM222.762 72.4506H226.142C229.204 72.4506 230.733 70.8793 230.733 67.731V55.4838C230.733 52.3383 229.204 50.7641 226.142 50.7641H222.762C219.276 50.7641 217.532 52.5727 217.532 56.1843V67.0276C217.532 70.642 219.276 72.4478 222.762 72.4478V72.4506Z" fill="white"/>
<path d="M45.1969 88.7888V94.1337C45.1969 94.2146 45.155 94.2565 45.0741 94.2565H44.6834C44.6024 94.2565 44.5605 94.2146 44.5605 94.1337V88.7888C44.5605 88.7079 44.6024 88.666 44.6834 88.666H45.0741C45.155 88.666 45.1969 88.7079 45.1969 88.7888Z" fill="white"/>
<path d="M47.1165 94.2544H46.7341C46.6532 94.2544 46.6113 94.2125 46.6113 94.1316V88.7867C46.6113 88.7058 46.6532 88.6639 46.7341 88.6639H47.0914C47.1612 88.6639 47.2086 88.6863 47.2309 88.7337L49.6313 92.9482H49.6647V88.7839C49.6647 88.703 49.7066 88.6611 49.7876 88.6611H50.1699C50.2509 88.6611 50.2927 88.703 50.2927 88.7839V94.1288C50.2927 94.2097 50.2509 94.2516 50.1699 94.2516H49.849C49.7848 94.2516 49.7234 94.2153 49.6675 94.14L47.2784 89.9673H47.2449V94.1316C47.2449 94.2125 47.203 94.2544 47.1221 94.2544H47.1165Z" fill="white"/>
<path d="M51.6035 92.9677V92.6886C51.6035 92.6077 51.6426 92.5686 51.7263 92.5686H52.1171C52.198 92.5686 52.2399 92.6105 52.2399 92.6886V92.9147C52.2399 93.4366 52.4967 93.6962 53.013 93.6962H53.7778C54.2941 93.6962 54.5509 93.4283 54.5509 92.8952V92.5993C54.5509 92.1807 54.2048 91.9099 53.5154 91.7815C53.2251 91.7285 52.9348 91.6699 52.6474 91.6001C52.3571 91.5303 52.1115 91.3964 51.9077 91.1954C51.704 90.9944 51.6035 90.7209 51.6035 90.3748V89.9478C51.6035 89.5487 51.718 89.2333 51.9468 89.0044C52.1757 88.7756 52.4911 88.6611 52.8902 88.6611H53.8559C54.2494 88.6611 54.562 88.7756 54.7937 89.0044C55.0253 89.2333 55.1398 89.5487 55.1398 89.9478V90.1655C55.1398 90.252 55.1035 90.2967 55.0281 90.2967H54.629C54.5537 90.2967 54.5174 90.252 54.5174 90.1655V90.0092C54.5174 89.4817 54.2606 89.2193 53.7443 89.2193H53.0046C52.4883 89.2193 52.2315 89.4956 52.2315 90.0455V90.3944C52.2315 90.6902 52.4269 90.8912 52.8148 91.0028C52.9879 91.0503 53.1805 91.0921 53.387 91.1284C53.5963 91.1675 53.8057 91.2149 54.0178 91.2764C54.2299 91.3378 54.4225 91.4131 54.5955 91.5024C54.7686 91.5917 54.9109 91.7285 55.017 91.9099C55.123 92.0913 55.1789 92.3146 55.1789 92.5742V92.9649C55.1789 93.3641 55.0616 93.6794 54.8328 93.9083C54.6011 94.1372 54.2885 94.2516 53.895 94.2516H52.8958C52.5022 94.2516 52.1896 94.1372 51.958 93.9083C51.7263 93.6794 51.6119 93.3641 51.6119 92.9649L51.6035 92.9677Z" fill="white"/>
<path d="M57.8502 94.2545H57.4595C57.3785 94.2545 57.3367 94.2127 57.3367 94.1317V89.3004C57.3367 89.2474 57.3087 89.2223 57.2501 89.2223H56.0667C55.9802 89.2223 55.9355 89.1804 55.9355 89.0995V88.7869C55.9355 88.7059 55.9802 88.6641 56.0667 88.6641H59.2402C59.3267 88.6641 59.3713 88.7059 59.3713 88.7869V89.0995C59.3713 89.1804 59.3267 89.2223 59.2402 89.2223H58.0568C57.9981 89.2223 57.9702 89.2474 57.9702 89.3004V94.1317C57.9702 94.2127 57.9284 94.2545 57.8474 94.2545H57.8502Z" fill="white"/>
<path d="M60.8749 88.7888V94.1337C60.8749 94.2146 60.8331 94.2565 60.7549 94.2565H60.3642C60.2832 94.2565 60.2441 94.2146 60.2441 94.1337V88.7888C60.2441 88.7079 60.2832 88.666 60.3642 88.666H60.7549C60.8358 88.666 60.8749 88.7079 60.8749 88.7888Z" fill="white"/>
<path d="M63.656 94.2545H63.2653C63.1843 94.2545 63.1425 94.2127 63.1425 94.1317V89.3004C63.1425 89.2474 63.1146 89.2223 63.0559 89.2223H61.8753C61.7888 89.2223 61.7441 89.1804 61.7441 89.0995V88.7869C61.7441 88.7059 61.7888 88.6641 61.8753 88.6641H65.0488C65.1353 88.6641 65.1799 88.7059 65.1799 88.7869V89.0995C65.1799 89.1804 65.1381 89.2223 65.0488 89.2223H63.8653C63.8067 89.2223 63.7788 89.2474 63.7788 89.3004V94.1317C63.7788 94.2127 63.737 94.2545 63.656 94.2545Z" fill="white"/>
<path d="M68.9772 88.6668H69.368C69.4489 88.6668 69.4908 88.7031 69.4908 88.7785V92.9679C69.4908 93.3726 69.3791 93.6908 69.1531 93.914C68.927 94.1401 68.6144 94.2517 68.2153 94.2517H67.2496C66.8504 94.2517 66.5351 94.1401 66.3062 93.914C66.0773 93.688 65.9629 93.3726 65.9629 92.9679V88.7869C65.9629 88.7059 66.002 88.6641 66.0857 88.6641H66.4764C66.5574 88.6641 66.5993 88.7059 66.5993 88.7869V92.9427C66.5993 93.4479 66.8393 93.6991 67.3193 93.6991H68.1371C68.6228 93.6991 68.8656 93.4479 68.8656 92.9427V88.7869C68.8656 88.7059 68.9047 88.6641 68.98 88.6641L68.9772 88.6668Z" fill="white"/>
<path d="M72.1842 94.2545H71.7934C71.7125 94.2545 71.6706 94.2127 71.6706 94.1317V89.3004C71.6706 89.2474 71.6427 89.2223 71.5841 89.2223H70.4007C70.3142 89.2223 70.2695 89.1804 70.2695 89.0995V88.7869C70.2695 88.7059 70.3114 88.6641 70.4007 88.6641H73.5741C73.6607 88.6641 73.7053 88.7059 73.7053 88.7869V89.0995C73.7053 89.1804 73.6607 89.2223 73.5741 89.2223H72.3935C72.3349 89.2223 72.307 89.2474 72.307 89.3004V94.1317C72.307 94.2127 72.2651 94.2545 72.1842 94.2545Z" fill="white"/>
<path d="M76.7636 94.2548H75.7281C75.329 94.2548 75.0136 94.1432 74.7847 93.9171C74.5558 93.691 74.4414 93.3757 74.4414 92.9709V89.9538C74.4414 89.5491 74.5558 89.2337 74.7847 89.0076C75.0136 88.7816 75.329 88.6699 75.7281 88.6699H76.7636C77.1627 88.6699 77.4781 88.7844 77.7069 89.0132C77.9358 89.2421 78.0502 89.5575 78.0502 89.9566V92.9737C78.0502 93.3728 77.9358 93.6882 77.7069 93.9171C77.4781 94.146 77.1627 94.2604 76.7636 94.2604V94.2548ZM75.7979 93.6994H76.6854C77.1711 93.6994 77.4139 93.4482 77.4139 92.943V89.9789C77.4139 89.4737 77.1711 89.2226 76.6854 89.2226H75.7979C75.3178 89.2226 75.0778 89.4737 75.0778 89.9789V92.943C75.0778 93.4482 75.3178 93.6994 75.7979 93.6994Z" fill="white"/>
<path d="M82.0565 94.2545H81.6658C81.5848 94.2545 81.543 94.2127 81.543 94.1317V88.7869C81.543 88.7059 81.5848 88.6641 81.6658 88.6641H83.7005C84.0996 88.6641 84.4122 88.7785 84.6383 89.0074C84.8643 89.2362 84.976 89.5516 84.976 89.9507V90.9164C84.976 91.3211 84.8643 91.6365 84.6383 91.8626C84.4122 92.0887 84.0996 92.2003 83.7005 92.2003H82.2659C82.2072 92.2003 82.1793 92.2254 82.1793 92.2785V94.1289C82.1793 94.2099 82.1375 94.2517 82.0565 94.2517V94.2545ZM82.2659 91.6393H83.6139C84.0996 91.6393 84.3452 91.3909 84.3452 90.8913V89.9786C84.3452 89.4735 84.1024 89.2223 83.6139 89.2223H82.2659C82.2072 89.2223 82.1793 89.2474 82.1793 89.3004V91.5612C82.1793 91.6142 82.2072 91.6393 82.2659 91.6393Z" fill="white"/>
<path d="M86.1874 94.2545H85.752C85.6767 94.2545 85.6515 94.2127 85.6739 94.1317L87.2983 88.7869C87.3206 88.7059 87.3764 88.6641 87.4629 88.6641H88.0881C88.1746 88.6641 88.2305 88.7059 88.2528 88.7869L89.8772 94.1317C89.8995 94.2127 89.8744 94.2545 89.799 94.2545H89.3553C89.2911 94.2545 89.252 94.2127 89.2325 94.1317L88.825 92.8618H86.7205L86.313 94.1317C86.2907 94.2127 86.246 94.2545 86.1818 94.2545H86.1874ZM87.7588 89.32L86.8628 92.3259H88.6882L87.7923 89.32H87.7588Z" fill="white"/>
<path d="M93.7808 88.6668H94.1716C94.2525 88.6668 94.2916 88.7031 94.2916 88.7785V92.9679C94.2916 93.3726 94.1799 93.6908 93.9538 93.914C93.7278 94.1401 93.4152 94.2517 93.0161 94.2517H92.0504C91.6512 94.2517 91.3358 94.1401 91.107 93.914C90.8781 93.688 90.7637 93.3726 90.7637 92.9679V88.7869C90.7637 88.7059 90.8055 88.6641 90.8865 88.6641H91.2772C91.3582 88.6641 91.4 88.7059 91.4 88.7869V92.9427C91.4 93.4479 91.6401 93.6991 92.1201 93.6991H92.9379C93.4236 93.6991 93.6692 93.4479 93.6692 92.9427V88.7869C93.6692 88.7059 93.7054 88.6641 93.7808 88.6641V88.6668Z" fill="white"/>
<path d="M98.535 94.2545H95.7439C95.663 94.2545 95.6211 94.2127 95.6211 94.1317V88.7869C95.6211 88.7059 95.663 88.6641 95.7439 88.6641H96.1346C96.2156 88.6641 96.2575 88.7059 96.2575 88.7869V93.6014C96.2575 93.6545 96.2854 93.6796 96.344 93.6796H98.535C98.6159 93.6796 98.6578 93.7214 98.6578 93.8108V94.1317C98.6578 94.2127 98.6159 94.2545 98.535 94.2545Z" fill="white"/>
<path d="M100.221 88.7888V94.1337C100.221 94.2146 100.18 94.2565 100.101 94.2565H99.7107C99.6298 94.2565 99.5879 94.2146 99.5879 94.1337V88.7888C99.5879 88.7079 99.6298 88.666 99.7107 88.666H100.101C100.182 88.666 100.221 88.7079 100.221 88.7888Z" fill="white"/>
<path d="M101.577 92.9677V92.6886C101.577 92.6077 101.616 92.5686 101.7 92.5686H102.091C102.172 92.5686 102.213 92.6105 102.213 92.6886V92.9147C102.213 93.4366 102.47 93.6962 102.986 93.6962H103.751C104.268 93.6962 104.524 93.4283 104.524 92.8952V92.5993C104.524 92.1807 104.178 91.9099 103.489 91.7815C103.199 91.7285 102.908 91.6699 102.618 91.6001C102.328 91.5303 102.082 91.3964 101.878 91.1954C101.675 90.9944 101.574 90.7209 101.574 90.3748V89.9478C101.574 89.5487 101.689 89.2333 101.918 89.0044C102.146 88.7756 102.462 88.6611 102.861 88.6611H103.827C104.22 88.6611 104.533 88.7756 104.764 89.0044C104.996 89.2333 105.11 89.5487 105.11 89.9478V90.1655C105.11 90.252 105.074 90.2967 104.999 90.2967H104.6C104.524 90.2967 104.488 90.252 104.488 90.1655V90.0092C104.488 89.4817 104.231 89.2193 103.715 89.2193H102.975C102.459 89.2193 102.202 89.4956 102.202 90.0455V90.3944C102.202 90.6902 102.398 90.8912 102.786 91.0028C102.959 91.0503 103.151 91.0921 103.358 91.1284C103.567 91.1675 103.776 91.2149 103.988 91.2764C104.201 91.3378 104.393 91.4131 104.566 91.5024C104.739 91.5917 104.882 91.7285 104.988 91.9099C105.094 92.0913 105.15 92.3146 105.15 92.5742V92.9649C105.15 93.3641 105.032 93.6794 104.803 93.9083C104.572 94.1372 104.259 94.2516 103.866 94.2516H102.866C102.473 94.2516 102.16 94.1372 101.929 93.9083C101.697 93.6794 101.583 93.3641 101.583 92.9649L101.577 92.9677Z" fill="white"/>
<path d="M107.824 94.2545H107.433C107.352 94.2545 107.31 94.2127 107.31 94.1317V89.3004C107.31 89.2474 107.283 89.2223 107.224 89.2223H106.043C105.957 89.2223 105.912 89.1804 105.912 89.0995V88.7869C105.912 88.7059 105.957 88.6641 106.043 88.6641H109.217C109.303 88.6641 109.348 88.7059 109.348 88.7869V89.0995C109.348 89.1804 109.306 89.2223 109.217 89.2223H108.033C107.975 89.2223 107.947 89.2474 107.947 89.3004V94.1317C107.947 94.2127 107.905 94.2545 107.824 94.2545Z" fill="white"/>
<path d="M110.244 94.2545H109.809C109.733 94.2545 109.708 94.2127 109.731 94.1317L111.355 88.7869C111.377 88.7059 111.433 88.6641 111.52 88.6641H112.145C112.231 88.6641 112.287 88.7059 112.309 88.7869L113.934 94.1317C113.956 94.2127 113.931 94.2545 113.856 94.2545H113.412C113.348 94.2545 113.309 94.2127 113.289 94.1317L112.882 92.8618H110.777L110.37 94.1317C110.347 94.2127 110.303 94.2545 110.238 94.2545H110.244ZM111.818 89.32L110.922 92.3259H112.748L111.852 89.32H111.818Z" fill="white"/>
<path d="M117.074 94.1337V88.7888C117.074 88.7079 117.116 88.666 117.197 88.666H119.335C119.734 88.666 120.049 88.7805 120.278 89.0093C120.507 89.2382 120.622 89.5536 120.622 89.9527V92.9698C120.622 93.369 120.507 93.6843 120.278 93.9132C120.049 94.1421 119.734 94.2565 119.335 94.2565H117.197C117.116 94.2565 117.074 94.2146 117.074 94.1337ZM117.794 93.6983H119.254C119.74 93.6983 119.985 93.4471 119.985 92.9419V89.9778C119.985 89.4726 119.742 89.2215 119.254 89.2215H117.794C117.736 89.2215 117.708 89.2466 117.708 89.2996V93.6201C117.708 93.6732 117.736 93.6983 117.794 93.6983Z" fill="white"/>
<path d="M124.755 94.2545H122.025C121.944 94.2545 121.902 94.2127 121.902 94.1317V88.7869C121.902 88.7059 121.941 88.6641 122.025 88.6641H124.755C124.836 88.6641 124.878 88.7059 124.878 88.7869V89.0995C124.878 89.1804 124.836 89.2223 124.755 89.2223H122.625C122.567 89.2223 122.539 89.2474 122.539 89.3004V91.056C122.539 91.109 122.567 91.1341 122.625 91.1341H124.484C124.565 91.1341 124.607 91.176 124.607 91.2569V91.5695C124.607 91.6505 124.565 91.6924 124.484 91.6924H122.625C122.567 91.6924 122.539 91.7175 122.539 91.7705V93.621C122.539 93.674 122.567 93.6991 122.625 93.6991H124.755C124.836 93.6991 124.878 93.741 124.878 93.8191V94.1317C124.878 94.2127 124.836 94.2545 124.755 94.2545Z" fill="white"/>
<path d="M45.1969 99.3875V104.732C45.1969 104.813 45.155 104.855 45.0741 104.855H44.6834C44.6024 104.855 44.5605 104.813 44.5605 104.732V99.3875C44.5605 99.3065 44.6024 99.2646 44.6834 99.2646H45.0741C45.155 99.2646 45.1969 99.3065 45.1969 99.3875Z" fill="white"/>
<path d="M47.1165 104.855H46.7341C46.6532 104.855 46.6113 104.813 46.6113 104.732V99.3873C46.6113 99.3064 46.6532 99.2645 46.7341 99.2645H47.0914C47.1612 99.2645 47.2086 99.2868 47.2309 99.3343L49.6313 103.549H49.6647V99.3845C49.6647 99.3036 49.7066 99.2617 49.7876 99.2617H50.1699C50.2509 99.2617 50.2927 99.3036 50.2927 99.3845V104.729C50.2927 104.81 50.2509 104.852 50.1699 104.852H49.849C49.7848 104.852 49.7234 104.816 49.6675 104.741L47.2784 100.568H47.2449V104.732C47.2449 104.813 47.203 104.855 47.1221 104.855H47.1165Z" fill="white"/>
<path d="M53.8964 104.854H52.8609C52.4618 104.854 52.1464 104.743 51.9175 104.517C51.6887 104.291 51.5742 103.975 51.5742 103.571V100.553C51.5742 100.149 51.6887 99.8333 51.9175 99.6072C52.1464 99.3812 52.4618 99.2695 52.8609 99.2695H53.8964C54.2955 99.2695 54.6109 99.384 54.8398 99.6128C55.0686 99.8417 55.1831 100.157 55.1831 100.556V103.573C55.1831 103.972 55.0686 104.288 54.8398 104.517C54.6109 104.746 54.2955 104.86 53.8964 104.86V104.854ZM52.9307 104.299H53.8182C54.3039 104.299 54.5495 104.048 54.5495 103.543V100.579C54.5495 100.073 54.3067 99.8222 53.8182 99.8222H52.9307C52.4506 99.8222 52.2106 100.073 52.2106 100.579V103.543C52.2106 104.048 52.4506 104.299 52.9307 104.299Z" fill="white"/>
<path d="M58.2949 104.855H57.678C57.6027 104.855 57.5524 104.813 57.5301 104.732L55.9922 99.3958C55.9755 99.3093 56.0118 99.2646 56.1039 99.2646H56.5309C56.6063 99.2646 56.6509 99.3065 56.6705 99.3875L57.9655 104.141H57.999L59.2941 99.3875C59.3108 99.3065 59.3582 99.2646 59.4336 99.2646H59.869C59.9555 99.2646 59.9918 99.3093 59.9723 99.3958L58.4344 104.732C58.4121 104.813 58.3646 104.855 58.2949 104.855Z" fill="white"/>
<path d="M60.9374 104.855H60.502C60.4267 104.855 60.4015 104.813 60.4239 104.732L62.0483 99.3875C62.0706 99.3065 62.1264 99.2646 62.2129 99.2646H62.8381C62.9246 99.2646 62.9805 99.3065 63.0028 99.3875L64.6272 104.732C64.6495 104.813 64.6244 104.855 64.549 104.855H64.1053C64.0411 104.855 64.002 104.813 63.9825 104.732L63.575 103.462H61.4705L61.063 104.732C61.0407 104.813 60.996 104.855 60.9318 104.855H60.9374ZM62.5116 99.9177L61.6156 102.924H63.441L62.5451 99.9177H62.5116Z" fill="white"/>
<path d="M68.9671 101.1H68.5763C68.4954 101.1 68.4535 101.061 68.4535 100.98V100.581C68.4535 100.076 68.2107 99.8248 67.7222 99.8248H66.8263C66.3463 99.8248 66.1062 100.076 66.1062 100.581V103.545C66.1062 104.05 66.3463 104.302 66.8263 104.302H67.7222C68.2079 104.302 68.4535 104.05 68.4535 103.545V103.146C68.4535 103.065 68.4954 103.023 68.5763 103.023H68.9671C69.048 103.023 69.0899 103.065 69.0899 103.146V103.57C69.0899 103.975 68.9754 104.293 68.7466 104.517C68.5177 104.743 68.2023 104.854 67.8032 104.854H67.6804L67.298 105.253V105.287C67.7446 105.287 67.9679 105.474 67.9679 105.851V105.962C67.9679 106.334 67.7195 106.518 67.2199 106.518H66.9491C66.8738 106.518 66.8375 106.481 66.8375 106.406V106.283C66.8375 106.208 66.8738 106.172 66.9491 106.172H67.1585C67.3259 106.172 67.4431 106.152 67.5073 106.116C67.5715 106.08 67.6022 106.013 67.6022 105.92V105.895C67.6022 105.792 67.5715 105.722 67.5101 105.686C67.4487 105.653 67.3315 105.633 67.1585 105.633H67.0189C66.9156 105.633 66.8459 105.588 66.8152 105.502C66.7845 105.415 66.8012 105.332 66.871 105.251L67.2199 104.852H66.7593C66.3602 104.852 66.0448 104.74 65.816 104.514C65.5871 104.288 65.4727 103.972 65.4727 103.568V100.55C65.4727 100.146 65.5871 99.8304 65.816 99.6043C66.0448 99.3782 66.3602 99.2666 66.7593 99.2666H67.8032C68.2023 99.2666 68.5177 99.3782 68.7466 99.6043C68.9754 99.8304 69.0899 100.146 69.0899 100.55V100.978C69.0899 101.058 69.048 101.098 68.9671 101.098V101.1Z" fill="white"/>
<path d="M70.33 104.855H69.8946C69.8192 104.855 69.7941 104.813 69.8164 104.732L71.4408 99.3869C71.4632 99.3059 71.519 99.2641 71.6055 99.2641H72.2307C72.3172 99.2641 72.373 99.3059 72.3954 99.3869L74.0198 104.732C74.0421 104.813 74.017 104.855 73.9416 104.855H73.4978C73.4336 104.855 73.3946 104.813 73.375 104.732L72.9675 103.462H70.8631L70.4556 104.732C70.4333 104.813 70.3886 104.855 70.3244 104.855H70.33ZM71.452 98.7533C71.1282 98.7533 70.9664 98.53 70.9664 98.0834V97.7457C70.9664 97.6871 70.9915 97.6592 71.0445 97.6592H71.2259C71.2789 97.6592 71.3041 97.6871 71.3041 97.7457V97.9718C71.3041 98.1393 71.318 98.2537 71.3459 98.3095C71.3738 98.3653 71.4241 98.396 71.4994 98.396C71.5748 98.396 71.6278 98.3737 71.6641 98.3263C71.7032 98.2788 71.7562 98.1783 71.8288 98.0164C71.9014 97.8574 71.9711 97.7513 72.0409 97.6983C72.1107 97.6452 72.2251 97.6201 72.3898 97.6201C72.7191 97.6201 72.8838 97.8462 72.8838 98.2983V98.6361C72.8838 98.7003 72.8587 98.731 72.8057 98.731H72.6131C72.56 98.731 72.5349 98.7003 72.5349 98.6361V98.4016C72.5349 98.2341 72.521 98.1225 72.4931 98.0667C72.4624 98.0109 72.4121 97.983 72.3368 97.983C72.2614 97.983 72.2084 97.9997 72.1805 98.036C72.1526 98.0723 72.1219 98.1225 72.0939 98.1923C71.9711 98.4518 71.8762 98.6109 71.8037 98.6668C71.7311 98.7226 71.6139 98.7505 71.452 98.7505V98.7533ZM71.9041 99.9172L71.0082 102.923H72.8336L71.9376 99.9172H71.9041Z" fill="white"/>
<path d="M77.1796 104.854H76.1441C75.745 104.854 75.4296 104.743 75.2007 104.517C74.9718 104.291 74.8574 103.975 74.8574 103.571V100.553C74.8574 100.149 74.9718 99.8333 75.2007 99.6072C75.4296 99.3812 75.745 99.2695 76.1441 99.2695H77.1796C77.5787 99.2695 77.8941 99.384 78.123 99.6128C78.3518 99.8417 78.4663 100.157 78.4663 100.556V103.573C78.4663 103.972 78.3518 104.288 78.123 104.517C77.8941 104.746 77.5787 104.86 77.1796 104.86V104.854ZM76.2167 104.299H77.1042C77.5899 104.299 77.8355 104.048 77.8355 103.543V100.579C77.8355 100.073 77.5927 99.8222 77.1042 99.8222H76.2167C75.7366 99.8222 75.4966 100.073 75.4966 100.579V103.543C75.4966 104.048 75.7366 104.299 76.2167 104.299Z" fill="white"/>
<path d="M84.8095 104.855H82.0798C81.9989 104.855 81.957 104.813 81.957 104.732V99.3875C81.957 99.3065 81.9961 99.2646 82.0798 99.2646H84.8095C84.8904 99.2646 84.9323 99.3065 84.9323 99.3875V99.7001C84.9323 99.781 84.8904 99.8229 84.8095 99.8229H82.6799C82.6213 99.8229 82.5934 99.848 82.5934 99.901V101.657C82.5934 101.71 82.6213 101.735 82.6799 101.735H84.5388C84.6197 101.735 84.6616 101.777 84.6616 101.858V102.17C84.6616 102.251 84.6197 102.293 84.5388 102.293H82.6799C82.6213 102.293 82.5934 102.318 82.5934 102.371V104.222C82.5934 104.275 82.6213 104.3 82.6799 104.3H84.8095C84.8904 104.3 84.9323 104.342 84.9323 104.42V104.732C84.9323 104.813 84.8904 104.855 84.8095 104.855Z" fill="white"/>
<path d="M89.7068 104.855H89.316C89.2351 104.855 89.1932 104.813 89.1932 104.732V99.901C89.1932 99.848 89.1653 99.8229 89.1067 99.8229H87.9261C87.8396 99.8229 87.7949 99.781 87.7949 99.7001V99.3875C87.7949 99.3065 87.8396 99.2646 87.9261 99.2646H91.0995C91.1861 99.2646 91.2307 99.3065 91.2307 99.3875V99.7001C91.2307 99.781 91.1888 99.8229 91.0995 99.8229H89.9161C89.8575 99.8229 89.8296 99.848 89.8296 99.901V104.732C89.8296 104.813 89.7877 104.855 89.7068 104.855Z" fill="white"/>
<path d="M94.9052 104.855H92.1755C92.0946 104.855 92.0527 104.813 92.0527 104.732V99.3875C92.0527 99.3065 92.0918 99.2646 92.1755 99.2646H94.9052C94.9861 99.2646 95.028 99.3065 95.028 99.3875V99.7001C95.028 99.781 94.9861 99.8229 94.9052 99.8229H92.7756C92.717 99.8229 92.6891 99.848 92.6891 99.901V101.657C92.6891 101.71 92.717 101.735 92.7756 101.735H94.6372C94.7182 101.735 94.7601 101.777 94.7601 101.858V102.17C94.7601 102.251 94.7182 102.293 94.6372 102.293H92.7756C92.717 102.293 92.6891 102.318 92.6891 102.371V104.222C92.6891 104.275 92.717 104.3 92.7756 104.3H94.9052C94.9861 104.3 95.028 104.342 95.028 104.42V104.732C95.028 104.813 94.9861 104.855 94.9052 104.855Z" fill="white"/>
<path d="M98.4673 104.854H97.4234C97.0243 104.854 96.7089 104.743 96.48 104.517C96.2512 104.291 96.1367 103.975 96.1367 103.571V100.553C96.1367 100.149 96.2512 99.8333 96.48 99.6072C96.7089 99.3812 97.0243 99.2695 97.4234 99.2695H98.4673C98.8664 99.2695 99.1818 99.3812 99.4106 99.6072C99.6395 99.8333 99.7539 100.149 99.7539 100.553V100.98C99.7539 101.061 99.7121 101.1 99.6311 101.1H99.2404C99.1594 101.1 99.1176 101.061 99.1176 100.98V100.581C99.1176 100.076 98.8747 99.8249 98.3863 99.8249H97.4904C97.0103 99.8249 96.7703 100.076 96.7703 100.581V103.545C96.7703 104.051 97.0103 104.302 97.4904 104.302H98.3863C98.872 104.302 99.1176 104.051 99.1176 103.545V103.146C99.1176 103.065 99.1594 103.023 99.2404 103.023H99.6311C99.7121 103.023 99.7539 103.065 99.7539 103.146V103.571C99.7539 103.975 99.6395 104.293 99.4106 104.517C99.1818 104.743 98.8664 104.854 98.4673 104.854Z" fill="white"/>
<path d="M101.431 104.855H101.049C100.968 104.855 100.926 104.813 100.926 104.732V99.3873C100.926 99.3064 100.965 99.2645 101.049 99.2645H101.406C101.476 99.2645 101.523 99.2868 101.545 99.3343L103.946 103.549H103.979V99.3845C103.979 99.3036 104.021 99.2617 104.102 99.2617H104.484C104.565 99.2617 104.607 99.3036 104.607 99.3845V104.729C104.607 104.81 104.565 104.852 104.484 104.852H104.163C104.099 104.852 104.038 104.816 103.982 104.741L101.593 100.568H101.559V104.732C101.559 104.813 101.517 104.855 101.437 104.855H101.431Z" fill="white"/>
<path d="M108.207 104.854H107.171C106.772 104.854 106.457 104.743 106.228 104.517C105.999 104.291 105.885 103.975 105.885 103.571V100.553C105.885 100.149 105.999 99.8333 106.228 99.6072C106.457 99.3812 106.772 99.2695 107.171 99.2695H108.207C108.606 99.2695 108.921 99.384 109.15 99.6128C109.379 99.8417 109.494 100.157 109.494 100.556V103.573C109.494 103.972 109.379 104.288 109.15 104.517C108.921 104.746 108.606 104.86 108.207 104.86V104.854ZM107.244 104.299H108.132C108.617 104.299 108.86 104.048 108.86 103.543V100.579C108.86 100.073 108.617 99.8222 108.132 99.8222H107.244C106.764 99.8222 106.524 100.073 106.524 100.579V103.543C106.524 104.048 106.764 104.299 107.244 104.299Z" fill="white"/>
<path d="M113.691 104.855H110.9C110.819 104.855 110.777 104.813 110.777 104.732V99.3875C110.777 99.3065 110.819 99.2646 110.9 99.2646H111.291C111.372 99.2646 111.414 99.3065 111.414 99.3875V104.202C111.414 104.255 111.442 104.28 111.5 104.28H113.691C113.772 104.28 113.814 104.322 113.814 104.411V104.732C113.814 104.813 113.772 104.855 113.691 104.855Z" fill="white"/>
<path d="M116.935 104.854H115.9C115.501 104.854 115.185 104.743 114.957 104.517C114.728 104.291 114.613 103.975 114.613 103.571V100.553C114.613 100.149 114.728 99.8333 114.957 99.6072C115.185 99.3812 115.501 99.2695 115.9 99.2695H116.935C117.335 99.2695 117.65 99.384 117.879 99.6128C118.108 99.8417 118.222 100.157 118.222 100.556V103.573C118.222 103.972 118.108 104.288 117.879 104.517C117.65 104.746 117.335 104.86 116.935 104.86V104.854ZM115.97 104.299H116.857C117.343 104.299 117.589 104.048 117.589 103.543V100.579C117.589 100.073 117.346 99.8222 116.857 99.8222H115.97C115.49 99.8222 115.25 100.073 115.25 100.579V103.543C115.25 104.048 115.49 104.299 115.97 104.299Z" fill="white"/>
<path d="M121.646 104.854H120.709C120.309 104.854 119.994 104.743 119.765 104.517C119.536 104.291 119.422 103.975 119.422 103.571V100.553C119.422 100.149 119.536 99.8333 119.765 99.6072C119.994 99.3812 120.309 99.2695 120.709 99.2695H121.646C122.045 99.2695 122.358 99.384 122.584 99.6128C122.81 99.8417 122.922 100.157 122.922 100.556V100.913C122.922 101 122.88 101.045 122.802 101.045H122.411C122.33 101.045 122.291 101 122.291 100.913V100.584C122.291 100.079 122.051 99.8277 121.568 99.8277H120.778C120.298 99.8277 120.058 100.079 120.058 100.584V103.548C120.058 104.053 120.298 104.305 120.778 104.305H121.568C122.048 104.305 122.291 104.053 122.291 103.548V102.574C122.291 102.516 122.266 102.488 122.213 102.488H121.353C121.272 102.488 121.23 102.451 121.23 102.376V102.055C121.23 101.974 121.272 101.932 121.353 101.932H122.752C122.866 101.932 122.925 101.994 122.925 102.114V103.573C122.925 103.978 122.813 104.296 122.587 104.52C122.361 104.746 122.048 104.857 121.649 104.857L121.646 104.854Z" fill="white"/>
<path d="M124.887 99.3875V104.732C124.887 104.813 124.845 104.855 124.767 104.855H124.376C124.295 104.855 124.256 104.813 124.256 104.732V99.3875C124.256 99.3065 124.295 99.2646 124.376 99.2646H124.767C124.848 99.2646 124.887 99.3065 124.887 99.3875Z" fill="white"/>
<path d="M126.375 104.855H125.94C125.864 104.855 125.839 104.813 125.861 104.732L127.486 99.3875C127.508 99.3065 127.564 99.2646 127.65 99.2646H128.276C128.362 99.2646 128.418 99.3065 128.44 99.3875L130.065 104.732C130.087 104.813 130.062 104.855 129.987 104.855H129.543C129.479 104.855 129.439 104.813 129.42 104.732L129.012 103.462H126.908L126.501 104.732C126.478 104.813 126.434 104.855 126.369 104.855H126.375ZM127.946 99.9177L127.05 102.924H128.876L127.98 99.9177H127.946Z" fill="white"/>
</svg>
