<svg width="216" height="83" viewBox="0 0 216 83" fill="none" xmlns="http://www.w3.org/2000/svg">
<path d="M0 8.00932V1.49528C0 0.731667 0.381805 0.349854 1.14542 0.349854H5.79997C6.56358 0.349854 6.94539 0.731667 6.94539 1.49528V8.00932C6.94539 8.82248 6.56358 9.2276 5.79997 9.2276H1.14542C0.381805 9.2276 0 8.82248 0 8.00932ZM0 49.3902V15.3103C0 14.5 0.381805 14.092 1.14542 14.092H5.7271C6.53735 14.092 6.94539 14.4971 6.94539 15.3103V49.3902C6.94539 49.8682 6.86087 50.1888 6.69474 50.3578C6.52861 50.5269 6.22841 50.6085 5.79997 50.6085H1.21828C0.405121 50.6085 0 50.2034 0 49.3902Z" fill="#164772"/>
<path d="M20.0699 50.6083H15.5581C14.745 50.6083 14.3398 50.2032 14.3398 49.39V15.3101C14.3398 14.4998 14.745 14.0918 15.5581 14.0918H20.0699C20.8801 14.0918 21.2881 14.4969 21.2881 15.3101V17.8865H21.5738C22.7192 15.3567 25.1295 14.0918 28.8048 14.0918H31.9554C35.4383 14.0918 38.1139 15.0478 39.9734 16.9568C41.8358 18.8658 42.7655 21.6114 42.7655 25.1904V49.39C42.7655 50.2032 42.3371 50.6083 41.4773 50.6083H36.9655C36.1524 50.6083 35.7473 50.2032 35.7473 49.39V25.4761C35.7473 21.9436 34.0044 20.1774 30.5215 20.1774H27.1551C23.2409 20.1774 21.2852 22.2059 21.2852 26.263V49.39C21.2852 50.2032 20.8801 50.6083 20.0669 50.6083H20.0699Z" fill="#164772"/>
<path d="M66.6206 50.6085H60.3193C56.7869 50.6085 54.0559 49.6322 52.1207 47.6736C50.1883 45.7179 49.2207 42.9957 49.2207 39.5128V25.1936C49.2207 21.6612 50.1883 18.9302 52.1207 16.995C54.053 15.0626 56.7869 14.095 60.3193 14.095H66.6206C70.1035 14.095 72.8374 15.0626 74.8193 16.995C76.7982 18.9273 77.7892 21.6612 77.7892 25.1936V39.5128C77.7892 42.9986 76.7982 45.7179 74.8193 47.6736C72.8374 49.6322 70.1064 50.6085 66.6206 50.6085ZM61.3219 44.5229H65.688C69.1242 44.5229 70.8438 42.78 70.8438 39.2971V25.4064C70.8438 21.9235 69.1242 20.1806 65.688 20.1806H61.3219C59.5062 20.1806 58.1946 20.6003 57.3844 21.4338C56.5712 22.2703 56.1661 23.5935 56.1661 25.4064V39.2971C56.1661 41.1129 56.5712 42.4361 57.3844 43.2697C58.1946 44.1062 59.5091 44.5229 61.3219 44.5229Z" fill="#164772"/>
<path d="M82.7291 14.095H87.5265C88.2901 14.095 88.7448 14.5001 88.8876 15.3133L96.3343 44.0945H96.8356L104.139 15.3133C104.329 14.503 104.83 14.095 105.643 14.095H110.368C111.228 14.095 111.513 14.5001 111.228 15.3133L101.563 49.3232C101.371 50.183 100.846 50.6115 99.9891 50.6115H93.1166C92.2568 50.6115 91.7322 50.183 91.5427 49.3232L81.8781 15.3133C81.6857 14.503 81.9743 14.095 82.7379 14.095H82.7291Z" fill="#164772"/>
<path d="M129.225 50.6085H126.433C122.9 50.6085 120.169 49.6322 118.234 47.6736C116.302 45.7179 115.334 42.9957 115.334 39.5128V25.1936C115.334 21.6612 116.302 18.9302 118.234 16.995C120.166 15.0597 122.9 14.095 126.433 14.095H142.471C143.331 14.095 143.76 14.5001 143.76 15.3133V49.3932C143.76 50.2063 143.331 50.6115 142.471 50.6115H137.96C137.147 50.6115 136.741 50.2063 136.741 49.3932V46.8167H136.456C135.31 49.3465 132.9 50.6115 129.225 50.6115V50.6085ZM136.744 38.4373V20.8946C136.744 20.4166 136.482 20.1777 135.957 20.1777H127.438C124.002 20.1777 122.282 21.9439 122.282 25.4763V39.2243C122.282 42.7567 124.002 44.5229 127.438 44.5229H130.874C134.789 44.5229 136.744 42.4944 136.744 38.4373Z" fill="#164772"/>
<path d="M170.465 50.6088H157.291C156.478 50.6088 156.073 50.2037 156.073 49.3905V45.8814C156.073 45.1178 156.478 44.736 157.291 44.736H169.32C172.421 44.736 173.974 43.6634 173.974 41.5154V40.6556C173.974 38.7465 172.852 37.2893 170.608 36.2896L162.803 32.5677C160.369 31.4223 158.603 30.1573 157.504 28.7729C156.405 27.3885 155.857 25.5757 155.857 23.3314C155.857 17.173 159.27 14.0952 166.096 14.0952H177.982C178.745 14.0952 179.127 14.5003 179.127 15.3135V18.8226C179.127 19.6358 178.745 20.0409 177.982 20.0409H167.527C166.096 20.0409 164.997 20.2916 164.234 20.7929C163.47 21.2942 163.088 21.95 163.088 22.7631V23.55C163.088 25.0773 164.307 26.4151 166.74 27.5605L174.616 31.5709C177.096 32.6697 178.804 33.9696 179.733 35.4735C180.663 36.9774 181.13 38.9214 181.13 41.3084C181.13 47.5135 177.574 50.6175 170.462 50.6175L170.465 50.6088Z" fill="#164772"/>
<path d="M192.945 60.7048H188.433C187.62 60.7048 187.215 60.2997 187.215 59.4865V15.3106C187.215 14.5003 187.62 14.0923 188.433 14.0923H192.945C193.755 14.0923 194.163 14.4974 194.163 15.3106V17.887H194.449C195.594 15.3572 198.005 14.0923 201.68 14.0923H205.332C208.768 14.0923 211.406 15.0483 213.242 16.9573C215.078 18.8663 215.999 21.6118 215.999 25.1909V39.5101C215.999 43.0426 215.078 45.7735 213.242 47.7088C211.403 49.6411 208.768 50.6088 205.332 50.6088H201.68C198.005 50.6088 195.594 49.3439 194.449 46.814H194.163V59.4865C194.163 60.2968 193.758 60.7048 192.945 60.7048ZM200.033 44.5232H203.828C207.264 44.5232 208.984 42.7569 208.984 39.2245V25.4765C208.984 21.9441 207.264 20.1779 203.828 20.1779H200.033C196.119 20.1779 194.163 22.2064 194.163 26.2635V38.4347C194.163 42.4917 196.119 44.5203 200.033 44.5203V44.5232Z" fill="#164772"/>
<path d="M0.714066 62.8614V68.8624C0.714066 68.9528 0.667432 68.9994 0.577081 68.9994H0.136985C0.0466333 68.9994 0 68.9528 0 68.8624V62.8614C0 62.771 0.0466333 62.7244 0.136985 62.7244H0.577081C0.667432 62.7244 0.714066 62.771 0.714066 62.8614Z" fill="#164772"/>
<path d="M2.87011 68.9997H2.44167C2.35132 68.9997 2.30469 68.953 2.30469 68.8627V62.8616C2.30469 62.7713 2.35132 62.7246 2.44167 62.7246H2.84096C2.91966 62.7246 2.97212 62.7508 2.99835 62.8033L5.6914 67.5365H5.72929V62.8645C5.72929 62.7742 5.77593 62.7275 5.86628 62.7275H6.29471C6.38506 62.7275 6.4317 62.7742 6.4317 62.8645V68.8656C6.4317 68.9559 6.38506 69.0026 6.29471 69.0026H5.93331C5.86045 69.0026 5.79341 68.9588 5.72929 68.8743L3.0479 64.1906H3.01001V68.8627C3.01001 68.953 2.96338 68.9997 2.87303 68.9997H2.87011Z" fill="#164772"/>
<path d="M7.9043 67.557V67.2451C7.9043 67.1548 7.94802 67.1081 8.04128 67.1081H8.48138C8.57173 67.1081 8.61836 67.1548 8.61836 67.2451V67.4987C8.61836 68.0845 8.90691 68.376 9.4869 68.376H10.3467C10.9267 68.376 11.2152 68.0757 11.2152 67.4783V67.146C11.2152 66.6768 10.8276 66.3707 10.0552 66.2279C9.72881 66.1696 9.40529 66.0997 9.07886 66.0239C8.75243 65.9452 8.47847 65.7937 8.25113 65.5692C8.02379 65.3448 7.91013 65.0388 7.91013 64.6482V64.1702C7.91013 63.7214 8.03837 63.3687 8.29485 63.1123C8.55133 62.8558 8.90399 62.7275 9.35283 62.7275H10.437C10.8801 62.7275 11.2298 62.8558 11.4921 63.1123C11.7515 63.3687 11.8827 63.7214 11.8827 64.1702V64.4151C11.8827 64.5112 11.8419 64.5608 11.7573 64.5608H11.3085C11.224 64.5608 11.1803 64.5112 11.1803 64.4151V64.2402C11.1803 63.6485 10.8917 63.3513 10.3117 63.3513H9.48107C8.90108 63.3513 8.61254 63.6602 8.61254 64.2781V64.6686C8.61254 65.0009 8.83113 65.2282 9.26539 65.3506C9.46067 65.4031 9.67343 65.4497 9.90951 65.4905C10.1427 65.5343 10.3788 65.5867 10.6177 65.6567C10.8538 65.7237 11.0724 65.8082 11.2677 65.9102C11.463 66.0122 11.6204 66.1638 11.7399 66.3678C11.8594 66.5718 11.9206 66.8225 11.9206 67.1139V67.554C11.9206 68.0029 11.7894 68.3555 11.53 68.612C11.2706 68.8685 10.918 68.9968 10.4749 68.9968H9.35283C8.90982 68.9968 8.56007 68.8685 8.29776 68.612C8.03545 68.3555 7.90721 68.0029 7.90721 67.554L7.9043 67.557Z" fill="#164772"/>
<path d="M14.9205 68.9997H14.4804C14.3901 68.9997 14.3434 68.953 14.3434 68.8627V63.4387C14.3434 63.3804 14.3114 63.3512 14.2472 63.3512H12.9211C12.8249 63.3512 12.7754 63.3046 12.7754 63.2143V62.8616C12.7754 62.7713 12.8249 62.7246 12.9211 62.7246H16.4827C16.5789 62.7246 16.6284 62.7713 16.6284 62.8616V63.2143C16.6284 63.3046 16.5789 63.3512 16.4827 63.3512H15.1566C15.0925 63.3512 15.0604 63.3804 15.0604 63.4387V68.8627C15.0604 68.953 15.0138 68.9997 14.9234 68.9997H14.9205Z" fill="#164772"/>
<path d="M18.3137 62.8616V68.8627C18.3137 68.953 18.267 68.9997 18.1767 68.9997H17.7366C17.6462 68.9997 17.5996 68.953 17.5996 68.8627V62.8616C17.5996 62.7713 17.6433 62.7246 17.7366 62.7246H18.1767C18.267 62.7246 18.3137 62.7713 18.3137 62.8616Z" fill="#164772"/>
<path d="M21.4361 68.9997H20.996C20.9057 68.9997 20.859 68.953 20.859 68.8627V63.4387C20.859 63.3804 20.827 63.3512 20.7629 63.3512H19.4367C19.3406 63.3512 19.291 63.3046 19.291 63.2143V62.8616C19.291 62.7713 19.3406 62.7246 19.4367 62.7246H22.9983C23.0945 62.7246 23.1441 62.7713 23.1441 62.8616V63.2143C23.1441 63.3046 23.0945 63.3512 22.9983 63.3512H21.6722C21.6081 63.3512 21.576 63.3804 21.576 63.4387V68.8627C21.576 68.953 21.5294 68.9997 21.439 68.9997H21.4361Z" fill="#164772"/>
<path d="M27.4092 62.7275H27.8493C27.9396 62.7275 27.9863 62.7713 27.9863 62.8558V67.557C27.9863 68.0116 27.861 68.3672 27.6074 68.6208C27.3538 68.8743 27.0012 69.0026 26.5523 69.0026H25.4681C25.0193 69.0026 24.6666 68.8743 24.4101 68.6208C24.1536 68.3672 24.0254 68.0116 24.0254 67.557V62.8645C24.0254 62.7742 24.0691 62.7275 24.1624 62.7275H24.6025C24.6928 62.7275 24.7395 62.7742 24.7395 62.8645V67.5278C24.7395 68.0932 25.0076 68.376 25.5497 68.376H26.4678C27.0128 68.376 27.2868 68.0932 27.2868 67.5278V62.8645C27.2868 62.7742 27.3305 62.7275 27.415 62.7275H27.4092Z" fill="#164772"/>
<path d="M31.0084 68.9997H30.5683C30.4779 68.9997 30.4313 68.953 30.4313 68.8627V63.4387C30.4313 63.3804 30.3992 63.3512 30.3351 63.3512H29.009C28.9128 63.3512 28.8633 63.3046 28.8633 63.2143V62.8616C28.8633 62.7713 28.9128 62.7246 29.009 62.7246H32.5706C32.6668 62.7246 32.7163 62.7713 32.7163 62.8616V63.2143C32.7163 63.3046 32.6668 63.3512 32.5706 63.3512H31.2445C31.1804 63.3512 31.1483 63.3804 31.1483 63.4387V68.8627C31.1483 68.953 31.1017 68.9997 31.0113 68.9997H31.0084Z" fill="#164772"/>
<path d="M36.1496 68.9996H34.9896C34.5407 68.9996 34.1881 68.8714 33.9316 68.6178C33.6751 68.3643 33.5469 68.0087 33.5469 67.554V64.1673C33.5469 63.7126 33.6751 63.3571 33.9316 63.1035C34.1881 62.8499 34.5407 62.7217 34.9896 62.7217H36.1496C36.5984 62.7217 36.9511 62.8499 37.2076 63.1064C37.464 63.3629 37.5923 63.7155 37.5923 64.1644V67.5511C37.5923 67.9999 37.464 68.3526 37.2076 68.6091C36.9511 68.8656 36.5984 68.9938 36.1496 68.9938V68.9996ZM35.0654 68.3759H36.0621C36.6072 68.3759 36.8811 68.0932 36.8811 67.5278V64.2023C36.8811 63.6369 36.6072 63.3542 36.0621 63.3542H35.0654C34.5262 63.3542 34.2551 63.6369 34.2551 64.2023V67.5278C34.2551 68.0932 34.5232 68.3759 35.0654 68.3759Z" fill="#164772"/>
<path d="M42.0888 68.9997H41.6487C41.5584 68.9997 41.5117 68.953 41.5117 68.8627V62.8616C41.5117 62.7713 41.5584 62.7246 41.6487 62.7246H43.9308C44.3796 62.7246 44.7294 62.8529 44.9859 63.1093C45.2394 63.3658 45.3677 63.7185 45.3677 64.1673V65.2515C45.3677 65.7062 45.2394 66.0618 44.9859 66.3153C44.7323 66.5689 44.3826 66.6972 43.9308 66.6972H42.322C42.2578 66.6972 42.2258 66.7263 42.2258 66.7846V68.8627C42.2258 68.953 42.1792 68.9997 42.0888 68.9997ZM42.3249 66.0618H43.8375C44.3855 66.0618 44.6565 65.782 44.6565 65.2224V64.1994C44.6565 63.634 44.3826 63.3512 43.8375 63.3512H42.3249C42.2608 63.3512 42.2287 63.3804 42.2287 63.4387V65.9743C42.2287 66.0326 42.2608 66.0618 42.3249 66.0618Z" fill="#164772"/>
<path d="M46.7261 68.9997H46.2393C46.1548 68.9997 46.1257 68.953 46.1519 68.8627L47.9764 62.8616C48.0026 62.7713 48.0638 62.7246 48.1629 62.7246H48.8653C48.9615 62.7246 49.0256 62.7713 49.0519 62.8616L50.8764 68.8627C50.9026 68.953 50.8735 68.9997 50.789 68.9997H50.2906C50.2177 68.9997 50.174 68.953 50.1536 68.8627L49.696 67.4374H47.3352L46.8776 68.8627C46.8514 68.953 46.8018 68.9997 46.7319 68.9997H46.7261ZM48.4894 63.4591L47.4838 66.8341H49.5328L48.5273 63.4591H48.4894Z" fill="#164772"/>
<path d="M55.251 62.7275H55.6911C55.7814 62.7275 55.8281 62.7713 55.8281 62.8558V67.557C55.8281 68.0116 55.7027 68.3672 55.4492 68.6208C55.1956 68.8743 54.843 69.0026 54.3941 69.0026H53.3099C52.8611 69.0026 52.5084 68.8743 52.2519 68.6208C51.9954 68.3672 51.8672 68.0116 51.8672 67.557V62.8645C51.8672 62.7742 51.9138 62.7275 52.0042 62.7275H52.4443C52.5346 62.7275 52.5813 62.7742 52.5813 62.8645V67.5278C52.5813 68.0932 52.8523 68.376 53.3915 68.376H54.3096C54.8575 68.376 55.1286 68.0932 55.1286 67.5278V62.8645C55.1286 62.7742 55.1723 62.7275 55.2568 62.7275H55.251Z" fill="#164772"/>
<path d="M60.5875 68.9997H57.4573C57.3669 68.9997 57.3203 68.953 57.3203 68.8627V62.8616C57.3203 62.7713 57.3669 62.7246 57.4573 62.7246H57.8974C57.9877 62.7246 58.0344 62.7713 58.0344 62.8616V68.2681C58.0344 68.3264 58.0664 68.3555 58.1306 68.3555H60.5904C60.6808 68.3555 60.7274 68.4051 60.7274 68.5013V68.8627C60.7274 68.953 60.6808 68.9997 60.5904 68.9997H60.5875Z" fill="#164772"/>
<path d="M62.4777 62.8616V68.8627C62.4777 68.953 62.4311 68.9997 62.3408 68.9997H61.9007C61.8103 68.9997 61.7637 68.953 61.7637 68.8627V62.8616C61.7637 62.7713 61.8103 62.7246 61.9007 62.7246H62.3408C62.4311 62.7246 62.4777 62.7713 62.4777 62.8616Z" fill="#164772"/>
<path d="M64.0039 67.557V67.2451C64.0039 67.1548 64.0476 67.1081 64.1409 67.1081H64.581C64.6713 67.1081 64.718 67.1548 64.718 67.2451V67.4987C64.718 68.0845 65.0065 68.376 65.5865 68.376H66.4463C67.0263 68.376 67.3148 68.0757 67.3148 67.4783V67.146C67.3148 66.6768 66.9272 66.3707 66.1549 66.2279C65.8284 66.1696 65.5049 66.0997 65.1785 66.0239C64.852 65.9452 64.5781 65.7937 64.3507 65.5692C64.1234 65.3448 64.0097 65.0388 64.0097 64.6482V64.1702C64.0097 63.7214 64.138 63.3687 64.3945 63.1123C64.6509 62.8558 65.0036 62.7275 65.4524 62.7275H66.5367C66.9797 62.7275 67.3294 62.8558 67.5917 63.1123C67.8511 63.3687 67.9823 63.7214 67.9823 64.1702V64.4151C67.9823 64.5112 67.9386 64.5608 67.854 64.5608H67.4052C67.3207 64.5608 67.2799 64.5112 67.2799 64.4151V64.2402C67.2799 63.6485 66.9913 63.3513 66.4113 63.3513H65.5807C65.0007 63.3513 64.7121 63.6602 64.7121 64.2781V64.6686C64.7121 65.0009 64.9307 65.2282 65.365 65.3506C65.5603 65.4031 65.773 65.4497 66.0091 65.4905C66.2423 65.5343 66.4784 65.5867 66.7174 65.6567C66.9564 65.7237 67.172 65.8082 67.3673 65.9102C67.5626 66.0122 67.72 66.1638 67.8395 66.3678C67.959 66.5718 68.0202 66.8225 68.0202 67.1139V67.554C68.0202 68.0029 67.889 68.3555 67.6296 68.612C67.3702 68.8685 67.0176 68.9968 66.5745 68.9968H65.4524C65.0094 68.9968 64.6597 68.8685 64.3974 68.612C64.138 68.3555 64.0068 68.0029 64.0068 67.554L64.0039 67.557Z" fill="#164772"/>
<path d="M71.0162 68.9997H70.5761C70.4858 68.9997 70.4391 68.953 70.4391 68.8627V63.4387C70.4391 63.3804 70.4071 63.3512 70.343 63.3512H69.0168C68.9206 63.3512 68.8711 63.3046 68.8711 63.2143V62.8616C68.8711 62.7713 68.9206 62.7246 69.0168 62.7246H72.5784C72.6746 62.7246 72.7241 62.7713 72.7241 62.8616V63.2143C72.7241 63.3046 72.6746 63.3512 72.5784 63.3512H71.2523C71.1882 63.3512 71.1561 63.3804 71.1561 63.4387V68.8627C71.1561 68.953 71.1095 68.9997 71.0191 68.9997H71.0162Z" fill="#164772"/>
<path d="M73.73 68.9997H73.2432C73.1587 68.9997 73.1296 68.953 73.1558 68.8627L74.9803 62.8616C75.0066 62.7713 75.0677 62.7246 75.1639 62.7246H75.8663C75.9625 62.7246 76.0266 62.7713 76.05 62.8616L77.8745 68.8627C77.9007 68.953 77.8716 68.9997 77.787 68.9997H77.2886C77.2158 68.9997 77.1721 68.953 77.1517 68.8627L76.6941 67.4374H74.3333L73.8757 68.8627C73.8495 68.953 73.7999 68.9997 73.73 68.9997ZM75.4962 63.4591L74.4907 66.8341H76.5396L75.5341 63.4591H75.4962Z" fill="#164772"/>
<path d="M81.3984 68.8627V62.8616C81.3984 62.7713 81.4451 62.7246 81.5354 62.7246H83.9341C84.3829 62.7246 84.7356 62.8529 84.9921 63.1093C85.2486 63.3658 85.3768 63.7185 85.3768 64.1673V67.554C85.3768 68.0029 85.2486 68.3555 84.9921 68.612C84.7356 68.8685 84.3829 68.9967 83.9341 68.9967H81.5354C81.4451 68.9967 81.3984 68.9501 81.3984 68.8597V68.8627ZM82.2087 68.3759H83.8467C84.3917 68.3759 84.6657 68.0932 84.6657 67.5278V64.2023C84.6657 63.6369 84.3917 63.3542 83.8467 63.3542H82.2087C82.1446 63.3542 82.1125 63.3833 82.1125 63.4416V68.2914C82.1125 68.3497 82.1446 68.3789 82.2087 68.3789V68.3759Z" fill="#164772"/>
<path d="M90.0225 68.9997H86.9593C86.8689 68.9997 86.8223 68.953 86.8223 68.8627V62.8616C86.8223 62.7713 86.866 62.7246 86.9593 62.7246H90.0225C90.1128 62.7246 90.1594 62.7713 90.1594 62.8616V63.2143C90.1594 63.3046 90.1128 63.3512 90.0225 63.3512H87.6325C87.5684 63.3512 87.5363 63.3804 87.5363 63.4387V65.4089C87.5363 65.4672 87.5684 65.4964 87.6325 65.4964H89.7193C89.8097 65.4964 89.8563 65.543 89.8563 65.6333V65.9831C89.8563 66.0734 89.8097 66.1201 89.7193 66.1201H87.6325C87.5684 66.1201 87.5363 66.1492 87.5363 66.2075V68.2856C87.5363 68.3439 87.5684 68.373 87.6325 68.373H90.0225C90.1128 68.373 90.1594 68.4196 90.1594 68.51V68.8627C90.1594 68.953 90.1128 68.9997 90.0225 68.9997Z" fill="#164772"/>
<path d="M0.714066 74.7615V80.7626C0.714066 80.8529 0.667432 80.8995 0.577081 80.8995H0.136985C0.0466333 80.8995 0 80.8529 0 80.7626V74.7615C0 74.6711 0.0466333 74.6245 0.136985 74.6245H0.577081C0.667432 74.6245 0.714066 74.6711 0.714066 74.7615Z" fill="#164772"/>
<path d="M2.87011 80.8966H2.44167C2.35132 80.8966 2.30469 80.85 2.30469 80.7596V74.7586C2.30469 74.6682 2.35132 74.6216 2.44167 74.6216H2.84096C2.91966 74.6216 2.97212 74.6478 2.99835 74.7003L5.6914 79.4335H5.72929V74.7615C5.72929 74.6711 5.77593 74.6245 5.86628 74.6245H6.29471C6.38506 74.6245 6.4317 74.6711 6.4317 74.7615V80.7626C6.4317 80.8529 6.38506 80.8995 6.29471 80.8995H5.93331C5.86045 80.8995 5.79341 80.8558 5.72929 80.7713L3.0479 76.0876H3.01001V80.7596C3.01001 80.85 2.96338 80.8966 2.87303 80.8966H2.87011Z" fill="#164772"/>
<path d="M10.4816 80.8968H9.32161C8.87277 80.8968 8.52011 80.7686 8.26363 80.515C8.00714 80.2615 7.87891 79.9059 7.87891 79.4512V76.0645C7.87891 75.6099 8.00714 75.2543 8.26363 75.0007C8.52011 74.7471 8.87277 74.6189 9.32161 74.6189H10.4816C10.9304 74.6189 11.2831 74.7471 11.5396 75.0036C11.7961 75.2601 11.9243 75.6128 11.9243 76.0616V79.4483C11.9243 79.8972 11.7961 80.2498 11.5396 80.5063C11.2831 80.7628 10.9304 80.891 10.4816 80.891V80.8968ZM9.39739 80.2731H10.3942C10.9421 80.2731 11.2132 79.9904 11.2132 79.425V76.0995C11.2132 75.5341 10.9392 75.2514 10.3942 75.2514H9.39739C8.85819 75.2514 8.58714 75.5341 8.58714 76.0995V79.425C8.58714 79.9904 8.85819 80.2731 9.39739 80.2731Z" fill="#164772"/>
<path d="M15.4153 80.8966H14.7216C14.6371 80.8966 14.5817 80.85 14.5555 80.7597L12.8272 74.7702C12.8068 74.6741 12.8505 74.6245 12.9525 74.6245H13.4305C13.515 74.6245 13.5675 74.6711 13.5849 74.7615L15.0393 80.098H15.0772L16.5316 74.7615C16.552 74.6711 16.6015 74.6245 16.686 74.6245H17.1728C17.2689 74.6245 17.3097 74.6741 17.2893 74.7702L15.561 80.7597C15.5348 80.85 15.4823 80.8966 15.4036 80.8966H15.4153Z" fill="#164772"/>
<path d="M18.3823 80.8966H17.8956C17.8111 80.8966 17.7819 80.85 17.8081 80.7596L19.6327 74.7586C19.6589 74.6682 19.7201 74.6216 19.8163 74.6216H20.5187C20.6149 74.6216 20.679 74.6682 20.7023 74.7586L22.5268 80.7596C22.553 80.85 22.5239 80.8966 22.4394 80.8966H21.941C21.8681 80.8966 21.8244 80.85 21.804 80.7596L21.3464 79.3344H18.9856L18.528 80.7596C18.5018 80.85 18.4523 80.8966 18.3823 80.8966ZM20.1485 75.3561L19.143 78.7311H21.1919L20.1864 75.3561H20.1485Z" fill="#164772"/>
<path d="M27.3966 76.6822H26.9565C26.8662 76.6822 26.8196 76.6384 26.8196 76.5452V76.0963C26.8196 75.5309 26.5456 75.2482 26.0006 75.2482H24.995C24.4559 75.2482 24.1848 75.5309 24.1848 76.0963V79.4218C24.1848 79.9873 24.4559 80.27 24.995 80.27H26.0006C26.5456 80.27 26.8196 79.9873 26.8196 79.4218V78.973C26.8196 78.8827 26.8662 78.836 26.9565 78.836H27.3966C27.487 78.836 27.5336 78.8827 27.5336 78.973V79.451C27.5336 79.9057 27.4054 80.2612 27.1489 80.5148C26.8924 80.7684 26.5398 80.8966 26.0909 80.8966H25.9539L25.5255 81.3455V81.3834C26.0268 81.3834 26.2775 81.5932 26.2775 82.0187V82.147C26.2775 82.5638 25.9977 82.7707 25.4381 82.7707H25.1349C25.0504 82.7707 25.0096 82.727 25.0096 82.6453V82.5084C25.0096 82.4239 25.0504 82.3801 25.1349 82.3801H25.3681C25.5576 82.3801 25.6858 82.3597 25.7587 82.316C25.8315 82.2723 25.8665 82.1994 25.8665 82.0974V82.0683C25.8665 81.9517 25.8315 81.873 25.7645 81.8351C25.6975 81.7972 25.5634 81.7768 25.3681 81.7768H25.2107C25.0941 81.7768 25.0184 81.7273 24.9805 81.6311C24.9426 81.5349 24.9659 81.4387 25.0446 81.3484L25.4351 80.8995H24.9193C24.4704 80.8995 24.1178 80.7713 23.8613 80.5177C23.6048 80.2642 23.4766 79.9086 23.4766 79.4539V76.0672C23.4766 75.6125 23.6048 75.257 23.8613 75.0034C24.1178 74.7498 24.4704 74.6216 24.9193 74.6216H26.0909C26.5398 74.6216 26.8924 74.7498 27.1489 75.0034C27.4054 75.257 27.5336 75.6125 27.5336 76.0672V76.5452C27.5336 76.6355 27.487 76.6822 27.3966 76.6822Z" fill="#164772"/>
<path d="M28.9292 80.8968H28.4425C28.3579 80.8968 28.3288 80.8502 28.355 80.7598L30.1795 74.7588C30.2058 74.6684 30.267 74.6218 30.3631 74.6218H31.0656C31.1617 74.6218 31.2259 74.6684 31.2492 74.7588L33.0737 80.7598C33.0999 80.8502 33.0708 80.8968 32.9862 80.8968H32.4879C32.415 80.8968 32.3713 80.8502 32.3509 80.7598L31.8933 79.3346H29.5325L29.0749 80.7598C29.0487 80.8502 28.9991 80.8968 28.9292 80.8968ZM30.1854 74.0476C29.821 74.0476 29.6374 73.797 29.6374 73.2957V72.9168C29.6374 72.8527 29.6666 72.8206 29.7249 72.8206H29.9289C29.9872 72.8206 30.0163 72.8527 30.0163 72.9168V73.1703C30.0163 73.3598 30.0309 73.4851 30.0659 73.5521C30.1008 73.6192 30.1562 73.6483 30.2378 73.6483C30.3194 73.6483 30.3806 73.6221 30.4214 73.5696C30.4652 73.5172 30.5264 73.4035 30.608 73.2228C30.6896 73.045 30.7683 72.9255 30.847 72.8672C30.9257 72.8089 31.0539 72.7798 31.2375 72.7798C31.6077 72.7798 31.7942 73.0333 31.7942 73.5405V73.9223C31.7942 73.9952 31.7651 74.0301 31.7068 74.0301H31.4911C31.4328 74.0301 31.4036 73.9952 31.4036 73.9223V73.66C31.4036 73.4705 31.3862 73.3452 31.3541 73.284C31.322 73.2228 31.2638 73.1907 31.1792 73.1907C31.0947 73.1907 31.0364 73.2111 31.0044 73.249C30.9723 73.2869 30.9402 73.3452 30.9082 73.4239C30.7712 73.7154 30.6633 73.8932 30.5817 73.9544C30.5001 74.0156 30.369 74.0476 30.1854 74.0476ZM30.6954 75.3563L29.6899 78.7313H31.7388L30.7333 75.3563H30.6954Z" fill="#164772"/>
<path d="M36.6164 80.8968H35.4564C35.0075 80.8968 34.6549 80.7686 34.3984 80.515C34.1419 80.2615 34.0137 79.9059 34.0137 79.4512V76.0645C34.0137 75.6099 34.1419 75.2543 34.3984 75.0007C34.6549 74.7471 35.0075 74.6189 35.4564 74.6189H36.6164C37.0652 74.6189 37.4179 74.7471 37.6744 75.0036C37.9308 75.2601 38.0591 75.6128 38.0591 76.0616V79.4483C38.0591 79.8972 37.9308 80.2498 37.6744 80.5063C37.4179 80.7628 37.0652 80.891 36.6164 80.891V80.8968ZM35.5351 80.2731H36.5289C37.0739 80.2731 37.3479 79.9904 37.3479 79.425V76.0995C37.3479 75.5341 37.0739 75.2514 36.5289 75.2514H35.5351C34.9959 75.2514 34.7248 75.5341 34.7248 76.0995V79.425C34.7248 79.9904 34.993 80.2731 35.5351 80.2731Z" fill="#164772"/>
<path d="M45.1806 80.8966H42.1175C42.0271 80.8966 41.9805 80.85 41.9805 80.7596V74.7586C41.9805 74.6682 42.0242 74.6216 42.1175 74.6216H45.1806C45.271 74.6216 45.3176 74.6682 45.3176 74.7586V75.1112C45.3176 75.2016 45.271 75.2482 45.1806 75.2482H42.7907C42.7266 75.2482 42.6945 75.2774 42.6945 75.3357V77.3059C42.6945 77.3642 42.7266 77.3933 42.7907 77.3933H44.8775C44.9679 77.3933 45.0145 77.44 45.0145 77.5303V77.8801C45.0145 77.9704 44.9679 78.017 44.8775 78.017H42.7907C42.7266 78.017 42.6945 78.0462 42.6945 78.1045V80.1826C42.6945 80.2409 42.7266 80.27 42.7907 80.27H45.1806C45.271 80.27 45.3176 80.3166 45.3176 80.407V80.7596C45.3176 80.85 45.271 80.8966 45.1806 80.8966Z" fill="#164772"/>
<path d="M50.6744 80.8966H50.2343C50.144 80.8966 50.0973 80.85 50.0973 80.7596V75.3357C50.0973 75.2774 50.0653 75.2482 50.0011 75.2482H48.675C48.5788 75.2482 48.5293 75.2016 48.5293 75.1112V74.7586C48.5293 74.6682 48.5788 74.6216 48.675 74.6216H52.2366C52.3328 74.6216 52.3823 74.6682 52.3823 74.7586V75.1112C52.3823 75.2016 52.3328 75.2482 52.2366 75.2482H50.9105C50.8464 75.2482 50.8143 75.2774 50.8143 75.3357V80.7596C50.8143 80.85 50.7677 80.8966 50.6773 80.8966H50.6744Z" fill="#164772"/>
<path d="M56.5107 80.8966H53.4475C53.3572 80.8966 53.3105 80.85 53.3105 80.7596V74.7586C53.3105 74.6682 53.3543 74.6216 53.4475 74.6216H56.5107C56.6011 74.6216 56.6477 74.6682 56.6477 74.7586V75.1112C56.6477 75.2016 56.6011 75.2482 56.5107 75.2482H54.1208C54.0567 75.2482 54.0246 75.2774 54.0246 75.3357V77.3059C54.0246 77.3642 54.0567 77.3933 54.1208 77.3933H56.2076C56.298 77.3933 56.3446 77.44 56.3446 77.5303V77.8801C56.3446 77.9704 56.298 78.017 56.2076 78.017H54.1208C54.0567 78.017 54.0246 78.0462 54.0246 78.1045V80.1826C54.0246 80.2409 54.0567 80.27 54.1208 80.27H56.5107C56.6011 80.27 56.6477 80.3166 56.6477 80.407V80.7596C56.6477 80.85 56.6011 80.8966 56.5107 80.8966Z" fill="#164772"/>
<path d="M60.5089 80.8968H59.3372C58.8884 80.8968 58.5357 80.7686 58.2793 80.515C58.0228 80.2615 57.8945 79.9059 57.8945 79.4512V76.0645C57.8945 75.6099 58.0228 75.2543 58.2793 75.0007C58.5357 74.7471 58.8884 74.6189 59.3372 74.6189H60.5089C60.9577 74.6189 61.3104 74.7471 61.5669 75.0007C61.8234 75.2543 61.9516 75.6099 61.9516 76.0645V76.5425C61.9516 76.6329 61.905 76.6795 61.8146 76.6795H61.3745C61.2842 76.6795 61.2375 76.6358 61.2375 76.5425V76.0937C61.2375 75.5282 60.9636 75.2455 60.4185 75.2455H59.413C58.8738 75.2455 58.6028 75.5282 58.6028 76.0937V79.4192C58.6028 79.9846 58.8709 80.2673 59.413 80.2673H60.4185C60.9665 80.2673 61.2375 79.9846 61.2375 79.4192V78.9703C61.2375 78.88 61.2842 78.8334 61.3745 78.8334H61.8146C61.905 78.8334 61.9516 78.88 61.9516 78.9703V79.4483C61.9516 79.903 61.8234 80.2586 61.5669 80.5121C61.3104 80.7657 60.9577 80.8939 60.5089 80.8939V80.8968Z" fill="#164772"/>
<path d="M63.8369 80.8966H63.4085C63.3181 80.8966 63.2715 80.85 63.2715 80.7596V74.7586C63.2715 74.6682 63.3152 74.6216 63.4085 74.6216H63.8078C63.8865 74.6216 63.9389 74.6478 63.9652 74.7003L66.6582 79.4335H66.6961V74.7615C66.6961 74.6711 66.7427 74.6245 66.8331 74.6245H67.2615C67.3519 74.6245 67.3985 74.6711 67.3985 74.7615V80.7626C67.3985 80.8529 67.3519 80.8995 67.2615 80.8995H66.9001C66.8272 80.8995 66.7602 80.8558 66.6961 80.7713L64.0118 76.0876H63.9739V80.7596C63.9739 80.85 63.9273 80.8966 63.8369 80.8966Z" fill="#164772"/>
<path d="M71.4484 80.8968H70.2884C69.8396 80.8968 69.4869 80.7686 69.2304 80.515C68.9739 80.2615 68.8457 79.9059 68.8457 79.4512V76.0645C68.8457 75.6099 68.9739 75.2543 69.2304 75.0007C69.4869 74.7471 69.8396 74.6189 70.2884 74.6189H71.4484C71.8972 74.6189 72.2499 74.7471 72.5064 75.0036C72.7629 75.2601 72.8911 75.6128 72.8911 76.0616V79.4483C72.8911 79.8972 72.7629 80.2498 72.5064 80.5063C72.2499 80.7628 71.8972 80.891 71.4484 80.891V80.8968ZM70.3642 80.2731H71.361C71.906 80.2731 72.18 79.9904 72.18 79.425V76.0995C72.18 75.5341 71.906 75.2514 71.361 75.2514H70.3642C69.825 75.2514 69.5539 75.5341 69.5539 76.0995V79.425C69.5539 79.9904 69.8221 80.2731 70.3642 80.2731Z" fill="#164772"/>
<path d="M77.6032 80.8966H74.4729C74.3826 80.8966 74.3359 80.85 74.3359 80.7596V74.7586C74.3359 74.6682 74.3826 74.6216 74.4729 74.6216H74.913C75.0034 74.6216 75.05 74.6682 75.05 74.7586V80.1651C75.05 80.2234 75.0821 80.2525 75.1462 80.2525H77.6061C77.6964 80.2525 77.7431 80.3021 77.7431 80.3982V80.7596C77.7431 80.85 77.6964 80.8966 77.6061 80.8966H77.6032Z" fill="#164772"/>
<path d="M81.2433 80.8968H80.0833C79.6345 80.8968 79.2818 80.7686 79.0253 80.515C78.7689 80.2615 78.6406 79.9059 78.6406 79.4512V76.0645C78.6406 75.6099 78.7689 75.2543 79.0253 75.0007C79.2818 74.7471 79.6345 74.6189 80.0833 74.6189H81.2433C81.6922 74.6189 82.0448 74.7471 82.3013 75.0036C82.5578 75.2601 82.686 75.6128 82.686 76.0616V79.4483C82.686 79.8972 82.5578 80.2498 82.3013 80.5063C82.0448 80.7628 81.6922 80.891 81.2433 80.891V80.8968ZM80.1591 80.2731H81.153C81.698 80.2731 81.972 79.9904 81.972 79.425V76.0995C81.972 75.5341 81.698 75.2514 81.153 75.2514H80.1591C79.6199 75.2514 79.3489 75.5341 79.3489 76.0995V79.425C79.3489 79.9904 79.617 80.2731 80.1591 80.2731Z" fill="#164772"/>
<path d="M86.531 80.8968H85.4759C85.0271 80.8968 84.6744 80.7686 84.4179 80.515C84.1614 80.2615 84.0332 79.9059 84.0332 79.4512V76.0645C84.0332 75.6099 84.1614 75.2543 84.4179 75.0007C84.6744 74.7471 85.0271 74.6189 85.4759 74.6189H86.531C86.9798 74.6189 87.3296 74.7471 87.5831 75.0036C87.8367 75.2601 87.9649 75.6128 87.9649 76.0616V76.4609C87.9649 76.5571 87.9183 76.6066 87.828 76.6066H87.3879C87.2975 76.6066 87.2509 76.5571 87.2509 76.4609V76.0907C87.2509 75.5253 86.9798 75.2426 86.4406 75.2426H85.5517C85.0125 75.2426 84.7414 75.5253 84.7414 76.0907V79.4163C84.7414 79.9817 85.0096 80.2644 85.5517 80.2644H86.4406C86.9798 80.2644 87.2509 79.9817 87.2509 79.4163V78.3233C87.2509 78.2592 87.2217 78.2271 87.1634 78.2271H86.1987C86.1084 78.2271 86.0617 78.1834 86.0617 78.0989V77.7375C86.0617 77.6471 86.1084 77.6005 86.1987 77.6005H87.7697C87.8979 77.6005 87.9649 77.6675 87.9649 77.8045V79.4425C87.9649 79.8972 87.8367 80.2527 87.5831 80.5063C87.3296 80.7599 86.9798 80.8881 86.531 80.8881V80.8968Z" fill="#164772"/>
<path d="M90.1711 74.7615V80.7626C90.1711 80.8529 90.1245 80.8995 90.0341 80.8995H89.594C89.5037 80.8995 89.457 80.8529 89.457 80.7626V74.7615C89.457 74.6711 89.5007 74.6245 89.594 74.6245H90.0341C90.1245 74.6245 90.1711 74.6711 90.1711 74.7615Z" fill="#164772"/>
<path d="M91.8374 80.8966H91.3507C91.2661 80.8966 91.237 80.85 91.2632 80.7596L93.0877 74.7586C93.114 74.6682 93.1752 74.6216 93.2714 74.6216H93.9738C94.0699 74.6216 94.1341 74.6682 94.1603 74.7586L95.9848 80.7596C96.011 80.85 95.9819 80.8966 95.8974 80.8966H95.399C95.3261 80.8966 95.2824 80.85 95.262 80.7596L94.8044 79.3344H92.4436L91.986 80.7596C91.9598 80.85 91.9103 80.8966 91.8403 80.8966H91.8374ZM93.6036 75.3561L92.5981 78.7311H94.647L93.6415 75.3561H93.6036Z" fill="#164772"/>
</svg>
