<svg width="168" height="66" viewBox="0 0 168 66" fill="none" xmlns="http://www.w3.org/2000/svg">
<path d="M0 6.90526V1.83887C0 1.24496 0.296955 0.947998 0.890867 0.947998H4.51101C5.10492 0.947998 5.40188 1.24496 5.40188 1.83887V6.90526C5.40188 7.53771 5.10492 7.8528 4.51101 7.8528H0.890867C0.296955 7.8528 0 7.53771 0 6.90526ZM0 39.0899V12.5837C0 11.9535 0.296955 11.6362 0.890867 11.6362H4.45434C5.08452 11.6362 5.40188 11.9512 5.40188 12.5837V39.0899C5.40188 39.4616 5.33614 39.711 5.20693 39.8425C5.07772 39.9739 4.84424 40.0374 4.51101 40.0374H0.947538C0.315089 40.0374 0 39.7223 0 39.0899Z" fill="white"/>
<path d="M15.609 40.0372H12.0999C11.4674 40.0372 11.1523 39.7221 11.1523 39.0897V12.5835C11.1523 11.9533 11.4674 11.636 12.0999 11.636H15.609C16.2391 11.636 16.5565 11.9511 16.5565 12.5835V14.5874H16.7786C17.6695 12.6198 19.5442 11.636 22.4027 11.636H24.8531C27.562 11.636 29.643 12.3795 31.0892 13.8643C32.5377 15.3491 33.2608 17.4844 33.2608 20.2681V39.0897C33.2608 39.7221 32.9276 40.0372 32.2589 40.0372H28.7498C28.1174 40.0372 27.8023 39.7221 27.8023 39.0897V20.4903C27.8023 17.7429 26.4467 16.3692 23.7378 16.3692H21.1196C18.0753 16.3692 16.5542 17.9469 16.5542 21.1023V39.0897C16.5542 39.7221 16.2391 40.0372 15.6067 40.0372H15.609Z" fill="white"/>
<path d="M51.8162 40.0374H46.9153C44.1679 40.0374 42.0439 39.278 40.5387 37.7547C39.0358 36.2337 38.2832 34.1164 38.2832 31.4075V20.2706C38.2832 17.5232 39.0358 15.3991 40.5387 13.8939C42.0416 12.391 44.1679 11.6384 46.9153 11.6384H51.8162C54.5251 11.6384 56.6514 12.391 58.1929 13.8939C59.732 15.3969 60.5028 17.5232 60.5028 20.2706V31.4075C60.5028 34.1187 59.732 36.2337 58.1929 37.7547C56.6514 39.278 54.5274 40.0374 51.8162 40.0374ZM47.6951 35.3042H51.0909C53.7635 35.3042 55.1009 33.9487 55.1009 31.2398V20.436C55.1009 17.7272 53.7635 16.3716 51.0909 16.3716H47.6951C46.2829 16.3716 45.2628 16.698 44.6326 17.3463C44.0002 17.9969 43.6851 19.0261 43.6851 20.436V31.2398C43.6851 32.652 44.0002 33.6812 44.6326 34.3295C45.2628 34.9801 46.2851 35.3042 47.6951 35.3042Z" fill="white"/>
<path d="M64.3436 11.6384H68.0748C68.6687 11.6384 69.0223 11.9535 69.1334 12.586L74.9252 34.971H75.3151L80.9958 12.586C81.1431 11.9558 81.533 11.6384 82.1655 11.6384H85.84C86.5087 11.6384 86.7309 11.9535 86.5087 12.586L78.9919 39.0377C78.8423 39.7065 78.4342 40.0397 77.7678 40.0397H72.4226C71.7539 40.0397 71.3458 39.7065 71.1985 39.0377L63.6816 12.586C63.532 11.9558 63.7564 11.6384 64.3504 11.6384H64.3436Z" fill="white"/>
<path d="M100.509 40.0374H98.3372C95.5898 40.0374 93.4658 39.278 91.9606 37.7547C90.4577 36.2336 89.7051 34.1164 89.7051 31.4075V20.2706C89.7051 17.5232 90.4577 15.3991 91.9606 13.8939C93.4635 12.3888 95.5898 11.6384 98.3372 11.6384H110.812C111.48 11.6384 111.814 11.9535 111.814 12.586V39.0921C111.814 39.7246 111.48 40.0397 110.812 40.0397H107.303C106.67 40.0397 106.355 39.7246 106.355 39.0921V37.0882H106.133C105.242 39.0559 103.367 40.0397 100.509 40.0397V40.0374ZM106.357 30.5711V16.927C106.357 16.5552 106.153 16.3693 105.745 16.3693H99.1193C96.4467 16.3693 95.1092 17.743 95.1092 20.4904V31.1831C95.1092 33.9305 96.4467 35.3042 99.1193 35.3042H101.792C104.836 35.3042 106.357 33.7265 106.357 30.5711Z" fill="white"/>
<path d="M132.582 40.0374H122.336C121.704 40.0374 121.388 39.7223 121.388 39.0899V36.3606C121.388 35.7667 121.704 35.4697 122.336 35.4697H131.691C134.103 35.4697 135.311 34.6355 135.311 32.9649V32.2962C135.311 30.8114 134.439 29.6779 132.693 28.9004L126.623 26.0057C124.73 25.1148 123.356 24.131 122.501 23.0542C121.647 21.9775 121.221 20.5675 121.221 18.822C121.221 14.0322 123.875 11.6384 129.184 11.6384H138.428C139.022 11.6384 139.319 11.9535 139.319 12.586V15.3152C139.319 15.9477 139.022 16.2628 138.428 16.2628H130.297C129.184 16.2628 128.33 16.4577 127.736 16.8476C127.142 17.2375 126.845 17.7476 126.845 18.38V18.9921C126.845 20.1799 127.792 21.2204 129.685 22.1112L135.81 25.2304C137.739 26.085 139.068 27.096 139.791 28.2657C140.514 29.4354 140.876 30.9474 140.876 32.8039C140.876 37.63 138.111 40.0442 132.58 40.0442L132.582 40.0374Z" fill="white"/>
<path d="M150.068 47.8898H146.559C145.926 47.8898 145.611 47.5747 145.611 46.9423V12.5838C145.611 11.9536 145.926 11.6362 146.559 11.6362H150.068C150.698 11.6362 151.015 11.9513 151.015 12.5838V14.5877H151.238C152.128 12.62 154.003 11.6362 156.862 11.6362H159.702C162.375 11.6362 164.426 12.3798 165.854 13.8645C167.282 15.3493 167.999 17.4847 167.999 20.2684V31.4053C167.999 34.1528 167.282 36.2768 165.854 37.782C164.424 39.2849 162.375 40.0375 159.702 40.0375H156.862C154.003 40.0375 152.128 39.0537 151.238 37.0861H151.015V46.9423C151.015 47.5725 150.7 47.8898 150.068 47.8898ZM155.581 35.3043H158.532C161.205 35.3043 162.542 33.9306 162.542 31.1832V20.4905C162.542 17.7431 161.205 16.3694 158.532 16.3694H155.581C152.537 16.3694 151.015 17.9471 151.015 21.1026V30.5689C151.015 33.7243 152.537 35.302 155.581 35.302V35.3043Z" fill="white"/>
<path d="M0.555375 49.5675V54.2349C0.555375 54.3052 0.519106 54.3415 0.448834 54.3415H0.106542C0.0362697 54.3415 0 54.3052 0 54.2349V49.5675C0 49.4972 0.0362697 49.4609 0.106542 49.4609H0.448834C0.519106 49.4609 0.555375 49.4972 0.555375 49.5675Z" fill="white"/>
<path d="M2.23273 54.3412H1.89951C1.82924 54.3412 1.79297 54.3049 1.79297 54.2347V49.5672C1.79297 49.497 1.82924 49.4607 1.89951 49.4607H2.21007C2.27127 49.4607 2.31207 49.4811 2.33247 49.5219L4.42704 53.2032H4.45651V49.5695C4.45651 49.4992 4.49278 49.463 4.56305 49.463H4.89627C4.96654 49.463 5.00281 49.4992 5.00281 49.5695V54.2369C5.00281 54.3072 4.96654 54.3435 4.89627 54.3435H4.61518C4.55851 54.3435 4.50638 54.3095 4.45651 54.2437L2.37101 50.6009H2.34154V54.2347C2.34154 54.3049 2.30527 54.3412 2.235 54.3412H2.23273Z" fill="white"/>
<path d="M6.14844 53.2193V52.9767C6.14844 52.9065 6.18244 52.8702 6.25498 52.8702H6.59727C6.66754 52.8702 6.70381 52.9065 6.70381 52.9767V53.174C6.70381 53.6296 6.92823 53.8563 7.37933 53.8563H8.04805C8.49915 53.8563 8.72357 53.6228 8.72357 53.1581V52.8997C8.72357 52.5347 8.42208 52.2967 7.82137 52.1856C7.56748 52.1403 7.31586 52.0859 7.06197 52.0269C6.80809 51.9657 6.59501 51.8479 6.41819 51.6733C6.24138 51.4988 6.15297 51.2607 6.15297 50.957V50.5852C6.15297 50.2361 6.25271 49.9618 6.45219 49.7624C6.65168 49.5629 6.92596 49.4631 7.27506 49.4631H8.11832C8.46288 49.4631 8.7349 49.5629 8.93892 49.7624C9.14067 49.9618 9.24268 50.2361 9.24268 50.5852V50.7756C9.24268 50.8504 9.21094 50.889 9.1452 50.889H8.79611C8.73037 50.889 8.69637 50.8504 8.69637 50.7756V50.6396C8.69637 50.1795 8.47195 49.9482 8.02085 49.9482H7.3748C6.9237 49.9482 6.69928 50.1885 6.69928 50.6691V50.9728C6.69928 51.2313 6.86929 51.4081 7.20705 51.5033C7.35893 51.5441 7.52441 51.5804 7.70803 51.6121C7.88937 51.6461 8.07298 51.6869 8.25887 51.7413C8.44248 51.7934 8.6125 51.8592 8.76437 51.9385C8.91625 52.0179 9.03866 52.1357 9.1316 52.2944C9.22454 52.4531 9.27214 52.648 9.27214 52.8747V53.217C9.27214 53.5661 9.17014 53.8404 8.96839 54.0399C8.76664 54.2394 8.49235 54.3391 8.14779 54.3391H7.27506C6.9305 54.3391 6.65848 54.2394 6.45446 54.0399C6.25045 53.8404 6.15071 53.5661 6.15071 53.217L6.14844 53.2193Z" fill="white"/>
<path d="M11.6039 54.3412H11.2616C11.1914 54.3412 11.1551 54.3049 11.1551 54.2347V50.0161C11.1551 49.9707 11.1302 49.9481 11.0803 49.9481H10.0489C9.97408 49.9481 9.93555 49.9118 9.93555 49.8415V49.5672C9.93555 49.497 9.97408 49.4607 10.0489 49.4607H12.819C12.8938 49.4607 12.9323 49.497 12.9323 49.5672V49.8415C12.9323 49.9118 12.8938 49.9481 12.819 49.9481H11.7876C11.7377 49.9481 11.7127 49.9707 11.7127 50.0161V54.2347C11.7127 54.3049 11.6765 54.3412 11.6062 54.3412H11.6039Z" fill="white"/>
<path d="M14.2448 49.5672V54.2347C14.2448 54.3049 14.2086 54.3412 14.1383 54.3412H13.796C13.7257 54.3412 13.6895 54.3049 13.6895 54.2347V49.5672C13.6895 49.497 13.7235 49.4607 13.796 49.4607H14.1383C14.2086 49.4607 14.2448 49.497 14.2448 49.5672Z" fill="white"/>
<path d="M16.6743 54.3412H16.332C16.2617 54.3412 16.2254 54.3049 16.2254 54.2347V50.0161C16.2254 49.9707 16.2005 49.9481 16.1506 49.9481H15.1192C15.0444 49.9481 15.0059 49.9118 15.0059 49.8415V49.5672C15.0059 49.497 15.0444 49.4607 15.1192 49.4607H17.8893C17.9641 49.4607 18.0026 49.497 18.0026 49.5672V49.8415C18.0026 49.9118 17.9641 49.9481 17.8893 49.9481H16.8579C16.808 49.9481 16.7831 49.9707 16.7831 50.0161V54.2347C16.7831 54.3049 16.7468 54.3412 16.6765 54.3412H16.6743Z" fill="white"/>
<path d="M21.3174 49.4631H21.6596C21.7299 49.4631 21.7662 49.4971 21.7662 49.5629V53.2193C21.7662 53.5729 21.6687 53.8495 21.4715 54.0467C21.2743 54.2439 21 54.3436 20.6509 54.3436H19.8076C19.4585 54.3436 19.1843 54.2439 18.9848 54.0467C18.7853 53.8495 18.6855 53.5729 18.6855 53.2193V49.5697C18.6855 49.4994 18.7195 49.4631 18.7921 49.4631H19.1344C19.2047 49.4631 19.2409 49.4994 19.2409 49.5697V53.1966C19.2409 53.6364 19.4495 53.8563 19.8711 53.8563H20.5852C21.0091 53.8563 21.2221 53.6364 21.2221 53.1966V49.5697C21.2221 49.4994 21.2561 49.4631 21.3219 49.4631H21.3174Z" fill="white"/>
<path d="M24.1157 54.3412H23.7734C23.7031 54.3412 23.6668 54.3049 23.6668 54.2347V50.0161C23.6668 49.9707 23.6419 49.9481 23.592 49.9481H22.5606C22.4858 49.9481 22.4473 49.9118 22.4473 49.8415V49.5672C22.4473 49.497 22.4858 49.4607 22.5606 49.4607H25.3307C25.4055 49.4607 25.444 49.497 25.444 49.5672V49.8415C25.444 49.9118 25.4055 49.9481 25.3307 49.9481H24.2993C24.2494 49.9481 24.2245 49.9707 24.2245 50.0161V54.2347C24.2245 54.3049 24.1882 54.3412 24.1179 54.3412H24.1157Z" fill="white"/>
<path d="M28.1161 54.3413H27.2139C26.8648 54.3413 26.5905 54.2415 26.391 54.0443C26.1915 53.8471 26.0918 53.5705 26.0918 53.2169V50.5829C26.0918 50.2292 26.1915 49.9527 26.391 49.7555C26.5905 49.5582 26.8648 49.4585 27.2139 49.4585H28.1161C28.4652 49.4585 28.7395 49.5582 28.9389 49.7577C29.1384 49.9572 29.2382 50.2315 29.2382 50.5806V53.2147C29.2382 53.5637 29.1384 53.838 28.9389 54.0375C28.7395 54.237 28.4652 54.3367 28.1161 54.3367V54.3413ZM27.2728 53.8562H28.0481C28.472 53.8562 28.6851 53.6363 28.6851 53.1965V50.6101C28.6851 50.1703 28.472 49.9504 28.0481 49.9504H27.2728C26.8535 49.9504 26.6426 50.1703 26.6426 50.6101V53.1965C26.6426 53.6363 26.8512 53.8562 27.2728 53.8562Z" fill="white"/>
<path d="M32.7359 54.3412H32.3937C32.3234 54.3412 32.2871 54.3049 32.2871 54.2347V49.5672C32.2871 49.497 32.3234 49.4607 32.3937 49.4607H34.1686C34.5177 49.4607 34.7897 49.5604 34.9892 49.7599C35.1864 49.9594 35.2861 50.2337 35.2861 50.5828V51.426C35.2861 51.7797 35.1864 52.0562 34.9892 52.2534C34.792 52.4507 34.52 52.5504 34.1686 52.5504H32.9173C32.8674 52.5504 32.8425 52.5731 32.8425 52.6184V54.2347C32.8425 54.3049 32.8062 54.3412 32.7359 54.3412ZM32.9196 52.0562H34.0961C34.5222 52.0562 34.733 51.8386 34.733 51.4034V50.6077C34.733 50.1679 34.52 49.9481 34.0961 49.9481H32.9196C32.8697 49.9481 32.8448 49.9707 32.8448 50.0161V51.9882C32.8448 52.0336 32.8697 52.0562 32.9196 52.0562Z" fill="white"/>
<path d="M36.3405 54.3412H35.962C35.8962 54.3412 35.8736 54.3049 35.894 54.2347L37.313 49.5672C37.3334 49.497 37.381 49.4607 37.4581 49.4607H38.0044C38.0792 49.4607 38.1291 49.497 38.1495 49.5672L39.5685 54.2347C39.5889 54.3049 39.5663 54.3412 39.5005 54.3412H39.1129C39.0562 54.3412 39.0222 54.3049 39.0063 54.2347L38.6504 53.1262H36.8143L36.4584 54.2347C36.438 54.3049 36.3995 54.3412 36.3451 54.3412H36.3405ZM37.712 50.0319L36.9299 52.6569H38.5235L37.7414 50.0319H37.712Z" fill="white"/>
<path d="M42.9716 49.4631H43.3139C43.3842 49.4631 43.4205 49.4971 43.4205 49.5629V53.2193C43.4205 53.5729 43.323 53.8495 43.1258 54.0467C42.9286 54.2439 42.6543 54.3436 42.3052 54.3436H41.4619C41.1128 54.3436 40.8386 54.2439 40.6391 54.0467C40.4396 53.8495 40.3398 53.5729 40.3398 53.2193V49.5697C40.3398 49.4994 40.3761 49.4631 40.4464 49.4631H40.7887C40.859 49.4631 40.8952 49.4994 40.8952 49.5697V53.1966C40.8952 53.6364 41.106 53.8563 41.5254 53.8563H42.2395C42.6656 53.8563 42.8764 53.6364 42.8764 53.1966V49.5697C42.8764 49.4994 42.9104 49.4631 42.9762 49.4631H42.9716Z" fill="white"/>
<path d="M47.1232 54.3412H44.6886C44.6183 54.3412 44.582 54.3049 44.582 54.2347V49.5672C44.582 49.497 44.6183 49.4607 44.6886 49.4607H45.0309C45.1011 49.4607 45.1374 49.497 45.1374 49.5672V53.7722C45.1374 53.8176 45.1623 53.8402 45.2122 53.8402H47.1254C47.1957 53.8402 47.232 53.8788 47.232 53.9536V54.2347C47.232 54.3049 47.1957 54.3412 47.1254 54.3412H47.1232Z" fill="white"/>
<path d="M48.5964 49.5672V54.2347C48.5964 54.3049 48.5601 54.3412 48.4899 54.3412H48.1476C48.0773 54.3412 48.041 54.3049 48.041 54.2347V49.5672C48.041 49.497 48.0773 49.4607 48.1476 49.4607H48.4899C48.5601 49.4607 48.5964 49.497 48.5964 49.5672Z" fill="white"/>
<path d="M49.7812 53.2193V52.9767C49.7812 52.9065 49.8153 52.8702 49.8878 52.8702H50.2301C50.3004 52.8702 50.3366 52.9065 50.3366 52.9767V53.174C50.3366 53.6296 50.561 53.8563 51.0121 53.8563H51.6809C52.132 53.8563 52.3564 53.6228 52.3564 53.1581V52.8997C52.3564 52.5347 52.0549 52.2967 51.4542 52.1856C51.2003 52.1403 50.9487 52.0859 50.6948 52.0269C50.4409 51.9657 50.2278 51.8479 50.051 51.6733C49.8742 51.4988 49.7858 51.2607 49.7858 50.957V50.5852C49.7858 50.2361 49.8855 49.9618 50.085 49.7624C50.2845 49.5629 50.5588 49.4631 50.9079 49.4631H51.7511C52.0957 49.4631 52.3677 49.5629 52.5717 49.7624C52.7735 49.9618 52.8755 50.2361 52.8755 50.5852V50.7756C52.8755 50.8504 52.8415 50.889 52.7757 50.889H52.4266C52.3609 50.889 52.3292 50.8504 52.3292 50.7756V50.6396C52.3292 50.1795 52.1048 49.9482 51.6537 49.9482H51.0076C50.5565 49.9482 50.3321 50.1885 50.3321 50.6691V50.9728C50.3321 51.2313 50.5021 51.4081 50.8399 51.5033C50.9917 51.5441 51.1572 51.5804 51.3408 51.6121C51.5222 51.6461 51.7058 51.6869 51.8917 51.7413C52.0776 51.7934 52.2453 51.8592 52.3972 51.9385C52.5491 52.0179 52.6715 52.1357 52.7644 52.2944C52.8574 52.4531 52.905 52.648 52.905 52.8747V53.217C52.905 53.5661 52.8029 53.8404 52.6012 54.0399C52.3995 54.2394 52.1252 54.3391 51.7806 54.3391H50.9079C50.5633 54.3391 50.2913 54.2394 50.0873 54.0399C49.8855 53.8404 49.7835 53.5661 49.7835 53.217L49.7812 53.2193Z" fill="white"/>
<path d="M55.2329 54.3412H54.8906C54.8203 54.3412 54.784 54.3049 54.784 54.2347V50.0161C54.784 49.9707 54.7591 49.9481 54.7092 49.9481H53.6778C53.603 49.9481 53.5645 49.9118 53.5645 49.8415V49.5672C53.5645 49.497 53.603 49.4607 53.6778 49.4607H56.4479C56.5227 49.4607 56.5612 49.497 56.5612 49.5672V49.8415C56.5612 49.9118 56.5227 49.9481 56.4479 49.9481H55.4165C55.3666 49.9481 55.3417 49.9707 55.3417 50.0161V54.2347C55.3417 54.3049 55.3054 54.3412 55.2351 54.3412H55.2329Z" fill="white"/>
<path d="M57.3425 54.3412H56.9639C56.8982 54.3412 56.8755 54.3049 56.8959 54.2347L58.315 49.5672C58.3354 49.497 58.383 49.4607 58.4578 49.4607H59.0041C59.0789 49.4607 59.1288 49.497 59.1469 49.5672L60.5659 54.2347C60.5863 54.3049 60.5637 54.3412 60.4979 54.3412H60.1103C60.0536 54.3412 60.0196 54.3049 60.0038 54.2347L59.6479 53.1262H57.8117L57.4558 54.2347C57.4354 54.3049 57.3969 54.3412 57.3425 54.3412ZM58.7162 50.0319L57.9341 52.6569H59.5277L58.7457 50.0319H58.7162Z" fill="white"/>
<path d="M63.3086 54.2347V49.5672C63.3086 49.497 63.3449 49.4607 63.4151 49.4607H65.2807C65.6298 49.4607 65.9041 49.5604 66.1036 49.7599C66.3031 49.9594 66.4028 50.2337 66.4028 50.5828V53.2169C66.4028 53.5659 66.3031 53.8402 66.1036 54.0397C65.9041 54.2392 65.6298 54.3389 65.2807 54.3389H63.4151C63.3449 54.3389 63.3086 54.3027 63.3086 54.2324V54.2347ZM63.9388 53.8561H65.2127C65.6366 53.8561 65.8497 53.6362 65.8497 53.1964V50.61C65.8497 50.1702 65.6366 49.9503 65.2127 49.9503H63.9388C63.8889 49.9503 63.864 49.973 63.864 50.0183V53.7904C63.864 53.8357 63.8889 53.8584 63.9388 53.8584V53.8561Z" fill="white"/>
<path d="M70.0163 54.3412H67.6339C67.5636 54.3412 67.5273 54.3049 67.5273 54.2347V49.5672C67.5273 49.497 67.5613 49.4607 67.6339 49.4607H70.0163C70.0866 49.4607 70.1229 49.497 70.1229 49.5672V49.8415C70.1229 49.9118 70.0866 49.9481 70.0163 49.9481H68.1575C68.1077 49.9481 68.0827 49.9707 68.0827 50.0161V51.5485C68.0827 51.5938 68.1077 51.6165 68.1575 51.6165H69.7806C69.8509 51.6165 69.8871 51.6527 69.8871 51.723V51.995C69.8871 52.0653 69.8509 52.1016 69.7806 52.1016H68.1575C68.1077 52.1016 68.0827 52.1242 68.0827 52.1696V53.7858C68.0827 53.8312 68.1077 53.8538 68.1575 53.8538H70.0163C70.0866 53.8538 70.1229 53.8901 70.1229 53.9604V54.2347C70.1229 54.3049 70.0866 54.3412 70.0163 54.3412Z" fill="white"/>
<path d="M0.555375 58.8226V63.49C0.555375 63.5603 0.519106 63.5966 0.448834 63.5966H0.106542C0.0362697 63.5966 0 63.5603 0 63.49V58.8226C0 58.7523 0.0362697 58.7161 0.106542 58.7161H0.448834C0.519106 58.7161 0.555375 58.7523 0.555375 58.8226Z" fill="white"/>
<path d="M2.23273 63.5941H1.89951C1.82924 63.5941 1.79297 63.5579 1.79297 63.4876V58.8202C1.79297 58.7499 1.82924 58.7136 1.89951 58.7136H2.21007C2.27127 58.7136 2.31207 58.734 2.33247 58.7748L4.42704 62.4562H4.45651V58.8224C4.45651 58.7522 4.49278 58.7159 4.56305 58.7159H4.89627C4.96654 58.7159 5.00281 58.7522 5.00281 58.8224V63.4899C5.00281 63.5601 4.96654 63.5964 4.89627 63.5964H4.61518C4.55851 63.5964 4.50638 63.5624 4.45651 63.4967L2.37101 59.8538H2.34154V63.4876C2.34154 63.5579 2.30527 63.5941 2.235 63.5941H2.23273Z" fill="white"/>
<path d="M8.15319 63.5944H7.25099C6.9019 63.5944 6.62761 63.4947 6.42813 63.2975C6.22865 63.1003 6.12891 62.8237 6.12891 62.4701V59.836C6.12891 59.4824 6.22865 59.2058 6.42813 59.0086C6.62761 58.8114 6.9019 58.7117 7.25099 58.7117H8.15319C8.50229 58.7117 8.77658 58.8114 8.97606 59.0109C9.17554 59.2104 9.27528 59.4847 9.27528 59.8338V62.4678C9.27528 62.8169 9.17554 63.0912 8.97606 63.2907C8.77658 63.4902 8.50229 63.5899 8.15319 63.5899V63.5944ZM7.30993 63.1093H8.08519C8.51136 63.1093 8.72217 62.8895 8.72217 62.4497V59.8632C8.72217 59.4235 8.50909 59.2036 8.08519 59.2036H7.30993C6.89056 59.2036 6.67975 59.4235 6.67975 59.8632V62.4497C6.67975 62.8895 6.89056 63.1093 7.30993 63.1093Z" fill="white"/>
<path d="M11.9914 63.5943H11.4519C11.3861 63.5943 11.3431 63.558 11.3227 63.4878L9.97841 58.8294C9.96255 58.7546 9.99655 58.7161 10.0759 58.7161H10.4477C10.5134 58.7161 10.5542 58.7523 10.5678 58.8226L11.6989 62.9732H11.7284L12.8596 58.8226C12.8754 58.7523 12.914 58.7161 12.9797 58.7161H13.3583C13.4331 58.7161 13.4648 58.7546 13.4489 58.8294L12.1047 63.4878C12.0843 63.558 12.0435 63.5943 11.9823 63.5943H11.9914Z" fill="white"/>
<path d="M14.2976 63.5941H13.919C13.8533 63.5941 13.8306 63.5579 13.851 63.4876L15.27 58.8202C15.2904 58.7499 15.338 58.7136 15.4129 58.7136H15.9592C16.034 58.7136 16.0838 58.7499 16.102 58.8202L17.521 63.4876C17.5414 63.5579 17.5187 63.5941 17.453 63.5941H17.0654C17.0087 63.5941 16.9747 63.5579 16.9588 63.4876L16.6029 62.3791H14.7668L14.4109 63.4876C14.3905 63.5579 14.352 63.5941 14.2976 63.5941ZM15.6713 59.2849L14.8892 61.9099H16.4828L15.7007 59.2849H15.6713Z" fill="white"/>
<path d="M21.3067 60.3163H20.9644C20.8941 60.3163 20.8579 60.2823 20.8579 60.2097V59.8606C20.8579 59.4209 20.6448 59.201 20.2209 59.201H19.4388C19.0195 59.201 18.8087 59.4209 18.8087 59.8606V62.4471C18.8087 62.8869 19.0195 63.1068 19.4388 63.1068H20.2209C20.6448 63.1068 20.8579 62.8869 20.8579 62.4471V62.098C20.8579 62.0277 20.8941 61.9915 20.9644 61.9915H21.3067C21.377 61.9915 21.4133 62.0277 21.4133 62.098V62.4698C21.4133 62.8234 21.3135 63.1 21.114 63.2972C20.9145 63.4944 20.6403 63.5941 20.2912 63.5941H20.1846L19.8514 63.9432V63.9727C20.2413 63.9727 20.4362 64.1359 20.4362 64.4669V64.5666C20.4362 64.8908 20.2186 65.0517 19.7834 65.0517H19.5476C19.4819 65.0517 19.4502 65.0177 19.4502 64.9542V64.8477C19.4502 64.782 19.4819 64.748 19.5476 64.748H19.729C19.8763 64.748 19.9761 64.7321 20.0327 64.6981C20.0894 64.6641 20.1166 64.6074 20.1166 64.5281V64.5054C20.1166 64.4147 20.0894 64.3535 20.0373 64.3241C19.9851 64.2946 19.8809 64.2787 19.729 64.2787H19.6066C19.5159 64.2787 19.457 64.2402 19.4275 64.1654C19.398 64.0906 19.4162 64.0158 19.4774 63.9455L19.7811 63.5964H19.3799C19.0308 63.5964 18.7565 63.4967 18.557 63.2994C18.3576 63.1022 18.2578 62.8257 18.2578 62.472V59.838C18.2578 59.4844 18.3576 59.2078 18.557 59.0106C18.7565 58.8134 19.0308 58.7136 19.3799 58.7136H20.2912C20.6403 58.7136 20.9145 58.8134 21.114 59.0106C21.3135 59.2078 21.4133 59.4844 21.4133 59.838V60.2097C21.4133 60.28 21.377 60.3163 21.3067 60.3163Z" fill="white"/>
<path d="M22.5026 63.5944H22.1241C22.0583 63.5944 22.0357 63.5581 22.0561 63.4879L23.4751 58.8204C23.4955 58.7502 23.5431 58.7139 23.6179 58.7139H24.1642C24.239 58.7139 24.2889 58.7502 24.307 58.8204L25.7261 63.4879C25.7465 63.5581 25.7238 63.5944 25.6581 63.5944H25.2705C25.2138 63.5944 25.1798 63.5581 25.1639 63.4879L24.808 62.3794H22.9719L22.616 63.4879C22.5956 63.5581 22.557 63.5944 22.5026 63.5944ZM23.4797 58.2673C23.1963 58.2673 23.0535 58.0724 23.0535 57.6825V57.3878C23.0535 57.3379 23.0762 57.313 23.1215 57.313H23.2802C23.3255 57.313 23.3482 57.3379 23.3482 57.3878V57.585C23.3482 57.7324 23.3595 57.8298 23.3867 57.882C23.4139 57.9341 23.457 57.9568 23.5205 57.9568C23.5839 57.9568 23.6315 57.9364 23.6633 57.8956C23.6973 57.8548 23.7449 57.7664 23.8083 57.6258C23.8718 57.4875 23.933 57.3946 23.9942 57.3493C24.0554 57.3039 24.1552 57.2812 24.298 57.2812C24.5859 57.2812 24.7309 57.4785 24.7309 57.8729V58.1698C24.7309 58.2265 24.7083 58.2537 24.6629 58.2537H24.4952C24.4499 58.2537 24.4272 58.2265 24.4272 58.1698V57.9658C24.4272 57.8185 24.4136 57.721 24.3887 57.6734C24.3637 57.6258 24.3184 57.6009 24.2526 57.6009C24.1869 57.6009 24.1416 57.6167 24.1166 57.6462C24.0917 57.6757 24.0668 57.721 24.0418 57.7822C23.9353 58.0089 23.8514 58.1472 23.7879 58.1948C23.7245 58.2424 23.6225 58.2673 23.4797 58.2673ZM23.8763 59.2851L23.0943 61.9101H24.6879L23.9058 59.2851H23.8763Z" fill="white"/>
<path d="M28.4774 63.5944H27.5752C27.2261 63.5944 26.9518 63.4947 26.7523 63.2975C26.5529 63.1003 26.4531 62.8237 26.4531 62.4701V59.836C26.4531 59.4824 26.5529 59.2058 26.7523 59.0086C26.9518 58.8114 27.2261 58.7117 27.5752 58.7117H28.4774C28.8265 58.7117 29.1008 58.8114 29.3003 59.0109C29.4998 59.2104 29.5995 59.4847 29.5995 59.8338V62.4678C29.5995 62.8169 29.4998 63.0912 29.3003 63.2907C29.1008 63.4902 28.8265 63.5899 28.4774 63.5899V63.5944ZM27.6364 63.1093H28.4094C28.8333 63.1093 29.0464 62.8895 29.0464 62.4497V59.8632C29.0464 59.4235 28.8333 59.2036 28.4094 59.2036H27.6364C27.217 59.2036 27.0062 59.4235 27.0062 59.8632V62.4497C27.0062 62.8895 27.2148 63.1093 27.6364 63.1093Z" fill="white"/>
<path d="M35.1413 63.5941H32.7589C32.6886 63.5941 32.6523 63.5579 32.6523 63.4876V58.8202C32.6523 58.7499 32.6863 58.7136 32.7589 58.7136H35.1413C35.2116 58.7136 35.2479 58.7499 35.2479 58.8202V59.0945C35.2479 59.1647 35.2116 59.201 35.1413 59.201H33.2825C33.2327 59.201 33.2077 59.2237 33.2077 59.269V60.8014C33.2077 60.8467 33.2327 60.8694 33.2825 60.8694H34.9056C34.9759 60.8694 35.0121 60.9057 35.0121 60.9759V61.2479C35.0121 61.3182 34.9759 61.3545 34.9056 61.3545H33.2825C33.2327 61.3545 33.2077 61.3772 33.2077 61.4225V63.0388C33.2077 63.0841 33.2327 63.1068 33.2825 63.1068H35.1413C35.2116 63.1068 35.2479 63.143 35.2479 63.2133V63.4876C35.2479 63.5579 35.2116 63.5941 35.1413 63.5941Z" fill="white"/>
<path d="M39.4125 63.5941H39.0702C39 63.5941 38.9637 63.5579 38.9637 63.4876V59.269C38.9637 59.2237 38.9388 59.201 38.8889 59.201H37.8575C37.7827 59.201 37.7441 59.1647 37.7441 59.0945V58.8202C37.7441 58.7499 37.7827 58.7136 37.8575 58.7136H40.6276C40.7024 58.7136 40.7409 58.7499 40.7409 58.8202V59.0945C40.7409 59.1647 40.7024 59.201 40.6276 59.201H39.5961C39.5463 59.201 39.5213 59.2237 39.5213 59.269V63.4876C39.5213 63.5579 39.4851 63.5941 39.4148 63.5941H39.4125Z" fill="white"/>
<path d="M43.9538 63.5941H41.5714C41.5011 63.5941 41.4648 63.5579 41.4648 63.4876V58.8202C41.4648 58.7499 41.4988 58.7136 41.5714 58.7136H43.9538C44.0241 58.7136 44.0604 58.7499 44.0604 58.8202V59.0945C44.0604 59.1647 44.0241 59.201 43.9538 59.201H42.095C42.0452 59.201 42.0202 59.2237 42.0202 59.269V60.8014C42.0202 60.8467 42.0452 60.8694 42.095 60.8694H43.7181C43.7884 60.8694 43.8246 60.9057 43.8246 60.9759V61.2479C43.8246 61.3182 43.7884 61.3545 43.7181 61.3545H42.095C42.0452 61.3545 42.0202 61.3772 42.0202 61.4225V63.0388C42.0202 63.0841 42.0452 63.1068 42.095 63.1068H43.9538C44.0241 63.1068 44.0604 63.143 44.0604 63.2133V63.4876C44.0604 63.5579 44.0241 63.5941 43.9538 63.5941Z" fill="white"/>
<path d="M47.0607 63.5944H46.1494C45.8003 63.5944 45.5261 63.4947 45.3266 63.2975C45.1271 63.1003 45.0273 62.8237 45.0273 62.4701V59.836C45.0273 59.4824 45.1271 59.2058 45.3266 59.0086C45.5261 58.8114 45.8003 58.7117 46.1494 58.7117H47.0607C47.4098 58.7117 47.6841 58.8114 47.8836 59.0086C48.083 59.2058 48.1828 59.4824 48.1828 59.836V60.2078C48.1828 60.2781 48.1465 60.3143 48.0762 60.3143H47.734C47.6637 60.3143 47.6274 60.2803 47.6274 60.2078V59.8587C47.6274 59.4189 47.4143 59.199 46.9904 59.199H46.2084C45.789 59.199 45.5782 59.4189 45.5782 59.8587V62.4452C45.5782 62.8849 45.7867 63.1048 46.2084 63.1048H46.9904C47.4166 63.1048 47.6274 62.8849 47.6274 62.4452V62.0961C47.6274 62.0258 47.6637 61.9895 47.734 61.9895H48.0762C48.1465 61.9895 48.1828 62.0258 48.1828 62.0961V62.4678C48.1828 62.8215 48.083 63.098 47.8836 63.2952C47.6841 63.4924 47.4098 63.5922 47.0607 63.5922V63.5944Z" fill="white"/>
<path d="M49.6527 63.5941H49.3194C49.2492 63.5941 49.2129 63.5579 49.2129 63.4876V58.8202C49.2129 58.7499 49.2469 58.7136 49.3194 58.7136H49.63C49.6912 58.7136 49.732 58.734 49.7524 58.7748L51.847 62.4562H51.8764V58.8224C51.8764 58.7522 51.9127 58.7159 51.983 58.7159H52.3162C52.3865 58.7159 52.4227 58.7522 52.4227 58.8224V63.4899C52.4227 63.5601 52.3865 63.5964 52.3162 63.5964H52.0351C51.9784 63.5964 51.9263 63.5624 51.8764 63.4967L49.7887 59.8538H49.7592V63.4876C49.7592 63.5579 49.7229 63.5941 49.6527 63.5941Z" fill="white"/>
<path d="M55.5673 63.5944H54.6651C54.316 63.5944 54.0417 63.4947 53.8422 63.2975C53.6427 63.1003 53.543 62.8237 53.543 62.4701V59.836C53.543 59.4824 53.6427 59.2058 53.8422 59.0086C54.0417 58.8114 54.316 58.7117 54.6651 58.7117H55.5673C55.9163 58.7117 56.1906 58.8114 56.3901 59.0109C56.5896 59.2104 56.6893 59.4847 56.6893 59.8338V62.4678C56.6893 62.8169 56.5896 63.0912 56.3901 63.2907C56.1906 63.4902 55.9163 63.5899 55.5673 63.5899V63.5944ZM54.724 63.1093H55.4993C55.9232 63.1093 56.1362 62.8895 56.1362 62.4497V59.8632C56.1362 59.4235 55.9232 59.2036 55.4993 59.2036H54.724C54.3046 59.2036 54.0938 59.4235 54.0938 59.8632V62.4497C54.0938 62.8895 54.3024 63.1093 54.724 63.1093Z" fill="white"/>
<path d="M60.3575 63.5941H57.9229C57.8527 63.5941 57.8164 63.5579 57.8164 63.4876V58.8202C57.8164 58.7499 57.8527 58.7136 57.9229 58.7136H58.2652C58.3355 58.7136 58.3718 58.7499 58.3718 58.8202V63.0252C58.3718 63.0705 58.3967 63.0932 58.4466 63.0932H60.3598C60.4301 63.0932 60.4663 63.1317 60.4663 63.2065V63.4876C60.4663 63.5579 60.4301 63.5941 60.3598 63.5941H60.3575Z" fill="white"/>
<path d="M63.1903 63.5944H62.2881C61.939 63.5944 61.6647 63.4947 61.4652 63.2975C61.2658 63.1003 61.166 62.8237 61.166 62.4701V59.836C61.166 59.4824 61.2658 59.2058 61.4652 59.0086C61.6647 58.8114 61.939 58.7117 62.2881 58.7117H63.1903C63.5394 58.7117 63.8137 58.8114 64.0132 59.0109C64.2126 59.2104 64.3124 59.4847 64.3124 59.8338V62.4678C64.3124 62.8169 64.2126 63.0912 64.0132 63.2907C63.8137 63.4902 63.5394 63.5899 63.1903 63.5899V63.5944ZM62.347 63.1093H63.12C63.5439 63.1093 63.757 62.8895 63.757 62.4497V59.8632C63.757 59.4235 63.5439 59.2036 63.12 59.2036H62.347C61.9277 59.2036 61.7169 59.4235 61.7169 59.8632V62.4497C61.7169 62.8895 61.9254 63.1093 62.347 63.1093Z" fill="white"/>
<path d="M67.2981 63.5944H66.4776C66.1285 63.5944 65.8542 63.4947 65.6547 63.2975C65.4552 63.1003 65.3555 62.8237 65.3555 62.4701V59.836C65.3555 59.4824 65.4552 59.2058 65.6547 59.0086C65.8542 58.8114 66.1285 58.7117 66.4776 58.7117H67.2981C67.6472 58.7117 67.9193 58.8114 68.1165 59.0109C68.3137 59.2104 68.4134 59.4847 68.4134 59.8338V60.1443C68.4134 60.2191 68.3772 60.2577 68.3069 60.2577H67.9646C67.8943 60.2577 67.8581 60.2191 67.8581 60.1443V59.8564C67.8581 59.4167 67.6472 59.1968 67.2279 59.1968H66.5365C66.1171 59.1968 65.9063 59.4167 65.9063 59.8564V62.4429C65.9063 62.8827 66.1149 63.1025 66.5365 63.1025H67.2279C67.6472 63.1025 67.8581 62.8827 67.8581 62.4429V61.5928C67.8581 61.543 67.8354 61.518 67.7901 61.518H67.0397C66.9695 61.518 66.9332 61.484 66.9332 61.4183V61.1372C66.9332 61.0669 66.9695 61.0306 67.0397 61.0306H68.2616C68.3613 61.0306 68.4134 61.0828 68.4134 61.1893V62.4633C68.4134 62.8169 68.3137 63.0935 68.1165 63.2907C67.9193 63.4879 67.6472 63.5876 67.2981 63.5876V63.5944Z" fill="white"/>
<path d="M70.1335 58.8226V63.49C70.1335 63.5603 70.0972 63.5966 70.027 63.5966H69.6847C69.6144 63.5966 69.5781 63.5603 69.5781 63.49V58.8226C69.5781 58.7523 69.6121 58.7161 69.6847 58.7161H70.027C70.0972 58.7161 70.1335 58.7523 70.1335 58.8226Z" fill="white"/>
<path d="M71.4284 63.5941H71.0499C70.9841 63.5941 70.9615 63.5579 70.9819 63.4876L72.4009 58.8202C72.4213 58.7499 72.4689 58.7136 72.5437 58.7136H73.09C73.1648 58.7136 73.2147 58.7499 73.2351 58.8202L74.6541 63.4876C74.6745 63.5579 74.6519 63.5941 74.5861 63.5941H74.1985C74.1418 63.5941 74.1078 63.5579 74.092 63.4876L73.7361 62.3791H71.8999L71.544 63.4876C71.5236 63.5579 71.4851 63.5941 71.4307 63.5941H71.4284ZM72.8021 59.2849L72.0201 61.9099H73.6137L72.8316 59.2849H72.8021Z" fill="white"/>
</svg>
