<svg width="976" height="136" viewBox="0 0 976 136" fill="none" xmlns="http://www.w3.org/2000/svg">
<path d="M12.3088 6.09992V48.8667C12.3088 49.6626 11.9109 50.0605 11.115 50.0605H6.69087C5.89499 50.0605 5.49705 49.6626 5.49705 48.8667V6.09992C5.49705 5.30405 5.89499 4.90611 6.69087 4.90611H11.115C11.9109 4.90611 12.3088 5.30405 12.3088 6.09992ZM27.8235 50.0605H23.3994C22.6035 50.0605 22.2056 49.6626 22.2056 48.8667V15.4398C22.2056 14.6439 22.6035 14.246 23.3994 14.246H27.8235C28.6194 14.246 29.0174 14.6439 29.0174 15.4398V17.9679H29.2983C30.6559 15.4866 33.1372 14.246 36.7421 14.246H39.0595C43.1325 14.246 46.0351 15.7909 47.7673 18.8808C48.5164 17.3827 49.6634 16.2357 51.2084 15.4398C52.7533 14.6439 54.4153 14.246 56.1943 14.246H58.4415C61.8591 14.246 64.4574 15.2057 66.2364 17.1252C68.0623 18.9978 68.9752 21.6664 68.9752 25.1308V48.8667C68.9752 49.6626 68.5772 50.0605 67.7814 50.0605H63.287C62.4911 50.0605 62.0932 49.6626 62.0932 48.8667V25.4117C62.0932 21.9473 60.4078 20.2151 57.037 20.2151H55.0005C51.1147 20.2151 49.1718 22.2516 49.1718 26.3246V48.8667C49.1718 49.6626 48.7505 50.0605 47.9078 50.0605H43.4836C42.6878 50.0605 42.2898 49.6626 42.2898 48.8667V25.4117C42.2898 21.9473 40.6044 20.2151 37.2336 20.2151H34.7758C30.9368 20.2151 29.0174 22.2048 29.0174 26.1842V48.8667C29.0174 49.6626 28.6194 50.0605 27.8235 50.0605ZM83.098 59.9622H78.6739C77.878 59.9622 77.48 59.5643 77.48 58.7684V15.4398C77.48 14.6439 77.878 14.246 78.6739 14.246H83.098C83.8939 14.246 84.2918 14.6439 84.2918 15.4398V17.9679H84.5727C85.6963 15.4866 88.0606 14.246 91.6654 14.246H95.2469C98.6177 14.246 101.193 15.1823 102.972 17.055C104.797 18.9276 105.71 21.6196 105.71 25.1308V39.1757C105.71 42.6401 104.797 45.3321 102.972 47.2516C101.193 49.1242 98.6177 50.0605 95.2469 50.0605H91.6654C88.0606 50.0605 85.6963 48.8199 84.5727 46.3386H84.2918V58.7684C84.2918 59.5643 83.8939 59.9622 83.098 59.9622ZM90.0503 44.0915H93.7722C97.1429 44.0915 98.8283 42.3592 98.8283 38.8948V25.4117C98.8283 21.9473 97.1429 20.2151 93.7722 20.2151H90.0503C86.2113 20.2151 84.2918 22.2048 84.2918 26.1842V38.1224C84.2918 42.1018 86.2113 44.0915 90.0503 44.0915ZM127.099 50.0605H123.939C120.568 50.0605 117.97 49.1242 116.144 47.2516C114.365 45.3321 113.476 42.6401 113.476 39.1757V15.4398C113.476 14.6439 113.874 14.246 114.669 14.246H119.094C119.89 14.246 120.287 14.6439 120.287 15.4398V38.8948C120.287 42.3592 121.973 44.0915 125.344 44.0915H128.714C132.553 44.0915 134.473 42.1018 134.473 38.1224V15.4398C134.473 14.6439 134.871 14.246 135.667 14.246H140.091C140.933 14.246 141.355 14.6439 141.355 15.4398V48.8667C141.355 49.6626 140.933 50.0605 140.091 50.0605H135.667C134.871 50.0605 134.473 49.6626 134.473 48.8667V46.3386H134.192C133.068 48.8199 130.704 50.0605 127.099 50.0605ZM156.074 50.0605H151.65C150.854 50.0605 150.456 49.6626 150.456 48.8667V1.88645C150.456 1.09057 150.854 0.69263 151.65 0.69263H156.074C156.87 0.69263 157.268 1.09057 157.268 1.88645V48.8667C157.268 49.6626 156.87 50.0605 156.074 50.0605ZM179.276 50.0605H166.355C165.559 50.0605 165.161 49.6626 165.161 48.8667V45.4257C165.161 44.6767 165.559 44.3021 166.355 44.3021H178.153C181.196 44.3021 182.717 43.2488 182.717 41.142V40.2993C182.717 38.4267 181.617 36.9988 179.417 36.0156L171.762 32.3639C169.374 31.2403 167.642 29.9997 166.565 28.642C165.489 27.2844 164.95 25.5053 164.95 23.305C164.95 17.2656 168.298 14.246 174.992 14.246H186.65C187.399 14.246 187.773 14.6439 187.773 15.4398V18.8808C187.773 19.6767 187.399 20.0746 186.65 20.0746H176.397C174.992 20.0746 173.916 20.3321 173.167 20.8471C172.418 21.3153 172.043 21.9473 172.043 22.7432V23.5156C172.043 25.0138 173.237 26.3246 175.624 27.4482L183.349 31.3808C185.784 32.4576 187.446 33.745 188.335 35.2431C189.271 36.6945 189.74 38.5905 189.74 40.9313C189.74 47.0175 186.252 50.0605 179.276 50.0605ZM197.364 8.27689V1.88645C197.364 1.13738 197.738 0.762853 198.488 0.762853H203.052C203.801 0.762853 204.176 1.13738 204.176 1.88645V8.27689C204.176 9.07277 203.801 9.47071 203.052 9.47071H198.488C197.738 9.47071 197.364 9.07277 197.364 8.27689ZM197.364 48.8667V15.4398C197.364 14.6439 197.738 14.246 198.488 14.246H202.982C203.778 14.246 204.176 14.6439 204.176 15.4398V48.8667C204.176 49.3349 204.082 49.6626 203.895 49.8499C203.754 49.9903 203.473 50.0605 203.052 50.0605H198.558C197.762 50.0605 197.364 49.6626 197.364 48.8667ZM229.765 50.0605H223.586C220.121 50.0605 217.429 49.1008 215.51 47.1813C213.637 45.2619 212.701 42.5933 212.701 39.1757V25.1308C212.701 21.6664 213.637 18.9978 215.51 17.1252C217.429 15.2057 220.121 14.246 223.586 14.246H229.765C233.183 14.246 235.852 15.2057 237.771 17.1252C239.737 18.9978 240.72 21.6664 240.72 25.1308V39.1757C240.72 42.5933 239.737 45.2619 237.771 47.1813C235.852 49.1008 233.183 50.0605 229.765 50.0605ZM224.569 44.0915H228.853C232.223 44.0915 233.909 42.3827 233.909 38.9651V25.3415C233.909 21.9239 232.223 20.2151 228.853 20.2151H224.569C222.79 20.2151 221.502 20.6364 220.706 21.4791C219.911 22.275 219.513 23.5625 219.513 25.3415V38.9651C219.513 40.7441 219.911 42.0549 220.706 42.8976C221.502 43.6935 222.79 44.0915 224.569 44.0915ZM254.408 50.0605H249.984C249.188 50.0605 248.79 49.6626 248.79 48.8667V15.4398C248.79 14.6439 249.188 14.246 249.984 14.246H254.408C255.204 14.246 255.602 14.6439 255.602 15.4398V17.9679H255.882C257.006 15.4866 259.37 14.246 262.975 14.246H266.065C269.483 14.246 272.104 15.1823 273.93 17.055C275.756 18.9276 276.669 21.6196 276.669 25.1308V48.8667C276.669 49.6626 276.248 50.0605 275.405 50.0605H270.981C270.185 50.0605 269.787 49.6626 269.787 48.8667V25.4117C269.787 21.9473 268.078 20.2151 264.661 20.2151H261.36C257.521 20.2151 255.602 22.2048 255.602 26.1842V48.8667C255.602 49.6626 255.204 50.0605 254.408 50.0605ZM297.989 50.0605H295.25C291.786 50.0605 289.094 49.1008 287.175 47.1813C285.302 45.2619 284.366 42.5933 284.366 39.1757V25.1308C284.366 21.6664 285.302 18.9978 287.175 17.1252C289.094 15.2057 291.786 14.246 295.25 14.246H310.981C311.823 14.246 312.245 14.6439 312.245 15.4398V48.8667C312.245 49.6626 311.823 50.0605 310.981 50.0605H306.557C305.761 50.0605 305.363 49.6626 305.363 48.8667V46.3386H305.082C303.958 48.8199 301.594 50.0605 297.989 50.0605ZM305.363 38.1224V20.9173C305.363 20.4492 305.105 20.2151 304.59 20.2151H296.234C292.863 20.2151 291.177 21.9473 291.177 25.4117V38.8948C291.177 42.3592 292.863 44.0915 296.234 44.0915H299.604C303.443 44.0915 305.363 42.1018 305.363 38.1224ZM326.621 50.0605H322.197C321.401 50.0605 321.003 49.6626 321.003 48.8667V15.4398C321.003 14.6439 321.401 14.246 322.197 14.246H326.621C327.417 14.246 327.815 14.6439 327.815 15.4398V17.9679H328.096C329.219 15.4866 331.584 14.246 335.189 14.246H338.278C341.696 14.246 344.318 15.1823 346.144 17.055C347.969 18.9276 348.882 21.6196 348.882 25.1308V48.8667C348.882 49.6626 348.461 50.0605 347.618 50.0605H343.194C342.398 50.0605 342 49.6626 342 48.8667V25.4117C342 21.9473 340.292 20.2151 336.874 20.2151H333.573C329.734 20.2151 327.815 22.2048 327.815 26.1842V48.8667C327.815 49.6626 327.417 50.0605 326.621 50.0605ZM370.624 50.0605H367.043C363.672 50.0605 361.073 49.1242 359.248 47.2516C357.469 45.3321 356.579 42.6401 356.579 39.1757V25.1308C356.579 21.6196 357.469 18.9276 359.248 17.055C361.073 15.1823 363.672 14.246 367.043 14.246H370.624C374.229 14.246 376.57 15.4866 377.646 17.9679H377.927V1.88645C377.927 1.09057 378.325 0.69263 379.121 0.69263H383.616C384.411 0.69263 384.809 1.09057 384.809 1.88645V48.8667C384.809 49.6626 384.411 50.0605 383.616 50.0605H379.121C378.325 50.0605 377.927 49.6626 377.927 48.8667V46.3386H377.646C376.57 48.8199 374.229 50.0605 370.624 50.0605ZM377.927 38.1224V26.1842C377.927 22.2048 376.008 20.2151 372.169 20.2151H368.447C365.076 20.2151 363.391 21.9473 363.391 25.4117V38.8948C363.391 42.3592 365.076 44.0915 368.447 44.0915H372.169C376.008 44.0915 377.927 42.1018 377.927 38.1224ZM409.99 50.0605H403.811C400.346 50.0605 397.654 49.1008 395.735 47.1813C393.862 45.2619 392.926 42.5933 392.926 39.1757V25.1308C392.926 21.6664 393.862 18.9978 395.735 17.1252C397.654 15.2057 400.346 14.246 403.811 14.246H409.99C413.408 14.246 416.077 15.2057 417.996 17.1252C419.962 18.9978 420.945 21.6664 420.945 25.1308V39.1757C420.945 42.5933 419.962 45.2619 417.996 47.1813C416.077 49.1008 413.408 50.0605 409.99 50.0605ZM404.794 44.0915H409.077C412.448 44.0915 414.134 42.3827 414.134 38.9651V25.3415C414.134 21.9239 412.448 20.2151 409.077 20.2151H404.794C403.015 20.2151 401.727 20.6364 400.931 21.4791C400.136 22.275 399.738 23.5625 399.738 25.3415V38.9651C399.738 40.7441 400.136 42.0549 400.931 42.8976C401.727 43.6935 403.015 44.0915 404.794 44.0915ZM471.997 50.0605H465.817C462.353 50.0605 459.661 49.1008 457.742 47.1813C455.869 45.2619 454.933 42.5933 454.933 39.1757V25.1308C454.933 21.6664 455.869 18.9978 457.742 17.1252C459.661 15.2057 462.353 14.246 465.817 14.246H471.997C475.415 14.246 478.083 15.2057 480.003 17.1252C481.969 18.9978 482.952 21.6664 482.952 25.1308V39.1757C482.952 42.5933 481.969 45.2619 480.003 47.1813C478.083 49.1008 475.415 50.0605 471.997 50.0605ZM466.801 44.0915H471.084C474.455 44.0915 476.141 42.3827 476.141 38.9651V25.3415C476.141 21.9239 474.455 20.2151 471.084 20.2151H466.801C465.022 20.2151 463.734 20.6364 462.938 21.4791C462.142 22.275 461.744 23.5625 461.744 25.3415V38.9651C461.744 40.7441 462.142 42.0549 462.938 42.8976C463.734 43.6935 465.022 44.0915 466.801 44.0915ZM496.64 50.0605H492.215C491.42 50.0605 491.022 49.6626 491.022 48.8667V15.4398C491.022 14.6439 491.42 14.246 492.215 14.246H496.64C497.435 14.246 497.833 14.6439 497.833 15.4398V18.1083H498.114C498.582 16.9379 499.472 16.0016 500.783 15.2994C502.14 14.5971 503.639 14.246 505.277 14.246H507.875C508.671 14.246 509.069 14.6439 509.069 15.4398V19.0915C509.069 19.981 508.671 20.3555 507.875 20.2151H503.662C499.776 20.2151 497.833 22.3452 497.833 26.6055V48.8667C497.833 49.6626 497.435 50.0605 496.64 50.0605ZM527.606 48.3049H524.446C521.075 48.3049 518.477 47.3686 516.651 45.4959C514.872 43.5765 513.982 40.8845 513.982 37.4201V25.1308C513.982 21.6664 514.942 18.9978 516.861 17.1252C518.781 15.2057 521.449 14.246 524.867 14.246H540.597C541.44 14.246 541.861 14.6439 541.861 15.4398V50.201C541.861 53.6186 540.878 56.2637 538.912 58.1364C536.993 60.0559 534.324 61.0156 530.906 61.0156H517.704C516.908 61.0156 516.51 60.6411 516.51 59.892V56.2403C516.51 55.4444 516.908 55.0465 517.704 55.0465H529.853C533.271 55.0465 534.979 53.3143 534.979 49.8499V44.5128H534.699C533.528 47.0409 531.164 48.3049 527.606 48.3049ZM534.979 36.3667V20.9173C534.979 20.4492 534.722 20.2151 534.207 20.2151H525.85C522.526 20.2151 520.864 21.9473 520.864 25.4117V37.069C520.864 40.5334 522.526 42.2656 525.85 42.2656H529.221C533.06 42.2656 534.979 40.2993 534.979 36.3667ZM563.538 50.0605H560.799C557.335 50.0605 554.643 49.1008 552.723 47.1813C550.851 45.2619 549.914 42.5933 549.914 39.1757V25.1308C549.914 21.6664 550.851 18.9978 552.723 17.1252C554.643 15.2057 557.335 14.246 560.799 14.246H576.529C577.372 14.246 577.793 14.6439 577.793 15.4398V48.8667C577.793 49.6626 577.372 50.0605 576.529 50.0605H572.105C571.309 50.0605 570.911 49.6626 570.911 48.8667V46.3386H570.63C569.507 48.8199 567.143 50.0605 563.538 50.0605ZM570.911 38.1224V20.9173C570.911 20.4492 570.654 20.2151 570.139 20.2151H561.782C558.411 20.2151 556.726 21.9473 556.726 25.4117V38.8948C556.726 42.3592 558.411 44.0915 561.782 44.0915H565.153C568.992 44.0915 570.911 42.1018 570.911 38.1224ZM592.17 50.0605H587.746C586.95 50.0605 586.552 49.6626 586.552 48.8667V15.4398C586.552 14.6439 586.95 14.246 587.746 14.246H592.17C592.966 14.246 593.364 14.6439 593.364 15.4398V17.9679H593.644C594.768 15.4866 597.132 14.246 600.737 14.246H603.827C607.245 14.246 609.866 15.1823 611.692 17.055C613.518 18.9276 614.431 21.6196 614.431 25.1308V48.8667C614.431 49.6626 614.01 50.0605 613.167 50.0605H608.743C607.947 50.0605 607.549 49.6626 607.549 48.8667V25.4117C607.549 21.9473 605.84 20.2151 602.422 20.2151H599.122C595.283 20.2151 593.364 22.2048 593.364 26.1842V48.8667C593.364 49.6626 592.966 50.0605 592.17 50.0605ZM623.181 8.27689V1.88645C623.181 1.13738 623.556 0.762853 624.305 0.762853H628.869C629.618 0.762853 629.993 1.13738 629.993 1.88645V8.27689C629.993 9.07277 629.618 9.47071 628.869 9.47071H624.305C623.556 9.47071 623.181 9.07277 623.181 8.27689ZM623.181 48.8667V15.4398C623.181 14.6439 623.556 14.246 624.305 14.246H628.799C629.595 14.246 629.993 14.6439 629.993 15.4398V48.8667C629.993 49.3349 629.899 49.6626 629.712 49.8499C629.571 49.9903 629.291 50.0605 628.869 50.0605H624.375C623.579 50.0605 623.181 49.6626 623.181 48.8667ZM637.043 48.8667V47.0409C637.043 45.8705 637.371 44.8639 638.026 44.0212L654.248 20.496V20.2151H638.869C638.026 20.2151 637.605 19.7937 637.605 18.951V15.4398C637.605 14.6439 638.026 14.246 638.869 14.246H661.06C661.856 14.246 662.254 14.6439 662.254 15.4398V18.6701C662.254 19.7937 661.973 20.6832 661.411 21.3387L646.032 43.8106V44.0915H661.692C662.535 44.0915 662.956 44.5128 662.956 45.3555V48.8667C662.956 49.6626 662.535 50.0605 661.692 50.0605H638.307C637.465 50.0605 637.043 49.6626 637.043 48.8667ZM682.453 50.0605H679.715C676.25 50.0605 673.558 49.1008 671.639 47.1813C669.766 45.2619 668.83 42.5933 668.83 39.1757V25.1308C668.83 21.6664 669.766 18.9978 671.639 17.1252C673.558 15.2057 676.25 14.246 679.715 14.246H695.445C696.288 14.246 696.709 14.6439 696.709 15.4398V48.8667C696.709 49.6626 696.288 50.0605 695.445 50.0605H691.021C690.225 50.0605 689.827 49.6626 689.827 48.8667V46.3386H689.546C688.422 48.8199 686.058 50.0605 682.453 50.0605ZM689.827 38.1224V20.9173C689.827 20.4492 689.569 20.2151 689.054 20.2151H680.698C677.327 20.2151 675.642 21.9473 675.642 25.4117V38.8948C675.642 42.3592 677.327 44.0915 680.698 44.0915H684.069C687.907 44.0915 689.827 42.1018 689.827 38.1224ZM725.973 20.2151H716.633C713.262 20.2151 711.577 21.9473 711.577 25.4117V38.8948C711.577 42.3592 713.262 44.0915 716.633 44.0915H725.973C726.816 44.0915 727.237 44.4894 727.237 45.2853V48.937C727.237 49.686 726.816 50.0605 725.973 50.0605H721.549L718.95 52.7291V53.01C722.508 53.01 724.288 54.6486 724.288 57.9257V58.9791C724.288 62.069 722.181 63.6139 717.967 63.6139H715.369C714.901 63.6139 714.597 63.5437 714.456 63.4032C714.316 63.2628 714.245 62.9819 714.245 62.5605V61.3667C714.245 60.6645 714.62 60.3133 715.369 60.3133H717.335C718.646 60.3133 719.536 60.1729 720.004 59.892C720.472 59.6111 720.706 59.1195 720.706 58.4173V58.2768C720.706 57.5278 720.472 57.0128 720.004 56.7319C719.582 56.4978 718.693 56.3808 717.335 56.3808H715.861C715.018 56.3808 714.456 55.9594 714.175 55.1167C713.894 54.3208 714.058 53.5952 714.667 52.9398L717.125 50.0605H715.65C712.185 50.0605 709.494 49.1008 707.574 47.1813C705.701 45.2619 704.765 42.5933 704.765 39.1757V25.1308C704.765 21.6664 705.701 18.9978 707.574 17.1252C709.494 15.2057 712.185 14.246 715.65 14.246H725.973C726.816 14.246 727.237 14.6439 727.237 15.4398V19.0915C727.237 19.8405 726.816 20.2151 725.973 20.2151ZM738.703 4.27409V1.60555C738.703 1.09057 738.937 0.833077 739.405 0.833077H741.512C741.98 0.833077 742.214 1.09057 742.214 1.60555V2.93982C742.214 4.15704 742.308 4.97633 742.495 5.39768C742.682 5.77221 743.01 5.95948 743.478 5.95948C743.946 5.95948 744.321 5.79562 744.602 5.4679C744.882 5.14019 745.327 4.43794 745.936 3.36116C746.591 2.23757 747.223 1.48851 747.832 1.11398C748.441 0.739444 749.213 0.552178 750.149 0.552178C753.286 0.552178 754.854 2.35461 754.854 5.95948V8.62801C754.854 9.18981 754.644 9.47071 754.222 9.47071H752.116C751.647 9.47071 751.413 9.18981 751.413 8.62801V7.36397C751.413 6.14674 751.32 5.35086 751.132 4.97633C750.945 4.55498 750.594 4.34431 750.079 4.34431C749.611 4.34431 749.26 4.48476 749.026 4.76566C748.792 4.99974 748.37 5.63176 747.762 6.66172C747.153 7.87895 746.521 8.69824 745.866 9.11959C745.21 9.49412 744.391 9.68138 743.408 9.68138C740.271 9.68138 738.703 7.87895 738.703 4.27409ZM750.29 50.0605H744.11C740.646 50.0605 737.954 49.1008 736.034 47.1813C734.162 45.2619 733.225 42.5933 733.225 39.1757V25.1308C733.225 21.6664 734.162 18.9978 736.034 17.1252C737.954 15.2057 740.646 14.246 744.11 14.246H750.29C753.707 14.246 756.376 15.2057 758.295 17.1252C760.262 18.9978 761.245 21.6664 761.245 25.1308V39.1757C761.245 42.5933 760.262 45.2619 758.295 47.1813C756.376 49.1008 753.707 50.0605 750.29 50.0605ZM745.093 44.0915H749.377C752.748 44.0915 754.433 42.3827 754.433 38.9651V25.3415C754.433 21.9239 752.748 20.2151 749.377 20.2151H745.093C743.314 20.2151 742.027 20.6364 741.231 21.4791C740.435 22.275 740.037 23.5625 740.037 25.3415V38.9651C740.037 40.7441 740.435 42.0549 741.231 42.8976C742.027 43.6935 743.314 44.0915 745.093 44.0915ZM794.665 50.0605H779.497C776.032 50.0605 773.34 49.1008 771.421 47.1813C769.548 45.2619 768.612 42.5933 768.612 39.1757V25.1308C768.612 21.6664 769.548 18.9978 771.421 17.1252C773.34 15.2057 776.032 14.246 779.497 14.246H785.255C788.72 14.246 791.411 15.2057 793.331 17.1252C795.25 18.9978 796.21 21.6664 796.21 25.1308V34.0493C796.21 34.892 795.789 35.3134 794.946 35.3134H776.126C775.611 35.3134 775.353 35.5475 775.353 36.0156V39.0353C775.353 42.4529 777.062 44.1617 780.48 44.1617H794.665C795.508 44.1617 795.929 44.583 795.929 45.4257V48.937C795.929 49.686 795.508 50.0605 794.665 50.0605ZM776.126 30.5381H788.696C789.164 30.5381 789.398 30.304 789.398 29.8359V25.3415C789.398 23.5625 789 22.275 788.205 21.4791C787.409 20.6364 786.121 20.2151 784.342 20.2151H780.48C778.701 20.2151 777.413 20.6364 776.617 21.4791C775.822 22.275 775.424 23.5625 775.424 25.3415V29.8359C775.424 30.304 775.658 30.5381 776.126 30.5381ZM816.727 50.0605H803.806C803.01 50.0605 802.612 49.6626 802.612 48.8667V45.4257C802.612 44.6767 803.01 44.3021 803.806 44.3021H815.604C818.647 44.3021 820.168 43.2488 820.168 41.142V40.2993C820.168 38.4267 819.068 36.9988 816.868 36.0156L809.213 32.3639C806.826 31.2403 805.093 29.9997 804.017 28.642C802.94 27.2844 802.401 25.5053 802.401 23.305C802.401 17.2656 805.749 14.246 812.444 14.246H824.101C824.85 14.246 825.224 14.6439 825.224 15.4398V18.8808C825.224 19.6767 824.85 20.0746 824.101 20.0746H813.848C812.444 20.0746 811.367 20.3321 810.618 20.8471C809.869 21.3153 809.494 21.9473 809.494 22.7432V23.5156C809.494 25.0138 810.688 26.3246 813.076 27.4482L820.8 31.3808C823.235 32.4576 824.897 33.745 825.786 35.2431C826.723 36.6945 827.191 38.5905 827.191 40.9313C827.191 47.0175 823.703 50.0605 816.727 50.0605ZM882.854 45.2853V48.937C882.854 49.686 882.432 50.0605 881.59 50.0605H871.267C867.802 50.0605 865.11 49.1008 863.191 47.1813C861.318 45.2619 860.382 42.5933 860.382 39.1757V25.1308C860.382 21.6664 861.318 18.9978 863.191 17.1252C865.11 15.2057 867.802 14.246 871.267 14.246H881.59C882.432 14.246 882.854 14.6439 882.854 15.4398V19.0915C882.854 19.8405 882.432 20.2151 881.59 20.2151H872.25C868.879 20.2151 867.194 21.9473 867.194 25.4117V38.8948C867.194 42.3592 868.879 44.0915 872.25 44.0915H881.59C882.432 44.0915 882.854 44.4894 882.854 45.2853ZM905.907 50.0605H899.727C896.262 50.0605 893.571 49.1008 891.651 47.1813C889.778 45.2619 888.842 42.5933 888.842 39.1757V25.1308C888.842 21.6664 889.778 18.9978 891.651 17.1252C893.571 15.2057 896.262 14.246 899.727 14.246H905.907C909.324 14.246 911.993 15.2057 913.912 17.1252C915.879 18.9978 916.862 21.6664 916.862 25.1308V39.1757C916.862 42.5933 915.879 45.2619 913.912 47.1813C911.993 49.1008 909.324 50.0605 905.907 50.0605ZM900.71 44.0915H904.994C908.365 44.0915 910.05 42.3827 910.05 38.9651V25.3415C910.05 21.9239 908.365 20.2151 904.994 20.2151H900.71C898.931 20.2151 897.644 20.6364 896.848 21.4791C896.052 22.275 895.654 23.5625 895.654 25.3415V38.9651C895.654 40.7441 896.052 42.0549 896.848 42.8976C897.644 43.6935 898.931 44.0915 900.71 44.0915ZM930.549 50.0605H926.125C925.329 50.0605 924.931 49.6626 924.931 48.8667V15.4398C924.931 14.6439 925.329 14.246 926.125 14.246H930.549C931.345 14.246 931.743 14.6439 931.743 15.4398V17.9679H932.024C933.381 15.4866 935.863 14.246 939.467 14.246H941.785C945.858 14.246 948.76 15.7909 950.493 18.8808C951.242 17.3827 952.389 16.2357 953.934 15.4398C955.479 14.6439 957.141 14.246 958.92 14.246H961.167C964.584 14.246 967.183 15.2057 968.962 17.1252C970.788 18.9978 971.701 21.6664 971.701 25.1308V48.8667C971.701 49.6626 971.303 50.0605 970.507 50.0605H966.012C965.216 50.0605 964.819 49.6626 964.819 48.8667V25.4117C964.819 21.9473 963.133 20.2151 959.762 20.2151H957.726C953.84 20.2151 951.897 22.2516 951.897 26.3246V48.8667C951.897 49.6626 951.476 50.0605 950.633 50.0605H946.209C945.413 50.0605 945.015 49.6626 945.015 48.8667V25.4117C945.015 21.9473 943.33 20.2151 939.959 20.2151H937.501C933.662 20.2151 931.743 22.2048 931.743 26.1842V48.8667C931.743 49.6626 931.345 50.0605 930.549 50.0605ZM12.3088 78.0999V120.867C12.3088 121.663 11.9109 122.061 11.115 122.061H6.69087C5.89499 122.061 5.49705 121.663 5.49705 120.867V78.0999C5.49705 77.304 5.89499 76.9061 6.69087 76.9061H11.115C11.9109 76.9061 12.3088 77.304 12.3088 78.0999ZM27.8235 122.061H23.3994C22.6035 122.061 22.2056 121.663 22.2056 120.867V87.4398C22.2056 86.6439 22.6035 86.246 23.3994 86.246H27.8235C28.6194 86.246 29.0174 86.6439 29.0174 87.4398V89.9679H29.2983C30.4219 87.4866 32.7861 86.246 36.391 86.246H39.4808C42.8984 86.246 45.5202 87.1823 47.346 89.055C49.1718 90.9276 50.0848 93.6196 50.0848 97.1308V120.867C50.0848 121.663 49.6634 122.061 48.8207 122.061H44.3966C43.6007 122.061 43.2027 121.663 43.2027 120.867V97.4117C43.2027 93.9473 41.4939 92.2151 38.0763 92.2151H34.7758C30.9368 92.2151 29.0174 94.2048 29.0174 98.1842V120.867C29.0174 121.663 28.6194 122.061 27.8235 122.061ZM74.8461 122.061H68.6663C65.2019 122.061 62.5099 121.101 60.5905 119.181C58.7178 117.262 57.7815 114.593 57.7815 111.176V97.1308C57.7815 93.6664 58.7178 90.9978 60.5905 89.1252C62.5099 87.2057 65.2019 86.246 68.6663 86.246H74.8461C78.2637 86.246 80.9322 87.2057 82.8517 89.1252C84.818 90.9978 85.8011 93.6664 85.8011 97.1308V111.176C85.8011 114.593 84.818 117.262 82.8517 119.181C80.9322 121.101 78.2637 122.061 74.8461 122.061ZM69.6495 116.091H73.9332C77.3039 116.091 78.9893 114.383 78.9893 110.965V97.3415C78.9893 93.9239 77.3039 92.2151 73.9332 92.2151H69.6495C67.8704 92.2151 66.583 92.6364 65.7871 93.4791C64.9912 94.275 64.5933 95.5625 64.5933 97.3415V110.965C64.5933 112.744 64.9912 114.055 65.7871 114.898C66.583 115.694 67.8704 116.091 69.6495 116.091ZM91.6232 86.246H96.3282C97.0773 86.246 97.522 86.6439 97.6625 87.4398L104.966 115.67H105.457L112.62 87.4398C112.808 86.6439 113.299 86.246 114.095 86.246H118.73C119.573 86.246 119.853 86.6439 119.573 87.4398L110.092 120.797C109.905 121.639 109.39 122.061 108.547 122.061H101.806C100.963 122.061 100.448 121.639 100.261 120.797L90.7805 87.4398C90.5932 86.6439 90.8741 86.246 91.6232 86.246ZM138.269 122.061H135.531C132.066 122.061 129.374 121.101 127.455 119.181C125.582 117.262 124.646 114.593 124.646 111.176V97.1308C124.646 93.6664 125.582 90.9978 127.455 89.1252C129.374 87.2057 132.066 86.246 135.531 86.246H151.261C152.104 86.246 152.525 86.6439 152.525 87.4398V120.867C152.525 121.663 152.104 122.061 151.261 122.061H146.837C146.041 122.061 145.643 121.663 145.643 120.867V118.339H145.362C144.238 120.82 141.874 122.061 138.269 122.061ZM145.643 110.122V92.9173C145.643 92.4492 145.385 92.2151 144.87 92.2151H136.514C133.143 92.2151 131.458 93.9473 131.458 97.4117V110.895C131.458 114.359 133.143 116.091 136.514 116.091H139.885C143.723 116.091 145.643 114.102 145.643 110.122ZM181.789 92.2151H172.449C169.078 92.2151 167.393 93.9473 167.393 97.4117V110.895C167.393 114.359 169.078 116.091 172.449 116.091H181.789C182.632 116.091 183.053 116.489 183.053 117.285V120.937C183.053 121.686 182.632 122.061 181.789 122.061H177.365L174.766 124.729V125.01C178.324 125.01 180.103 126.649 180.103 129.926V130.979C180.103 134.069 177.997 135.614 173.783 135.614H171.185C170.717 135.614 170.412 135.544 170.272 135.403C170.132 135.263 170.061 134.982 170.061 134.561V133.367C170.061 132.664 170.436 132.313 171.185 132.313H173.151C174.462 132.313 175.352 132.173 175.82 131.892C176.288 131.611 176.522 131.12 176.522 130.417V130.277C176.522 129.528 176.288 129.013 175.82 128.732C175.398 128.498 174.509 128.381 173.151 128.381H171.677C170.834 128.381 170.272 127.959 169.991 127.117C169.71 126.321 169.874 125.595 170.483 124.94L172.941 122.061H171.466C168.001 122.061 165.309 121.101 163.39 119.181C161.517 117.262 160.581 114.593 160.581 111.176V97.1308C160.581 93.6664 161.517 90.9978 163.39 89.1252C165.309 87.2057 168.001 86.246 171.466 86.246H181.789C182.632 86.246 183.053 86.6439 183.053 87.4398V91.0915C183.053 91.8405 182.632 92.2151 181.789 92.2151ZM196.415 76.2741V73.6055C196.415 73.0906 196.649 72.8331 197.117 72.8331H199.154C199.575 72.8331 199.786 73.0906 199.786 73.6055V74.9398C199.786 76.1102 199.903 76.9061 200.137 77.3275C200.371 77.7488 200.698 77.9595 201.12 77.9595C201.588 77.9595 201.963 77.7956 202.243 77.4679C202.524 77.1402 202.992 76.3911 203.648 75.2207C204.772 73.4417 206.153 72.5522 207.791 72.5522C210.928 72.5522 212.496 74.3546 212.496 77.9595V80.628C212.496 81.1898 212.286 81.4707 211.864 81.4707H209.757C209.289 81.4707 209.055 81.1898 209.055 80.628V79.364C209.055 78.1467 208.938 77.3509 208.704 76.9763C208.517 76.555 208.189 76.3443 207.721 76.3443C207.253 76.3443 206.902 76.4848 206.668 76.7657C206.433 76.9997 206.036 77.6318 205.474 78.6617C204.397 80.6748 202.946 81.6814 201.12 81.6814C197.983 81.6814 196.415 79.8789 196.415 76.2741ZM202.665 122.061H199.926C196.462 122.061 193.77 121.101 191.85 119.181C189.978 117.262 189.041 114.593 189.041 111.176V97.1308C189.041 93.6664 189.978 90.9978 191.85 89.1252C193.77 87.2057 196.462 86.246 199.926 86.246H215.656C216.499 86.246 216.92 86.6439 216.92 87.4398V120.867C216.92 121.663 216.499 122.061 215.656 122.061H211.232C210.436 122.061 210.038 121.663 210.038 120.867V118.339H209.757C208.634 120.82 206.27 122.061 202.665 122.061ZM210.038 110.122V92.9173C210.038 92.4492 209.781 92.2151 209.266 92.2151H200.909C197.538 92.2151 195.853 93.9473 195.853 97.4117V110.895C195.853 114.359 197.538 116.091 200.909 116.091H204.28C208.119 116.091 210.038 114.102 210.038 110.122ZM242.11 122.061H235.93C232.465 122.061 229.773 121.101 227.854 119.181C225.981 117.262 225.045 114.593 225.045 111.176V97.1308C225.045 93.6664 225.981 90.9978 227.854 89.1252C229.773 87.2057 232.465 86.246 235.93 86.246H242.11C245.527 86.246 248.196 87.2057 250.115 89.1252C252.082 90.9978 253.065 93.6664 253.065 97.1308V111.176C253.065 114.593 252.082 117.262 250.115 119.181C248.196 121.101 245.527 122.061 242.11 122.061ZM236.913 116.091H241.197C244.567 116.091 246.253 114.383 246.253 110.965V97.3415C246.253 93.9239 244.567 92.2151 241.197 92.2151H236.913C235.134 92.2151 233.847 92.6364 233.051 93.4791C232.255 94.275 231.857 95.5625 231.857 97.3415V110.965C231.857 112.744 232.255 114.055 233.051 114.898C233.847 115.694 235.134 116.091 236.913 116.091ZM267.243 112.299V117.777C267.243 118.9 266.799 120.305 265.909 121.99L262.187 128.802C262 129.223 261.649 129.434 261.134 129.434C260.478 129.434 260.151 129.06 260.151 128.311V112.299C260.151 111.55 260.549 111.176 261.345 111.176H266.12C266.869 111.176 267.243 111.55 267.243 112.299Z" fill="white"/>
<path d="M352.398 121.957H347.974C347.131 121.957 346.71 121.559 346.71 120.763V83.4742C346.71 83.006 346.476 82.7719 346.008 82.7719H337.159C336.317 82.7719 335.895 82.374 335.895 81.5781V77.9967C335.895 77.2008 336.317 76.8028 337.159 76.8028H363.213C364.055 76.8028 364.477 77.2008 364.477 77.9967V81.5781C364.477 82.374 364.055 82.7719 363.213 82.7719H354.364C353.849 82.7719 353.592 83.006 353.592 83.4742V120.763C353.592 121.559 353.194 121.957 352.398 121.957ZM395.136 121.957H379.968C376.503 121.957 373.811 120.998 371.892 119.078C370.019 117.159 369.083 114.49 369.083 111.072V97.0275C369.083 93.5631 370.019 90.8946 371.892 89.0219C373.811 87.1024 376.503 86.1427 379.968 86.1427H385.726C389.191 86.1427 391.883 87.1024 393.802 89.0219C395.722 90.8946 396.681 93.5631 396.681 97.0275V105.946C396.681 106.789 396.26 107.21 395.417 107.21H376.597C376.082 107.21 375.825 107.444 375.825 107.912V110.932C375.825 114.35 377.533 116.058 380.951 116.058H395.136C395.979 116.058 396.4 116.48 396.4 117.322V120.834C396.4 121.583 395.979 121.957 395.136 121.957ZM376.597 102.435H389.167C389.635 102.435 389.869 102.201 389.869 101.733V97.2382C389.869 95.4592 389.472 94.1717 388.676 93.3758C387.88 92.5332 386.592 92.1118 384.813 92.1118H380.951C379.172 92.1118 377.884 92.5332 377.089 93.3758C376.293 94.1717 375.895 95.4592 375.895 97.2382V101.733C375.895 102.201 376.129 102.435 376.597 102.435ZM426.187 117.182V120.834C426.187 121.583 425.766 121.957 424.923 121.957H414.6C411.136 121.957 408.444 120.998 406.524 119.078C404.652 117.159 403.715 114.49 403.715 111.072V97.0275C403.715 93.5631 404.652 90.8946 406.524 89.0219C408.444 87.1024 411.136 86.1427 414.6 86.1427H424.923C425.766 86.1427 426.187 86.5406 426.187 87.3365V90.9882C426.187 91.7373 425.766 92.1118 424.923 92.1118H415.583C412.212 92.1118 410.527 93.844 410.527 97.3084V110.792C410.527 114.256 412.212 115.988 415.583 115.988H424.923C425.766 115.988 426.187 116.386 426.187 117.182ZM438.496 121.957H434.071C433.276 121.957 432.878 121.559 432.878 120.763V87.3365C432.878 86.5406 433.276 86.1427 434.071 86.1427H438.496C439.292 86.1427 439.689 86.5406 439.689 87.3365V89.8646H439.97C441.094 87.3833 443.458 86.1427 447.063 86.1427H450.153C453.571 86.1427 456.192 87.079 458.018 88.9517C459.844 90.8244 460.757 93.5163 460.757 97.0275V120.763C460.757 121.559 460.335 121.957 459.493 121.957H455.069C454.273 121.957 453.875 121.559 453.875 120.763V97.3084C453.875 93.844 452.166 92.1118 448.748 92.1118H445.448C441.609 92.1118 439.689 94.1015 439.689 98.0809V120.763C439.689 121.559 439.292 121.957 438.496 121.957ZM485.518 121.957H479.338C475.874 121.957 473.182 120.998 471.263 119.078C469.39 117.159 468.454 114.49 468.454 111.072V97.0275C468.454 93.5631 469.39 90.8946 471.263 89.0219C473.182 87.1024 475.874 86.1427 479.338 86.1427H485.518C488.936 86.1427 491.604 87.1024 493.524 89.0219C495.49 90.8946 496.473 93.5631 496.473 97.0275V111.072C496.473 114.49 495.49 117.159 493.524 119.078C491.604 120.998 488.936 121.957 485.518 121.957ZM480.322 115.988H484.605C487.976 115.988 489.661 114.279 489.661 110.862V97.2382C489.661 93.8206 487.976 92.1118 484.605 92.1118H480.322C478.543 92.1118 477.255 92.5332 476.459 93.3758C475.663 94.1717 475.265 95.4592 475.265 97.2382V110.862C475.265 112.641 475.663 113.952 476.459 114.794C477.255 115.59 478.543 115.988 480.322 115.988ZM510.512 121.957H506.087C505.292 121.957 504.894 121.559 504.894 120.763V73.7832C504.894 72.9873 505.292 72.5894 506.087 72.5894H510.512C511.307 72.5894 511.705 72.9873 511.705 73.7832V120.763C511.705 121.559 511.307 121.957 510.512 121.957ZM537.295 121.957H531.115C527.651 121.957 524.959 120.998 523.04 119.078C521.167 117.159 520.231 114.49 520.231 111.072V97.0275C520.231 93.5631 521.167 90.8946 523.04 89.0219C524.959 87.1024 527.651 86.1427 531.115 86.1427H537.295C540.713 86.1427 543.381 87.1024 545.301 89.0219C547.267 90.8946 548.25 93.5631 548.25 97.0275V111.072C548.25 114.49 547.267 117.159 545.301 119.078C543.381 120.998 540.713 121.957 537.295 121.957ZM532.098 115.988H536.382C539.753 115.988 541.438 114.279 541.438 110.862V97.2382C541.438 93.8206 539.753 92.1118 536.382 92.1118H532.098C530.319 92.1118 529.032 92.5332 528.236 93.3758C527.44 94.1717 527.042 95.4592 527.042 97.2382V110.862C527.042 112.641 527.44 113.952 528.236 114.794C529.032 115.59 530.319 115.988 532.098 115.988ZM569.381 120.202H566.221C562.85 120.202 560.252 119.265 558.426 117.393C556.647 115.473 555.758 112.781 555.758 109.317V97.0275C555.758 93.5631 556.717 90.8946 558.637 89.0219C560.556 87.1024 563.225 86.1427 566.642 86.1427H582.373C583.215 86.1427 583.637 86.5406 583.637 87.3365V122.098C583.637 125.515 582.654 128.16 580.687 130.033C578.768 131.953 576.099 132.912 572.682 132.912H559.48C558.684 132.912 558.286 132.538 558.286 131.789V128.137C558.286 127.341 558.684 126.943 559.48 126.943H571.628C575.046 126.943 576.755 125.211 576.755 121.747V116.41H576.474C575.303 118.938 572.939 120.202 569.381 120.202ZM576.755 108.263V92.8141C576.755 92.3459 576.497 92.1118 575.982 92.1118H567.626C564.302 92.1118 562.64 93.844 562.64 97.3084V108.966C562.64 112.43 564.302 114.162 567.626 114.162H570.996C574.835 114.162 576.755 112.196 576.755 108.263ZM592.743 80.1736V73.7832C592.743 73.0341 593.117 72.6596 593.867 72.6596H598.431C599.18 72.6596 599.555 73.0341 599.555 73.7832V80.1736C599.555 80.9695 599.18 81.3674 598.431 81.3674H593.867C593.117 81.3674 592.743 80.9695 592.743 80.1736ZM592.743 120.763V87.3365C592.743 86.5406 593.117 86.1427 593.867 86.1427H598.361C599.157 86.1427 599.555 86.5406 599.555 87.3365V120.763C599.555 121.232 599.461 121.559 599.274 121.747C599.133 121.887 598.852 121.957 598.431 121.957H593.937C593.141 121.957 592.743 121.559 592.743 120.763ZM621.703 121.957H618.965C615.5 121.957 612.808 120.998 610.889 119.078C609.016 117.159 608.08 114.49 608.08 111.072V97.0275C608.08 93.5631 609.016 90.8946 610.889 89.0219C612.808 87.1024 615.5 86.1427 618.965 86.1427H634.695C635.538 86.1427 635.959 86.5406 635.959 87.3365V120.763C635.959 121.559 635.538 121.957 634.695 121.957H630.271C629.475 121.957 629.077 121.559 629.077 120.763V118.235H628.796C627.673 120.717 625.308 121.957 621.703 121.957ZM629.077 110.019V92.8141C629.077 92.3459 628.82 92.1118 628.305 92.1118H619.948C616.577 92.1118 614.892 93.844 614.892 97.3084V110.792C614.892 114.256 616.577 115.988 619.948 115.988H623.319C627.158 115.988 629.077 113.998 629.077 110.019Z" fill="white"/>
<path d="M755.098 121.957H739.93C736.466 121.957 733.774 120.998 731.854 119.078C729.981 117.159 729.045 114.49 729.045 111.072V97.0275C729.045 93.5631 729.981 90.8946 731.854 89.0219C733.774 87.1024 736.466 86.1427 739.93 86.1427H745.688C749.153 86.1427 751.845 87.1024 753.764 89.0219C755.684 90.8946 756.643 93.5631 756.643 97.0275V105.946C756.643 106.789 756.222 107.21 755.379 107.21H736.559C736.044 107.21 735.787 107.444 735.787 107.912V110.932C735.787 114.35 737.495 116.058 740.913 116.058H755.098C755.941 116.058 756.363 116.48 756.363 117.322V120.834C756.363 121.583 755.941 121.957 755.098 121.957ZM736.559 102.435H749.129C749.598 102.435 749.832 102.201 749.832 101.733V97.2382C749.832 95.4592 749.434 94.1717 748.638 93.3758C747.842 92.5332 746.554 92.1118 744.775 92.1118H740.913C739.134 92.1118 737.847 92.5332 737.051 93.3758C736.255 94.1717 735.857 95.4592 735.857 97.2382V101.733C735.857 102.201 736.091 102.435 736.559 102.435ZM799.512 121.957H791.998C788.533 121.957 785.841 120.998 783.922 119.078C782.049 117.159 781.113 114.49 781.113 111.072V87.6877C781.113 84.2232 782.049 81.5547 783.922 79.682C785.841 77.7626 788.533 76.8028 791.998 76.8028H799.512C802.976 76.8028 805.645 77.7626 807.517 79.682C809.437 81.5547 810.397 84.2232 810.397 87.6877V90.2157C810.397 91.0584 809.999 91.4798 809.203 91.4798H804.779C803.983 91.4798 803.585 91.0584 803.585 90.2157V87.9686C803.585 84.5041 801.899 82.7719 798.529 82.7719H792.981C789.61 82.7719 787.925 84.5041 787.925 87.9686V110.792C787.925 114.256 789.61 115.988 792.981 115.988H798.529C801.899 115.988 803.585 114.256 803.585 110.792V104.471C803.585 104.003 803.327 103.769 802.812 103.769H797.124C796.328 103.769 795.93 103.371 795.93 102.575V98.9938C795.93 98.1979 796.328 97.8 797.124 97.8H808.922C809.905 97.8 810.397 98.2916 810.397 99.2747V111.072C810.397 114.49 809.437 117.159 807.517 119.078C805.598 120.998 802.929 121.957 799.512 121.957ZM844.594 121.957H829.425C825.961 121.957 823.269 120.998 821.349 119.078C819.477 117.159 818.54 114.49 818.54 111.072V97.0275C818.54 93.5631 819.477 90.8946 821.349 89.0219C823.269 87.1024 825.961 86.1427 829.425 86.1427H835.184C838.648 86.1427 841.34 87.1024 843.259 89.0219C845.179 90.8946 846.139 93.5631 846.139 97.0275V105.946C846.139 106.789 845.717 107.21 844.875 107.21H826.054C825.539 107.21 825.282 107.444 825.282 107.912V110.932C825.282 114.35 826.991 116.058 830.408 116.058H844.594C845.436 116.058 845.858 116.48 845.858 117.322V120.834C845.858 121.583 845.436 121.957 844.594 121.957ZM826.054 102.435H838.625C839.093 102.435 839.327 102.201 839.327 101.733V97.2382C839.327 95.4592 838.929 94.1717 838.133 93.3758C837.337 92.5332 836.05 92.1118 834.271 92.1118H830.408C828.629 92.1118 827.342 92.5332 826.546 93.3758C825.75 94.1717 825.352 95.4592 825.352 97.2382V101.733C825.352 102.201 825.586 102.435 826.054 102.435ZM866.656 121.957H853.734C852.939 121.957 852.541 121.559 852.541 120.763V117.322C852.541 116.573 852.939 116.199 853.734 116.199H865.532C868.575 116.199 870.097 115.145 870.097 113.039V112.196C870.097 110.323 868.997 108.895 866.796 107.912L859.142 104.261C856.754 103.137 855.022 101.896 853.945 100.539C852.868 99.1811 852.33 97.4021 852.33 95.2017C852.33 89.1624 855.677 86.1427 862.372 86.1427H874.029C874.778 86.1427 875.153 86.5406 875.153 87.3365V90.7775C875.153 91.5734 874.778 91.9714 874.029 91.9714H863.777C862.372 91.9714 861.295 92.2288 860.546 92.7438C859.797 93.212 859.423 93.844 859.423 94.6399V95.4124C859.423 96.9105 860.616 98.2213 863.004 99.3449L870.729 103.278C873.163 104.354 874.825 105.642 875.715 107.14C876.651 108.591 877.119 110.487 877.119 112.828C877.119 118.914 873.631 121.957 866.656 121.957ZM885.446 92.1118H882.075C881.607 92.1118 881.279 92.0416 881.092 91.9011C880.951 91.7139 880.881 91.4096 880.881 90.9882V87.3365C880.881 86.5406 881.279 86.1427 882.075 86.1427H885.446C885.914 86.1427 886.148 85.9086 886.148 85.4405V79.1202C886.148 78.3244 886.569 77.9264 887.412 77.9264H891.836C892.632 77.9264 893.03 78.3244 893.03 79.1202V85.4405C893.03 85.9086 893.288 86.1427 893.803 86.1427H900.333C901.176 86.1427 901.597 86.5406 901.597 87.3365V90.9882C901.597 91.7373 901.176 92.1118 900.333 92.1118H893.803C893.288 92.1118 893.03 92.3459 893.03 92.8141V110.862C893.03 114.279 894.786 115.988 898.297 115.988H901.036C901.878 115.988 902.3 116.386 902.3 117.182V120.834C902.3 121.583 901.878 121.957 901.036 121.957H897.244C893.779 121.957 891.064 121.021 889.097 119.148C887.131 117.276 886.148 114.631 886.148 111.213V92.8141C886.148 92.3459 885.914 92.1118 885.446 92.1118ZM915.684 76.1708V73.5023C915.684 72.9873 915.918 72.7298 916.386 72.7298H918.422C918.844 72.7298 919.054 72.9873 919.054 73.5023V74.8365C919.054 76.007 919.171 76.8028 919.405 77.2242C919.64 77.6455 919.967 77.8562 920.389 77.8562C920.857 77.8562 921.231 77.6923 921.512 77.3646C921.793 77.0369 922.261 76.2879 922.917 75.1174C924.04 73.3384 925.421 72.4489 927.06 72.4489C930.197 72.4489 931.765 74.2513 931.765 77.8562V80.5247C931.765 81.0865 931.554 81.3674 931.133 81.3674H929.026C928.558 81.3674 928.324 81.0865 928.324 80.5247V79.2607C928.324 78.0435 928.207 77.2476 927.973 76.8731C927.786 76.4517 927.458 76.241 926.99 76.241C926.522 76.241 926.17 76.3815 925.936 76.6624C925.702 76.8965 925.304 77.5285 924.743 78.5585C923.666 80.5716 922.214 81.5781 920.389 81.5781C917.252 81.5781 915.684 79.7757 915.684 76.1708ZM921.934 121.957H919.195C915.73 121.957 913.038 120.998 911.119 119.078C909.246 117.159 908.31 114.49 908.31 111.072V97.0275C908.31 93.5631 909.246 90.8946 911.119 89.0219C913.038 87.1024 915.73 86.1427 919.195 86.1427H934.925C935.768 86.1427 936.189 86.5406 936.189 87.3365V120.763C936.189 121.559 935.768 121.957 934.925 121.957H930.501C929.705 121.957 929.307 121.559 929.307 120.763V118.235H929.026C927.903 120.717 925.538 121.957 921.934 121.957ZM929.307 110.019V92.8141C929.307 92.3459 929.05 92.1118 928.535 92.1118H920.178C916.807 92.1118 915.122 93.844 915.122 97.3084V110.792C915.122 114.256 916.807 115.988 920.178 115.988H923.549C927.388 115.988 929.307 113.998 929.307 110.019ZM961.378 121.957H955.199C951.734 121.957 949.042 120.998 947.123 119.078C945.25 117.159 944.314 114.49 944.314 111.072V97.0275C944.314 93.5631 945.25 90.8946 947.123 89.0219C949.042 87.1024 951.734 86.1427 955.199 86.1427H961.378C964.796 86.1427 967.465 87.1024 969.384 89.0219C971.35 90.8946 972.333 93.5631 972.333 97.0275V111.072C972.333 114.49 971.35 117.159 969.384 119.078C967.465 120.998 964.796 121.957 961.378 121.957ZM956.182 115.988H960.465C963.836 115.988 965.522 114.279 965.522 110.862V97.2382C965.522 93.8206 963.836 92.1118 960.465 92.1118H956.182C954.403 92.1118 953.115 92.5332 952.319 93.3758C951.524 94.1717 951.126 95.4592 951.126 97.2382V110.862C951.126 112.641 951.524 113.952 952.319 114.794C953.115 115.59 954.403 115.988 956.182 115.988Z" fill="white"/>
</svg>
