<svg xmlns="http://www.w3.org/2000/svg" width="708" height="711" fill="none"><path fill="#F2F2F2" d="M245.748 66.37V39.49c0-26.02 13.836-39.123 41.572-39.123h95.267q39.123 0 39.123 39.123V66.37c0 91.227-27.735 192.249-83.083 303.006 1.592 0 7.347-5.694 17.082-17.082 9.796-11.388 22.041-24 36.674-37.837s31.776-28.899 51.307-45.185q70.807-56.205 153.921-80.634l29.327-9.796c24.429-6.49 40.654 2.449 48.859 26.878l29.327 90.43c8.081 27.736-.858 44.818-26.94 51.307-92.818 34.226-206.085 41.511-339.618 21.98 4.836 0 28.47 11.388 70.838 34.226 91.226 53.756 157.227 114.063 197.942 180.799 17.878 21.184 15.49 39.123-7.347 53.756l-78.185 56.205c-24.429 13.041-43.164 9.796-56.205-9.796-61.899-71.634-104.267-176.758-127.043-315.19-17.939 130.35-52.165 230.515-102.615 300.557l-17.143 24.429c-14.633 19.531-33.368 21.184-56.205 4.898l-75.736-56.205c-26.082-14.694-29.327-33.368-9.735-56.205 57.001-84.675 144.187-157.228 261.434-217.474-136.84 24.429-241.903 23.633-315.19-2.449l-29.327-9.796c-24.43-9.796-31.776-26.878-21.98-51.307l29.327-92.818c8.143-26.021 25.225-33.368 51.307-21.98 92.818 21.184 188.146 80.634 285.924 178.35-61.899-123.798-92.879-224.82-92.879-303.005z"/></svg>