<svg xmlns="http://www.w3.org/2000/svg" width="976" height="136" fill="none"><path fill="#fff" d="M12.309 6.1v42.767q0 1.194-1.194 1.194H6.691q-1.194 0-1.194-1.194V6.1q0-1.194 1.194-1.194h4.424q1.194 0 1.194 1.194m15.515 43.96h-4.425q-1.194 0-1.193-1.193V15.44q0-1.194 1.193-1.194h4.424q1.194 0 1.194 1.194v2.528h.281q2.038-3.722 7.444-3.722h2.318q6.108 0 8.707 4.635 1.124-2.247 3.441-3.441a10.7 10.7 0 0 1 4.986-1.194h2.247q5.127 0 7.795 2.88 2.74 2.808 2.74 8.005v23.736q0 1.194-1.195 1.194h-4.494q-1.194 0-1.194-1.194V25.412q0-5.197-5.056-5.197h-2.036q-5.83 0-5.83 6.11v22.542q0 1.194-1.263 1.194h-4.424q-1.194 0-1.194-1.194V25.412q0-5.197-5.056-5.197h-2.458q-5.76 0-5.759 5.97v22.682q0 1.194-1.194 1.194m55.274 9.902h-4.424q-1.194 0-1.194-1.194V15.44q0-1.194 1.194-1.194h4.424q1.194 0 1.194 1.194v2.528h.28q1.687-3.722 7.093-3.722h3.582q5.056 0 7.725 2.809 2.738 2.81 2.738 8.076v14.045q0 5.196-2.738 8.076-2.668 2.808-7.725 2.808h-3.582q-5.407 0-7.092-3.721h-.281v12.43q0 1.193-1.194 1.193m6.952-15.87h3.722q5.056 0 5.056-5.197V25.412q0-5.197-5.056-5.197H90.05q-5.758 0-5.758 5.97v11.937q0 5.97 5.758 5.97M127.1 50.06h-3.16q-5.056 0-7.795-2.808-2.668-2.88-2.668-8.076V15.44q0-1.194 1.193-1.194h4.425q1.194 0 1.193 1.194v23.455q0 5.196 5.057 5.197h3.37q5.759 0 5.759-5.97V15.44q0-1.194 1.194-1.194h4.424q1.264 0 1.264 1.194v33.427q0 1.194-1.264 1.194h-4.424q-1.194 0-1.194-1.194v-2.528h-.281q-1.686 3.72-7.093 3.721m28.975 0h-4.424q-1.194 0-1.194-1.193V1.887q0-1.194 1.194-1.194h4.424q1.194 0 1.194 1.193v46.98q0 1.195-1.194 1.194m23.202 0h-12.921q-1.194 0-1.194-1.193v-3.441q0-1.125 1.194-1.124h11.798q4.564 0 4.564-3.16v-.843q0-2.808-3.3-4.283l-7.655-3.652q-3.582-1.685-5.197-3.722t-1.615-5.337q0-9.06 10.042-9.059h11.658q1.123 0 1.123 1.194v3.44q0 1.195-1.123 1.195h-10.253q-2.107 0-3.23.772-1.124.702-1.124 1.896v.773q0 2.247 3.581 3.932l7.725 3.933q3.653 1.615 4.986 3.862 1.405 2.177 1.405 5.688 0 9.13-10.464 9.13m18.088-41.783v-6.39q0-1.124 1.124-1.124h4.564q1.124 0 1.124 1.123v6.39q0 1.195-1.124 1.195h-4.564q-1.125 0-1.124-1.194m0 40.59V15.44q0-1.194 1.124-1.194h4.494q1.194 0 1.194 1.194v33.427q0 .702-.281.983-.211.21-.843.21h-4.494q-1.194 0-1.194-1.193m32.401 1.194h-6.179q-5.197 0-8.076-2.88-2.81-2.88-2.809-8.005V25.13q0-5.197 2.809-8.006 2.879-2.88 8.076-2.879h6.179q5.127 0 8.006 2.88 2.949 2.808 2.949 8.005v14.045q0 5.126-2.949 8.005-2.879 2.88-8.006 2.88m-5.196-5.97h4.284q5.056 0 5.056-5.126V25.341q0-5.126-5.056-5.126h-4.284q-2.669 0-3.863 1.264-1.193 1.194-1.193 3.863v13.623q0 2.67 1.193 3.933 1.194 1.193 3.863 1.194m29.839 5.97h-4.424q-1.194 0-1.194-1.194V15.44q0-1.194 1.194-1.194h4.424q1.194 0 1.194 1.194v2.528h.28q1.686-3.722 7.093-3.722h3.09q5.126 0 7.865 2.809t2.739 8.076v23.736q0 1.194-1.264 1.194h-4.424q-1.194 0-1.194-1.194V25.412q0-5.197-5.126-5.197h-3.301q-5.758 0-5.758 5.97v22.682q0 1.194-1.194 1.194m43.581 0h-2.739q-5.196 0-8.075-2.88-2.81-2.88-2.809-8.005V25.13q0-5.197 2.809-8.006 2.879-2.88 8.075-2.879h15.731q1.264 0 1.264 1.194v33.427q0 1.194-1.264 1.194h-4.424q-1.194 0-1.194-1.194v-2.528h-.281q-1.686 3.72-7.093 3.721m7.374-11.939V20.917q0-.702-.773-.702h-8.356q-5.057 0-5.057 5.197v13.483q0 5.196 5.057 5.197h3.37q5.759 0 5.759-5.97m21.258 11.938h-4.424q-1.194 0-1.194-1.193V15.44q0-1.194 1.194-1.194h4.424q1.194 0 1.194 1.194v2.528h.281q1.685-3.722 7.093-3.722h3.089q5.127 0 7.866 2.809t2.738 8.076v23.736q0 1.194-1.264 1.194h-4.424q-1.194 0-1.194-1.194V25.412q0-5.197-5.126-5.197h-3.301q-5.758 0-5.758 5.97v22.682q0 1.194-1.194 1.194m44.003 0h-3.581q-5.057 0-7.795-2.808-2.669-2.88-2.669-8.076V25.13q0-5.267 2.669-8.076 2.738-2.81 7.795-2.809h3.581q5.408 0 7.022 3.722h.281V1.886q0-1.193 1.194-1.193h4.495q1.193 0 1.193 1.193v46.98q0 1.195-1.193 1.194h-4.495q-1.194 0-1.194-1.193v-2.528h-.281q-1.614 3.72-7.022 3.721m7.303-11.938V26.184q0-5.97-5.758-5.969h-3.722q-5.056 0-5.056 5.197v13.483q0 5.196 5.056 5.197h3.722q5.758 0 5.758-5.97M409.99 50.06h-6.179q-5.197 0-8.076-2.879-2.81-2.88-2.809-8.005V25.13q0-5.197 2.809-8.006 2.878-2.88 8.076-2.879h6.179q5.127 0 8.006 2.88 2.949 2.808 2.949 8.005v14.045q0 5.126-2.949 8.005-2.879 2.88-8.006 2.88m-5.196-5.968h4.283q5.057 0 5.057-5.127V25.341q0-5.126-5.057-5.126h-4.283q-2.669 0-3.863 1.264-1.193 1.194-1.193 3.863v13.623q0 2.67 1.193 3.933 1.194 1.193 3.863 1.194m67.203 5.968h-6.18q-5.196 0-8.075-2.879-2.81-2.88-2.809-8.005V25.13q0-5.197 2.809-8.006 2.879-2.88 8.075-2.879h6.18q5.127 0 8.006 2.88 2.949 2.808 2.949 8.005v14.045q0 5.126-2.949 8.005-2.88 2.88-8.006 2.88m-5.196-5.968h4.283q5.057 0 5.057-5.127V25.341q0-5.126-5.057-5.126h-4.283q-2.669 0-3.863 1.264-1.194 1.194-1.194 3.863v13.623q0 2.67 1.194 3.933 1.194 1.193 3.863 1.194m29.839 5.968h-4.425q-1.193 0-1.193-1.193V15.44q0-1.194 1.193-1.194h4.425q1.193 0 1.193 1.194v2.668h.281q.702-1.755 2.669-2.809 2.036-1.053 4.494-1.053h2.598q1.194 0 1.194 1.194v3.652q0 1.334-1.194 1.123h-4.213q-5.829 0-5.829 6.39v22.262q0 1.194-1.193 1.194m30.966-1.755h-3.16q-5.056 0-7.795-2.81-2.669-2.877-2.669-8.075V25.13q0-5.196 2.879-8.005 2.88-2.88 8.006-2.879h15.73q1.264 0 1.264 1.194V50.2q0 5.127-2.949 7.935-2.879 2.88-8.006 2.88h-13.202q-1.194 0-1.194-1.124V56.24q0-1.194 1.194-1.194h12.149q5.127 0 5.126-5.196v-5.337h-.28q-1.756 3.792-7.093 3.792m7.373-11.938v-15.45q0-.702-.772-.702h-8.357q-4.986 0-4.986 5.197v11.657q0 5.197 4.986 5.197h3.371q5.758 0 5.758-5.9m28.559 13.694h-2.739q-5.196 0-8.076-2.88-2.808-2.88-2.809-8.005V25.13q0-5.197 2.809-8.006 2.88-2.88 8.076-2.879h15.73q1.264 0 1.264 1.194v33.427q0 1.194-1.264 1.194h-4.424q-1.194 0-1.194-1.194v-2.528h-.281q-1.685 3.72-7.092 3.721m7.373-11.939V20.917q0-.702-.772-.702h-8.357q-5.056 0-5.056 5.197v13.483q0 5.196 5.056 5.197h3.371q5.758 0 5.758-5.97M592.17 50.06h-4.424q-1.194 0-1.194-1.193V15.44q0-1.194 1.194-1.194h4.424q1.194 0 1.194 1.194v2.528h.28q1.686-3.722 7.093-3.722h3.09q5.127 0 7.865 2.809t2.739 8.076v23.736q0 1.194-1.264 1.194h-4.424q-1.194 0-1.194-1.194V25.412q0-5.197-5.127-5.197h-3.3q-5.758 0-5.758 5.97v22.682q0 1.194-1.194 1.194m31.011-41.783v-6.39q0-1.124 1.124-1.124h4.564q1.124 0 1.124 1.123v6.39q0 1.195-1.124 1.195h-4.564q-1.124 0-1.124-1.194m0 40.59V15.44q0-1.194 1.124-1.194h4.494q1.194 0 1.194 1.194v33.427q0 .702-.281.983-.21.21-.843.21h-4.494q-1.194 0-1.194-1.193m13.862 0V47.04q0-1.755.983-3.02l16.222-23.525v-.28h-15.379q-1.264 0-1.264-1.265V15.44q0-1.194 1.264-1.194h22.191q1.194 0 1.194 1.194v3.23q0 1.686-.843 2.669L646.032 43.81v.28h15.66q1.264 0 1.264 1.264v3.512q0 1.194-1.264 1.194h-23.385q-1.264 0-1.264-1.194m45.41 1.194h-2.738q-5.198 0-8.076-2.88-2.81-2.88-2.809-8.005V25.13q0-5.197 2.809-8.006 2.878-2.88 8.076-2.879h15.73q1.264 0 1.264 1.194v33.427q0 1.194-1.264 1.194h-4.424q-1.194 0-1.194-1.194v-2.528h-.281q-1.686 3.72-7.093 3.721m7.374-11.939V20.917q0-.702-.773-.702h-8.356q-5.056 0-5.056 5.197v13.483q0 5.196 5.056 5.197h3.371q5.757 0 5.758-5.97m36.146-17.907h-9.34q-5.056 0-5.056 5.197v13.483q0 5.196 5.056 5.197h9.34q1.264 0 1.264 1.193v3.652q0 1.124-1.264 1.124h-4.424l-2.599 2.668v.281q5.338 0 5.338 4.916v1.053q0 4.635-6.321 4.635h-2.598q-.702 0-.913-.21-.21-.211-.211-.844v-1.193q0-1.054 1.124-1.054h1.966q1.967 0 2.669-.421t.702-1.475v-.14q0-1.124-.702-1.545-.633-.351-2.669-.351h-1.474q-1.264 0-1.686-1.264-.421-1.194.492-2.177l2.458-2.88h-1.475q-5.197 0-8.076-2.879-2.81-2.88-2.809-8.005V25.13q0-5.197 2.809-8.006 2.88-2.88 8.076-2.879h10.323q1.264 0 1.264 1.194v3.652q0 1.123-1.264 1.123m12.73-15.94v-2.67q0-.771.702-.772h2.107q.702 0 .702.773V2.94q0 1.825.281 2.458.28.561.983.561.702 0 1.124-.491.42-.492 1.334-2.107.983-1.685 1.896-2.247t2.317-.562q4.705 0 4.705 5.407v2.669q0 .843-.632.843h-2.106q-.703 0-.703-.843V7.364q0-1.825-.281-2.388-.28-.632-1.053-.632-.702 0-1.053.422-.351.351-1.264 1.896-.913 1.825-1.896 2.458-.984.561-2.458.561-4.705 0-4.705-5.407M750.29 50.06h-6.18q-5.196 0-8.076-2.88-2.808-2.88-2.809-8.005V25.13q0-5.197 2.809-8.006 2.88-2.88 8.076-2.879h6.18q5.126 0 8.005 2.88 2.95 2.808 2.95 8.005v14.045q0 5.126-2.95 8.005-2.879 2.88-8.005 2.88m-5.197-5.97h4.284q5.056 0 5.056-5.126V25.341q0-5.126-5.056-5.126h-4.284q-2.668 0-3.862 1.264-1.194 1.194-1.194 3.863v13.623q0 2.67 1.194 3.933 1.194 1.193 3.862 1.194m49.572 5.97h-15.168q-5.198 0-8.076-2.88-2.81-2.88-2.809-8.005V25.13q0-5.197 2.809-8.006 2.878-2.88 8.076-2.879h5.758q5.197 0 8.076 2.88 2.879 2.808 2.879 8.005v8.918q0 1.264-1.264 1.264h-18.82q-.773 0-.773.703v3.02q0 5.126 5.127 5.126h14.185q1.264 0 1.264 1.264v3.511q0 1.124-1.264 1.124m-18.539-19.523h12.57q.702 0 .702-.702v-4.494q0-2.67-1.193-3.863-1.194-1.264-3.863-1.264h-3.862q-2.669 0-3.863 1.264-1.193 1.194-1.193 3.863v4.494q0 .702.702.702m40.601 19.522h-12.921q-1.194 0-1.194-1.193v-3.441q0-1.125 1.194-1.124h11.798q4.564 0 4.564-3.16v-.843q0-2.808-3.3-4.283l-7.655-3.652q-3.581-1.685-5.196-3.722-1.616-2.037-1.616-5.337 0-9.06 10.043-9.059h11.657q1.123 0 1.123 1.194v3.44q0 1.195-1.123 1.195h-10.253q-2.106 0-3.23.772-1.124.702-1.124 1.896v.773q0 2.247 3.582 3.932l7.724 3.933q3.652 1.615 4.986 3.862 1.405 2.177 1.405 5.688 0 9.13-10.464 9.13m66.127-4.775v3.652q0 1.124-1.264 1.124h-10.323q-5.198 0-8.076-2.88-2.81-2.88-2.809-8.005V25.13q0-5.197 2.809-8.006 2.878-2.88 8.076-2.879h10.323q1.263 0 1.264 1.194v3.652q0 1.123-1.264 1.123h-9.34q-5.056 0-5.056 5.197v13.483q0 5.196 5.056 5.197h9.34q1.263 0 1.264 1.193m23.053 4.776h-6.18q-5.197 0-8.076-2.88-2.81-2.88-2.809-8.005V25.13q0-5.197 2.809-8.006 2.88-2.88 8.076-2.879h6.18q5.126 0 8.005 2.88 2.95 2.808 2.95 8.005v14.045q0 5.126-2.95 8.005-2.879 2.88-8.005 2.88m-5.197-5.97h4.284q5.056 0 5.056-5.126V25.341q0-5.126-5.056-5.126h-4.284q-2.668 0-3.862 1.264-1.194 1.194-1.194 3.863v13.623q0 2.67 1.194 3.933 1.194 1.193 3.862 1.194m29.839 5.97h-4.424q-1.194 0-1.194-1.194V15.44q0-1.194 1.194-1.194h4.424q1.194 0 1.194 1.194v2.528h.281q2.036-3.722 7.443-3.722h2.318q6.109 0 8.708 4.635 1.123-2.247 3.441-3.441a10.7 10.7 0 0 1 4.986-1.194h2.247q5.126 0 7.795 2.88 2.739 2.808 2.739 8.005v23.736q0 1.194-1.194 1.194h-4.495q-1.194 0-1.193-1.194V25.412q0-5.197-5.057-5.197h-2.036q-5.829 0-5.829 6.11v22.542q0 1.194-1.264 1.194h-4.424q-1.194 0-1.194-1.194V25.412q0-5.197-5.056-5.197h-2.458q-5.758 0-5.758 5.97v22.682q0 1.194-1.194 1.194M12.309 78.1v42.767q0 1.194-1.194 1.194H6.691q-1.194 0-1.194-1.194V78.1q0-1.194 1.194-1.194h4.424q1.194 0 1.194 1.194m15.515 43.961h-4.425q-1.194 0-1.193-1.194V87.44q0-1.194 1.193-1.194h4.424q1.194 0 1.194 1.194v2.528h.281q1.686-3.722 7.093-3.722h3.09q5.126 0 7.865 2.809t2.739 8.076v23.736q0 1.194-1.264 1.194h-4.424q-1.194 0-1.194-1.194V97.412q0-5.197-5.127-5.197h-3.3q-5.76 0-5.759 5.97v22.682q0 1.194-1.194 1.194m47.022 0h-6.18q-5.196 0-8.075-2.88-2.81-2.879-2.81-8.005V97.131q0-5.197 2.81-8.006 2.878-2.88 8.075-2.879h6.18q5.127 0 8.006 2.88 2.95 2.808 2.95 8.005v14.045q0 5.126-2.95 8.005-2.88 2.88-8.006 2.88m-5.196-5.97h4.283q5.056 0 5.056-5.126V97.341q0-5.126-5.056-5.126H69.65q-2.668 0-3.862 1.264-1.194 1.195-1.194 3.862v13.624q0 2.668 1.194 3.933 1.194 1.194 3.862 1.193m21.973-29.845h4.705q1.125 0 1.334 1.194l7.304 28.23h.491l7.163-28.23q.282-1.194 1.475-1.194h4.635q1.264 0 .843 1.194l-9.481 33.357q-.28 1.263-1.545 1.264h-6.741q-1.264 0-1.545-1.264l-9.48-33.357q-.282-1.194.842-1.194m46.646 35.815h-2.738q-5.198 0-8.076-2.88-2.81-2.879-2.809-8.005V97.131q0-5.197 2.809-8.006 2.878-2.88 8.076-2.879h15.73q1.264 0 1.264 1.194v33.427q0 1.194-1.264 1.194h-4.424q-1.194 0-1.194-1.194v-2.528h-.281q-1.686 3.722-7.093 3.722m7.374-11.939V92.917q0-.702-.773-.702h-8.356q-5.056 0-5.056 5.197v13.483q0 5.196 5.056 5.196h3.371q5.757 0 5.758-5.969m36.146-17.907h-9.34q-5.056 0-5.056 5.197v13.483q0 5.196 5.056 5.196h9.34q1.264 0 1.264 1.194v3.652q0 1.124-1.264 1.124h-4.424l-2.599 2.668v.281q5.337 0 5.337 4.916v1.053q0 4.635-6.32 4.635h-2.598q-.702 0-.913-.211-.21-.21-.211-.842v-1.194q0-1.054 1.124-1.054h1.966q1.967 0 2.669-.421t.702-1.475v-.14q0-1.124-.702-1.545-.632-.351-2.669-.351h-1.474q-1.265 0-1.686-1.264-.422-1.194.492-2.177l2.458-2.879h-1.475q-5.197 0-8.076-2.88-2.81-2.879-2.809-8.005V97.131q0-5.197 2.809-8.006 2.879-2.88 8.076-2.879h10.323q1.264 0 1.264 1.194v3.651q0 1.124-1.264 1.124m14.626-15.94v-2.67q0-.772.702-.772h2.037q.632 0 .632.773v1.334q0 1.755.351 2.388.35.631.983.632.702 0 1.123-.492t1.405-2.247q1.686-2.67 4.143-2.669 4.705 0 4.705 5.407v2.669q0 .843-.632.843h-2.107q-.702 0-.702-.843v-1.264q0-1.826-.351-2.388-.28-.632-.983-.632-.702 0-1.053.422-.352.351-1.194 1.896-1.615 3.02-4.354 3.02-4.705 0-4.705-5.408m6.25 45.786h-2.739q-5.196 0-8.076-2.88-2.809-2.879-2.809-8.005V97.131q0-5.197 2.809-8.006 2.88-2.88 8.076-2.879h15.73q1.264 0 1.264 1.194v33.427q0 1.194-1.264 1.194h-4.424q-1.194 0-1.194-1.194v-2.528h-.281q-1.684 3.722-7.092 3.722m7.373-11.939V92.917q0-.702-.772-.702h-8.357q-5.056 0-5.056 5.197v13.483q0 5.196 5.056 5.196h3.371q5.758 0 5.758-5.969m32.072 11.939h-6.18q-5.198 0-8.076-2.88-2.81-2.879-2.809-8.005V97.131q0-5.197 2.809-8.006 2.879-2.88 8.076-2.879h6.18q5.126 0 8.005 2.88 2.95 2.808 2.95 8.005v14.045q0 5.126-2.95 8.005-2.879 2.88-8.005 2.88m-5.197-5.97h4.284q5.055 0 5.056-5.126V97.341q0-5.126-5.056-5.126h-4.284q-2.668 0-3.862 1.264-1.194 1.195-1.194 3.862v13.624q0 2.668 1.194 3.933 1.194 1.194 3.862 1.193m30.33-3.792v5.478q0 1.685-1.334 4.213l-3.722 6.812q-.28.632-1.053.632-.984 0-.983-1.123v-16.012q0-1.123 1.194-1.123h4.775q1.123 0 1.123 1.123M352.398 121.957h-4.424q-1.264 0-1.264-1.194V83.474q0-.702-.702-.702h-8.849q-1.264 0-1.264-1.194v-3.581q0-1.194 1.264-1.194h26.054q1.263 0 1.264 1.194v3.581q0 1.194-1.264 1.194h-8.849q-.772 0-.772.702v37.289q0 1.194-1.194 1.194m42.738 0h-15.168q-5.198 0-8.076-2.879-2.81-2.879-2.809-8.006V97.028q0-5.197 2.809-8.006 2.878-2.88 8.076-2.88h5.758q5.197 0 8.076 2.88 2.88 2.81 2.879 8.005v8.919q0 1.264-1.264 1.264h-18.82q-.772 0-.772.702v3.02q0 5.127 5.126 5.126h14.185q1.264 0 1.264 1.264v3.512q0 1.123-1.264 1.123m-18.539-19.522h12.57q.702 0 .702-.702v-4.495q0-2.668-1.193-3.862-1.194-1.264-3.863-1.264h-3.862q-2.669 0-3.862 1.264-1.194 1.194-1.194 3.862v4.495q0 .702.702.702m49.59 14.747v3.652q0 1.123-1.264 1.123H414.6q-5.196 0-8.076-2.879-2.808-2.879-2.809-8.006V97.028q0-5.197 2.809-8.006 2.88-2.88 8.076-2.88h10.323q1.264 0 1.264 1.195v3.651q0 1.124-1.264 1.124h-9.34q-5.056 0-5.056 5.196v13.484q0 5.196 5.056 5.196h9.34q1.264 0 1.264 1.194m12.309 4.775h-4.425q-1.193 0-1.193-1.194V87.336q0-1.193 1.193-1.193h4.425q1.194 0 1.193 1.194v2.528h.281q1.686-3.723 7.093-3.722h3.09q5.127 0 7.865 2.809 2.739 2.808 2.739 8.076v23.735q0 1.194-1.264 1.194h-4.424q-1.194 0-1.194-1.194V97.308q0-5.196-5.127-5.196h-3.3q-5.759 0-5.759 5.969v22.682q0 1.194-1.193 1.194m47.022 0h-6.18q-5.196 0-8.075-2.879-2.81-2.879-2.809-8.006V97.028q0-5.197 2.809-8.006 2.879-2.88 8.075-2.88h6.18q5.127 0 8.006 2.88 2.949 2.81 2.949 8.005v14.045q0 5.127-2.949 8.006-2.88 2.88-8.006 2.879m-5.196-5.969h4.283q5.056 0 5.056-5.126V97.238q0-5.126-5.056-5.126h-4.283q-2.669 0-3.863 1.264-1.194 1.194-1.194 3.862v13.624q0 2.669 1.194 3.932 1.194 1.194 3.863 1.194m30.19 5.969h-4.425q-1.193 0-1.193-1.194v-46.98q0-1.194 1.193-1.194h4.425q1.193 0 1.193 1.194v46.98q0 1.194-1.193 1.194m26.783 0h-6.18q-5.196 0-8.075-2.879-2.81-2.879-2.809-8.006V97.028q0-5.197 2.809-8.006 2.879-2.88 8.075-2.88h6.18q5.127 0 8.006 2.88 2.949 2.81 2.949 8.005v14.045q0 5.127-2.949 8.006-2.88 2.88-8.006 2.879m-5.197-5.969h4.284q5.056 0 5.056-5.126V97.238q0-5.126-5.056-5.126h-4.284q-2.668 0-3.862 1.264-1.194 1.194-1.194 3.862v13.624q0 2.669 1.194 3.932 1.194 1.194 3.862 1.194m37.283 4.214h-3.16q-5.056 0-7.795-2.809-2.668-2.88-2.668-8.076v-12.29q0-5.196 2.879-8.005 2.879-2.88 8.005-2.88h15.731q1.263 0 1.264 1.195v34.761q0 5.126-2.95 7.935-2.879 2.88-8.005 2.879H559.48q-1.194 0-1.194-1.123v-3.652q0-1.194 1.194-1.194h12.148q5.127 0 5.127-5.196v-5.337h-.281q-1.756 3.792-7.093 3.792m7.374-11.939V92.814q0-.702-.773-.702h-8.356q-4.986 0-4.986 5.196v11.658q0 5.196 4.986 5.196h3.37q5.759 0 5.759-5.899m15.988-28.09v-6.39q0-1.123 1.124-1.123h4.564q1.124 0 1.124 1.123v6.39q0 1.194-1.124 1.194h-4.564q-1.125 0-1.124-1.193m0 40.59V87.336q0-1.193 1.124-1.193h4.494q1.194 0 1.194 1.194v33.426q0 .703-.281.984-.212.21-.843.21h-4.494q-1.194 0-1.194-1.194m28.96 1.194h-2.738q-5.198 0-8.076-2.879-2.81-2.879-2.809-8.006V97.028q0-5.197 2.809-8.006 2.878-2.88 8.076-2.88h15.73q1.264 0 1.264 1.195v33.426q0 1.194-1.264 1.194h-4.424q-1.194 0-1.194-1.194v-2.528h-.281q-1.685 3.722-7.093 3.722m7.374-11.938V92.814q0-.702-.772-.702h-8.357q-5.056 0-5.056 5.196v13.484q0 5.196 5.056 5.196h3.371q5.758 0 5.758-5.969M755.098 121.957H739.93q-5.196 0-8.076-2.879-2.81-2.879-2.809-8.006V97.028q0-5.197 2.809-8.006 2.88-2.88 8.076-2.88h5.758q5.197 0 8.076 2.88 2.88 2.81 2.879 8.005v8.919q0 1.264-1.264 1.264h-18.82q-.772 0-.772.702v3.02q0 5.127 5.126 5.126h14.185q1.265 0 1.265 1.264v3.512q0 1.123-1.265 1.123m-18.539-19.522h12.57q.703 0 .703-.702v-4.495q0-2.668-1.194-3.862-1.194-1.264-3.863-1.264h-3.862q-2.668 0-3.862 1.264-1.194 1.194-1.194 3.862v4.495q0 .702.702.702m62.953 19.522h-7.514q-5.197 0-8.076-2.879-2.81-2.879-2.809-8.006V87.688q0-5.197 2.809-8.006 2.879-2.88 8.076-2.88h7.514q5.197 0 8.005 2.88 2.88 2.809 2.88 8.006v2.528q0 1.263-1.194 1.264h-4.424q-1.194 0-1.194-1.264v-2.247q0-5.197-5.056-5.197h-5.548q-5.056 0-5.056 5.197v22.823q0 5.196 5.056 5.196h5.548q5.056 0 5.056-5.196v-6.321q0-.702-.773-.702h-5.688q-1.194 0-1.194-1.194v-3.581q0-1.194 1.194-1.194h11.798q1.475 0 1.475 1.475v11.797q0 5.127-2.88 8.006t-8.005 2.879m45.082 0h-15.169q-5.196 0-8.076-2.879-2.808-2.879-2.809-8.006V97.028q0-5.197 2.809-8.006 2.88-2.88 8.076-2.88h5.759q5.196 0 8.075 2.88 2.88 2.81 2.88 8.005v8.919q0 1.264-1.264 1.264h-18.821q-.772 0-.772.702v3.02q0 5.127 5.126 5.126h14.186q1.263 0 1.264 1.264v3.512q0 1.123-1.264 1.123m-18.54-19.522h12.571q.702 0 .702-.702v-4.495q0-2.668-1.194-3.862-1.194-1.264-3.862-1.264h-3.863q-2.668 0-3.862 1.264-1.194 1.194-1.194 3.862v4.495q0 .702.702.702m40.602 19.522h-12.922q-1.193 0-1.193-1.194v-3.441q0-1.123 1.193-1.123h11.798q4.565 0 4.565-3.16v-.843q0-2.81-3.301-4.284l-7.654-3.651q-3.582-1.686-5.197-3.722t-1.615-5.337q0-9.06 10.042-9.06h11.657q1.124 0 1.124 1.195v3.44q0 1.194-1.124 1.194h-10.252q-2.108 0-3.231.773-1.123.702-1.123 1.896v.772q0 2.248 3.581 3.933l7.725 3.933q3.651 1.615 4.986 3.862 1.404 2.176 1.404 5.688 0 9.129-10.463 9.129m18.79-29.845h-3.371q-.702 0-.983-.21-.211-.281-.211-.914v-3.651q0-1.194 1.194-1.194h3.371q.702 0 .702-.703v-6.32q0-1.194 1.264-1.194h4.424q1.194 0 1.194 1.194v6.32q0 .703.773.703h6.53q1.264 0 1.264 1.194v3.651q0 1.124-1.264 1.124h-6.53q-.773 0-.773.702v18.048q0 5.126 5.267 5.126h2.739q1.263 0 1.264 1.194v3.652q0 1.123-1.264 1.123h-3.792q-5.197 0-8.147-2.809-2.949-2.808-2.949-7.935V92.814q0-.702-.702-.702m30.238-15.941v-2.669q0-.772.702-.772h2.036q.632 0 .632.772v1.335q0 1.755.351 2.387.352.632.984.632.702 0 1.123-.491.421-.492 1.405-2.248 1.685-2.668 4.143-2.668 4.705 0 4.705 5.407v2.669q0 .842-.632.842h-2.107q-.702 0-.702-.842V79.26q0-1.826-.351-2.388-.28-.632-.983-.632t-1.054.421q-.351.351-1.193 1.896-1.616 3.02-4.354 3.02-4.705 0-4.705-5.407m6.25 45.786h-2.739q-5.198 0-8.076-2.879-2.81-2.879-2.809-8.006V97.028q0-5.197 2.809-8.006 2.878-2.88 8.076-2.88h15.73q1.264 0 1.264 1.195v33.426q0 1.194-1.264 1.194h-4.424q-1.194 0-1.194-1.194v-2.528h-.281q-1.685 3.722-7.092 3.722m7.373-11.938V92.814q0-.702-.772-.702h-8.357q-5.056 0-5.056 5.196v13.484q0 5.196 5.056 5.196h3.371q5.758 0 5.758-5.969m32.071 11.938h-6.179q-5.198 0-8.076-2.879-2.81-2.879-2.809-8.006V97.028q0-5.197 2.809-8.006 2.879-2.88 8.076-2.88h6.179q5.127 0 8.006 2.88 2.949 2.81 2.949 8.005v14.045q0 5.127-2.949 8.006-2.879 2.88-8.006 2.879m-5.196-5.969h4.283q5.057 0 5.057-5.126V97.238q0-5.126-5.057-5.126h-4.283q-2.669 0-3.863 1.264-1.193 1.194-1.193 3.862v13.624q0 2.669 1.193 3.932 1.194 1.194 3.863 1.194"/></svg>