<svg xmlns="http://www.w3.org/2000/svg" width="44" height="44" fill="none"><path fill="#fff" d="M28.812 28.217a8.397 8.397 0 0 0-12.194-2.379c-1.792 1.25-2.38 2.986-2.706 3.219l.065.075a10.262 10.262 0 0 0 15.32 0l.066-.075c-.206-.168-.271-.383-.55-.84M21.63 22.283a2.8 2.8 0 1 0-.001-5.598 2.8 2.8 0 0 0 0 5.598"/><path fill="#fff" d="M21.627 12.02a10.264 10.264 0 0 0-8.891 15.404 10.06 10.06 0 0 1 5.598-4.609 4.665 4.665 0 1 1 6.53 0 9.76 9.76 0 0 1 5.599 4.61 10.263 10.263 0 0 0-8.836-15.404"/><path fill="#fff" d="M21.629.824a21.46 21.46 0 1 0 0 42.918 21.46 21.46 0 0 0 0-42.918m1.866 39.084v-1.764a1.866 1.866 0 0 0-3.732 0v1.764A17.73 17.73 0 0 1 4.005 24.149h1.763a1.866 1.866 0 0 0 0-3.732H4.005A17.73 17.73 0 0 1 19.763 4.66v1.763a1.866 1.866 0 1 0 3.732 0V4.66a17.73 17.73 0 0 1 15.758 15.758H37.49a1.866 1.866 0 0 0 0 3.732h1.763a17.73 17.73 0 0 1-15.758 15.759"/></svg>