<svg width="44" height="44" viewBox="0 0 44 44" fill="none" xmlns="http://www.w3.org/2000/svg">
<path d="M28.8121 28.2172C28.2054 27.2172 27.3964 26.3549 26.437 25.6857C25.4777 25.0165 24.3891 24.5552 23.241 24.3312C22.093 24.1072 20.9108 24.1255 19.7703 24.385C18.6297 24.6445 17.556 25.1394 16.6178 25.838C14.8264 27.0883 14.2387 28.8236 13.9121 29.0569L13.9774 29.1315C14.9402 30.2112 16.1203 31.0752 17.4404 31.6667C18.7605 32.2583 20.1908 32.5641 21.6373 32.5641C23.0839 32.5641 24.5142 32.2583 25.8343 31.6667C27.1544 31.0752 28.3345 30.2112 29.2973 29.1315L29.3626 29.0569C29.1573 28.889 29.092 28.6744 28.8121 28.2172Z" fill="white"/>
<path d="M21.6291 22.2831C23.1749 22.2831 24.4281 21.0299 24.4281 19.4841C24.4281 17.9382 23.1749 16.6851 21.6291 16.6851C20.0832 16.6851 18.8301 17.9382 18.8301 19.4841C18.8301 21.0299 20.0832 22.2831 21.6291 22.2831Z" fill="white"/>
<path d="M21.6273 12.0205C19.8241 12.019 18.0524 12.4925 16.4904 13.3935C14.9284 14.2945 13.6314 15.5911 12.73 17.1528C11.8285 18.7145 11.3544 20.4862 11.3555 22.2894C11.3565 24.0926 11.8326 25.8637 12.7358 27.4243C13.9638 25.2454 15.9597 23.6021 18.3338 22.8153C17.6721 22.1667 17.2185 21.3357 17.0309 20.4282C16.8433 19.5208 16.9303 18.578 17.2806 17.7202C17.6309 16.8623 18.2287 16.1283 18.9979 15.6115C19.7671 15.0948 20.6727 14.8188 21.5993 14.8188C22.526 14.8188 23.4316 15.0948 24.2008 15.6115C24.9699 16.1283 25.5678 16.8623 25.9181 17.7202C26.2684 18.578 26.3553 19.5208 26.1677 20.4282C25.9802 21.3357 25.5266 22.1667 24.8648 22.8153C27.2535 23.5757 29.258 25.226 30.4628 27.4243C31.3637 25.8678 31.8397 24.1018 31.8432 22.3033C31.8467 20.5049 31.3776 18.7371 30.4827 17.177C29.5879 15.617 28.2988 14.3194 26.7447 13.4145C25.1905 12.5095 23.4258 12.0288 21.6273 12.0205Z" fill="white"/>
<path d="M21.6289 0.824219C17.3847 0.824219 13.2359 2.08277 9.70694 4.44071C6.17803 6.79865 3.42758 10.1501 1.8034 14.0712C0.17922 17.9923 -0.24574 22.307 0.58226 26.4696C1.41026 30.6323 3.45403 34.4559 6.45512 37.457C9.45621 40.4581 13.2798 42.5018 17.4425 43.3298C21.6051 44.1578 25.9198 43.7329 29.8409 42.1087C33.762 40.4845 37.1135 37.7341 39.4714 34.2052C41.8293 30.6763 43.0879 26.5274 43.0879 22.2832C43.0879 16.5919 40.827 11.1337 36.8027 7.10941C32.7784 3.08507 27.3202 0.824219 21.6289 0.824219ZM23.4949 39.9076V38.1442C23.4949 37.6493 23.2983 37.1747 22.9484 36.8247C22.5984 36.4748 22.1238 36.2782 21.6289 36.2782C21.134 36.2782 20.6594 36.4748 20.3095 36.8247C19.9595 37.1747 19.7629 37.6493 19.7629 38.1442V39.9076C15.7299 39.4798 11.9655 37.6821 9.09779 34.8143C6.23004 31.9466 4.43232 28.1822 4.00456 24.1492H5.76793C6.26282 24.1492 6.73744 23.9526 7.08739 23.6027C7.43733 23.2527 7.63392 22.7781 7.63392 22.2832C7.63392 21.7883 7.43733 21.3137 7.08739 20.9637C6.73744 20.6138 6.26282 20.4172 5.76793 20.4172H4.00456C4.43232 16.3842 6.23004 12.6198 9.09779 9.75208C11.9655 6.88432 15.7299 5.08661 19.7629 4.65885V6.42221C19.7629 6.91711 19.9595 7.39173 20.3095 7.74167C20.6594 8.09162 21.134 8.28821 21.6289 8.28821C22.1238 8.28821 22.5984 8.09162 22.9484 7.74167C23.2983 7.39173 23.4949 6.91711 23.4949 6.42221V4.65885C27.5279 5.08661 31.2923 6.88432 34.16 9.75208C37.0278 12.6198 38.8255 16.3842 39.2533 20.4172H37.4899C36.995 20.4172 36.5204 20.6138 36.1704 20.9637C35.8205 21.3137 35.6239 21.7883 35.6239 22.2832C35.6239 22.7781 35.8205 23.2527 36.1704 23.6027C36.5204 23.9526 36.995 24.1492 37.4899 24.1492H39.2533C38.8255 28.1822 37.0278 31.9466 34.16 34.8143C31.2923 37.6821 27.5279 39.4798 23.4949 39.9076Z" fill="white"/>
</svg>
