<svg xmlns="http://www.w3.org/2000/svg" width="17" height="19" fill="none"><g clip-path="url(#a)"><path fill="#fff" d="M8.034 5.695c-2.272 0-4.104 1.803-4.104 4.04 0 2.235 1.832 4.039 4.104 4.039 2.271 0 4.103-1.804 4.103-4.04s-1.832-4.04-4.103-4.04m0 6.665c-1.468 0-2.668-1.178-2.668-2.626s1.196-2.626 2.668-2.626c1.471 0 2.667 1.178 2.667 2.626s-1.2 2.626-2.667 2.626m5.228-6.83a.95.95 0 0 1-.957.942.95.95 0 0 1-.957-.943.95.95 0 0 1 .957-.942.95.95 0 0 1 .957.942m2.718.956c-.06-1.262-.354-2.38-1.293-3.302-.936-.92-2.071-1.209-3.353-1.272-1.322-.074-5.283-.074-6.604 0-1.279.06-2.414.348-3.354 1.269C.437 4.102.148 5.22.084 6.482c-.075 1.3-.075 5.2 0 6.5.06 1.263.353 2.38 1.292 3.302.94.92 2.072 1.21 3.354 1.272 1.321.074 5.282.074 6.604 0 1.282-.06 2.417-.348 3.353-1.272.936-.921 1.229-2.04 1.293-3.301.075-1.301.075-5.197 0-6.497m-1.707 7.892a2.68 2.68 0 0 1-1.522 1.498c-1.053.411-3.553.316-4.717.316-1.165 0-3.668.092-4.718-.316a2.68 2.68 0 0 1-1.522-1.498c-.418-1.037-.321-3.498-.321-4.644s-.093-3.61.321-4.644a2.68 2.68 0 0 1 1.522-1.498c1.053-.411 3.553-.316 4.718-.316 1.164 0 3.667-.092 4.717.316.7.274 1.24.805 1.522 1.498.418 1.037.321 3.498.321 4.644s.097 3.61-.321 4.644"/></g><defs><clipPath id="a"><path fill="#fff" d="M.03.737h16v18h-16z"/></clipPath></defs></svg>