<svg xmlns="http://www.w3.org/2000/svg" width="17" height="16" fill="none"><g clip-path="url(#a)"><path fill="#fff" d="M3.662 15.737V5.617H.232v10.12zM1.947 4.234c1.196 0 1.941-.777 1.941-1.748C3.866 1.493 3.144.737 1.97.737S.03 1.493.03 2.486c0 .971.744 1.748 1.895 1.748zm3.614 11.503h3.43v-5.651c0-.303.022-.605.113-.821.248-.605.812-1.23 1.76-1.23 1.241 0 1.738.928 1.738 2.288v5.414h3.43V9.934c0-3.108-1.693-4.555-3.95-4.555-1.85 0-2.662 1.015-3.114 1.705h.023V5.617h-3.43c.045.95 0 10.12 0 10.12"/></g><defs><clipPath id="a"><path fill="#fff" d="M.03.737h16v15h-16z"/></clipPath></defs></svg>