<svg xmlns="http://www.w3.org/2000/svg" width="168" height="66" fill="none"><path fill="#fff" d="M0 6.905V1.84Q0 .948.89.948h3.621q.89 0 .89.89v5.067q0 .949-.89.948H.891Q0 7.853 0 6.905M0 39.09V12.584q0-.947.89-.948h3.564q.946 0 .948.948V39.09q0 .557-.195.752-.196.197-.696.195H.948q-.949 0-.948-.947M15.609 40.037h-3.51q-.947 0-.947-.947V12.583q0-.946.948-.947h3.509q.946 0 .947.948v2.003h.223q1.335-2.95 5.624-2.951h2.45q4.065.001 6.236 2.228 2.173 2.228 2.172 6.404V39.09q0 .948-1.002.947h-3.51q-.948 0-.947-.947v-18.6q0-4.12-4.064-4.12H21.12q-4.567 0-4.566 4.732V39.09q0 .948-.947.947zM51.816 40.037h-4.9q-4.12.001-6.377-2.282-2.255-2.283-2.256-6.348V20.272q0-4.12 2.256-6.377 2.255-2.255 6.376-2.256h4.901q4.064 0 6.377 2.256 2.31 2.255 2.31 6.377v11.136q0 4.067-2.31 6.348-2.312 2.283-6.377 2.282m-4.12-4.733h3.395q4.009 0 4.01-4.064V20.436q0-4.064-4.01-4.064h-3.396q-2.118.001-3.062.974-.949.975-.948 3.09V31.24q0 2.117.948 3.09.946.974 3.062.974M64.344 11.638h3.73q.892 0 1.06.948l5.791 22.385h.39l5.68-22.385q.222-.947 1.17-.948h3.675q1.002 0 .669.948l-7.517 26.452q-.225 1.003-1.224 1.002h-5.345q-1.004 0-1.225-1.002l-7.516-26.452q-.224-.947.668-.948zM100.509 40.037h-2.172q-4.12.001-6.376-2.282-2.255-2.283-2.256-6.348V20.272q0-4.12 2.256-6.377 2.254-2.257 6.376-2.256h12.475q1.002 0 1.002.948v26.506q0 .949-1.002.948h-3.509q-.949 0-.948-.948v-2.004h-.222q-1.337 2.952-5.624 2.952zm5.848-9.466V16.927q0-.558-.612-.558h-6.626q-4.009 0-4.01 4.121v10.693q.001 4.121 4.01 4.121h2.673q4.566 0 4.565-4.733M132.582 40.037h-10.246q-.948 0-.948-.947v-2.73q0-.89.948-.89h9.355q3.619 0 3.62-2.505v-.669q0-2.228-2.618-3.396l-6.07-2.894q-2.84-1.337-4.122-2.952-1.28-1.614-1.28-4.232 0-7.184 7.963-7.184h9.244q.891 0 .891.948v2.73q0 .947-.891.947h-8.131q-1.67 0-2.561.585-.891.584-.891 1.532v.612q0 1.782 2.84 3.12l6.125 3.118q2.895 1.282 3.981 3.036t1.085 4.538q0 7.24-8.296 7.24zM150.068 47.89h-3.509q-.949 0-.948-.948V12.584q0-.947.948-.948h3.509q.946 0 .947.948v2.004h.223q1.335-2.952 5.624-2.952h2.84q4.01 0 6.152 2.229 2.143 2.227 2.145 6.403v11.137q-.002 4.12-2.145 6.377-2.144 2.255-6.152 2.256h-2.84q-4.289 0-5.624-2.952h-.223v9.856q0 .947-.947.948m5.513-12.586h2.951q4.01 0 4.01-4.12V20.49q0-4.122-4.01-4.122h-2.951q-4.566 0-4.566 4.734v9.466q0 4.733 4.566 4.733zM.555 49.568v4.667q0 .106-.106.107H.107Q0 54.34 0 54.235v-4.667q0-.106.107-.107h.342q.105 0 .106.107M2.233 54.341H1.9q-.106 0-.107-.106v-4.668q0-.105.107-.106h.31q.092 0 .122.06l2.095 3.682h.03V49.57q0-.106.106-.106h.333q.106 0 .107.106v4.668q0 .106-.107.106h-.28q-.085 0-.16-.1l-2.085-3.642h-.03v3.634q0 .105-.106.106zM6.148 53.22v-.243q-.001-.106.107-.107h.342q.106.001.107.107v.197q0 .683.675.682h.67q.675 0 .675-.698V52.9q0-.547-.903-.714-.38-.07-.759-.16a1.34 1.34 0 0 1-.644-.353q-.265-.26-.265-.716v-.372q0-.523.3-.823.298-.3.822-.299h.843q.517 0 .82.3.305.298.305.822v.19q0 .113-.098.114h-.349q-.1-.001-.1-.113v-.136q0-.691-.675-.692h-.646q-.676 0-.676.721v.304q0 .387.508.53.227.061.501.11.272.048.55.128.278.078.506.197t.368.356q.14.24.14.58v.343q0 .524-.304.823-.303.3-.82.3h-.873q-.516 0-.82-.3-.306-.3-.304-.823zM11.604 54.341h-.342q-.106 0-.107-.106v-4.219q0-.068-.075-.068H10.05q-.113 0-.113-.106v-.275q0-.105.113-.106h2.77q.113 0 .113.106v.275q0 .106-.113.106h-1.031q-.075 0-.075.068v4.219q0 .105-.107.106zM14.245 49.567v4.668q0 .105-.107.106h-.342q-.105 0-.106-.106v-4.668q-.001-.105.106-.106h.342q.106 0 .107.106M16.674 54.341h-.342q-.106 0-.107-.106v-4.219q0-.068-.074-.068h-1.032q-.113 0-.113-.106v-.275q0-.105.113-.106h2.77q.113 0 .114.106v.275q0 .106-.114.106h-1.031q-.075 0-.075.068v4.219q0 .105-.107.106zM21.317 49.463h.343q.105 0 .106.1v3.656q0 .531-.294.828-.297.296-.821.297h-.843q-.525 0-.823-.297-.3-.296-.3-.828v-3.65q0-.105.107-.106h.342q.106 0 .107.107v3.627q0 .66.63.66h.714q.636 0 .637-.66V49.57q0-.106.1-.107zM24.116 54.341h-.343q-.106 0-.106-.106v-4.219q0-.068-.075-.068h-1.031q-.113 0-.114-.106v-.275q0-.105.114-.106h2.77q.113 0 .113.106v.275q0 .106-.113.106h-1.032q-.075 0-.075.068v4.219q0 .105-.106.106zM28.116 54.341h-.902q-.524 0-.823-.297-.3-.296-.3-.827v-2.634q0-.531.3-.828t.823-.297h.902q.525 0 .823.3.3.299.3.823v2.634q0 .524-.3.822-.3.3-.823.3zm-.843-.485h.775q.636 0 .637-.66V50.61q0-.66-.637-.66h-.775q-.63 0-.63.66v2.587q-.002.66.63.66M32.736 54.341h-.342q-.106 0-.107-.106v-4.668q0-.105.107-.106h1.775q.522 0 .82.299.296.3.297.823v.843q0 .531-.297.827-.294.297-.82.297h-1.252q-.075 0-.075.068v1.617q0 .105-.106.106m.184-2.285h1.176q.638 0 .637-.653v-.795q0-.66-.637-.66H32.92q-.075 0-.075.068v1.972q0 .069.075.068M36.34 54.341h-.378q-.099 0-.068-.106l1.419-4.668q.03-.105.145-.106h.546q.114 0 .146.106l1.419 4.668q.03.105-.069.106h-.387c-.057 0-.09-.036-.107-.106l-.356-1.109h-1.836l-.356 1.109q-.03.105-.113.106zm1.372-4.31-.782 2.626h1.593l-.782-2.625zM42.972 49.463h.342q.106 0 .106.1v3.656q0 .531-.294.828-.297.296-.82.297h-.844q-.524 0-.823-.297-.3-.296-.3-.828v-3.65q.001-.105.107-.106h.343q.105 0 .106.107v3.627q0 .66.63.66h.715q.638 0 .636-.66V49.57q0-.106.1-.107zM47.123 54.341H44.69q-.106 0-.107-.106v-4.668q0-.105.107-.106h.342q.106 0 .106.106v4.205q0 .069.075.068h1.913q.106 0 .107.114v.28q0 .106-.107.107zM48.596 49.567v4.668q0 .105-.106.106h-.342q-.106 0-.107-.106v-4.668q0-.105.107-.106h.342q.105 0 .106.106M49.781 53.22v-.243q-.001-.106.107-.107h.342q.106.001.107.107v.197q0 .683.675.682h.669q.676 0 .675-.698V52.9q0-.547-.902-.714-.38-.07-.76-.16a1.34 1.34 0 0 1-.643-.353q-.265-.26-.265-.716v-.372q0-.523.299-.823.3-.3.823-.299h.843q.516 0 .82.3.305.298.305.822v.19q0 .113-.1.114h-.35q-.097-.001-.097-.113v-.136q0-.691-.675-.692h-.646q-.677 0-.676.721v.304q0 .387.508.53.227.061.5.11.273.048.552.128.278.078.505.197.229.12.367.356.14.24.141.58v.343q0 .524-.304.823-.303.3-.82.3h-.873q-.516 0-.82-.3-.305-.3-.305-.823zM55.233 54.341h-.342q-.106 0-.107-.106v-4.219q0-.068-.075-.068h-1.031q-.113 0-.113-.106v-.275q0-.105.113-.106h2.77q.113 0 .113.106v.275q0 .106-.113.106h-1.032q-.075 0-.074.068v4.219q-.001.105-.107.106zM57.343 54.341h-.38q-.097 0-.067-.106l1.419-4.668q.03-.105.143-.106h.546q.114 0 .143.106l1.419 4.668q.03.105-.068.106h-.388q-.083 0-.106-.106l-.356-1.109h-1.836l-.356 1.109q-.032.105-.114.106m1.373-4.31-.782 2.626h1.594l-.782-2.625zM63.309 54.235v-4.668q0-.105.106-.106h1.866q.523 0 .823.299.3.3.299.823v2.634q0 .523-.3.823-.299.3-.822.299h-1.866q-.105 0-.106-.107zm.63-.379h1.274q.637 0 .637-.66V50.61q0-.66-.637-.66h-1.274q-.075 0-.075.068v3.772q0 .069.075.068zM70.016 54.341h-2.382q-.106 0-.107-.106v-4.668q-.001-.105.107-.106h2.382q.106 0 .107.106v.275q0 .106-.107.106h-1.859q-.075 0-.074.068v1.532q0 .069.075.069h1.623q.106 0 .106.106v.272q0 .106-.106.107h-1.624q-.075 0-.074.068v1.616q0 .068.075.068h1.858q.106 0 .107.106v.275q0 .105-.107.106M.555 58.823v4.667q0 .106-.106.107H.107Q0 63.596 0 63.49v-4.667q0-.106.107-.107h.342q.105 0 .106.107M2.233 63.594H1.9q-.106 0-.107-.106V58.82q0-.106.107-.106h.31q.092 0 .122.06l2.095 3.682h.03v-3.634q0-.105.106-.106h.333q.106 0 .107.106v4.668q0 .105-.107.106h-.28q-.085 0-.16-.1l-2.085-3.642h-.03v3.634q0 .105-.106.106zM8.153 63.594h-.902q-.524 0-.823-.297-.3-.296-.3-.827v-2.634q0-.531.3-.827.3-.297.823-.297h.902q.525 0 .823.299.3.3.3.823v2.634q0 .523-.3.823t-.823.299zm-.843-.485h.775q.638 0 .637-.66v-2.586q0-.66-.637-.66H7.31q-.63 0-.63.66v2.587q0 .66.63.66M11.991 63.594h-.54q-.098 0-.128-.106l-1.345-4.659q-.022-.112.098-.113h.372q.098 0 .12.107l1.13 4.15h.03l1.132-4.15q.022-.106.12-.107h.378q.114.001.09.113l-1.343 4.659q-.03.106-.123.106zM14.298 63.594h-.379q-.099 0-.068-.106l1.419-4.668q.03-.106.143-.106h.546q.114 0 .143.106l1.419 4.668q.03.105-.068.106h-.388q-.083 0-.106-.106l-.356-1.109h-1.836l-.356 1.109q-.031.105-.113.106m1.373-4.31-.782 2.626h1.594l-.782-2.625zM21.307 60.316h-.343q-.106.001-.106-.106v-.35q0-.66-.637-.659h-.782q-.63 0-.63.66v2.586q0 .66.63.66h.782q.636 0 .637-.66v-.349q0-.105.106-.106h.343q.105 0 .106.106v.372q0 .53-.299.827-.3.296-.823.297h-.106l-.334.35v.029q.585-.001.585.494v.1q0 .485-.653.485h-.235q-.099-.001-.098-.098v-.106q0-.1.098-.1h.181q.22 0 .304-.05t.084-.17v-.023q-.001-.136-.08-.18-.079-.046-.308-.046h-.122q-.136 0-.18-.114c-.029-.074-.01-.15.05-.22l.304-.349h-.401q-.524 0-.823-.297-.3-.296-.3-.827v-2.634q0-.531.3-.827.3-.297.823-.297h.911q.525 0 .823.297.3.296.3.827v.372q-.001.106-.107.106M22.503 63.594h-.379q-.099 0-.068-.106l1.42-4.668q.03-.106.142-.106h.546q.114 0 .143.106l1.42 4.668q.03.105-.069.106h-.388q-.083 0-.106-.106l-.356-1.109h-1.836l-.356 1.109q-.031.105-.113.106m.977-5.327q-.426 0-.427-.585v-.294q0-.075.069-.075h.158q.069 0 .068.075v.197q0 .22.039.297.04.077.133.075.096 0 .143-.061.05-.06.145-.27.095-.208.186-.277.09-.068.304-.068.433 0 .433.592v.297q0 .084-.068.084h-.168q-.068 0-.068-.084v-.204q0-.221-.038-.293-.037-.071-.136-.072-.099 0-.136.045a.5.5 0 0 0-.075.136q-.16.34-.254.413-.096.071-.308.072m.396 1.018-.782 2.625h1.594l-.782-2.625zM28.477 63.594h-.902q-.523 0-.823-.297-.3-.296-.299-.827v-2.634q0-.531.3-.827.299-.297.822-.297h.902q.525 0 .823.299.3.3.3.823v2.634q0 .523-.3.823t-.823.299zm-.84-.485h.772q.636 0 .637-.66v-2.586q0-.66-.637-.66h-.773q-.63 0-.63.66v2.587q0 .66.63.66M35.141 63.594H32.76q-.106 0-.107-.106V58.82q-.001-.106.107-.106h2.382q.106 0 .107.106v.274q0 .106-.107.107h-1.858q-.075 0-.075.068v1.532q0 .069.075.068h1.623q.105.001.106.107v.272q0 .106-.106.107h-1.623q-.075 0-.075.068v1.616q0 .068.075.068h1.858q.106 0 .107.106v.275q0 .105-.107.106M39.413 63.594h-.343q-.106 0-.106-.106v-4.219q0-.068-.075-.068h-1.032q-.112 0-.113-.107v-.274q0-.106.114-.106h2.77q.112 0 .113.106v.274q-.001.106-.113.107h-1.032q-.075 0-.075.068v4.219q0 .105-.106.106zM43.954 63.594H41.57q-.105 0-.106-.106V58.82q-.001-.106.106-.106h2.383q.106 0 .106.106v.274q0 .106-.106.107h-1.859q-.075 0-.075.068v1.532q0 .069.075.068h1.623q.106.001.107.107v.272q-.001.106-.107.107h-1.623q-.075 0-.075.068v1.616q0 .068.075.068h1.859q.106 0 .106.106v.275q0 .105-.106.106M47.06 63.594h-.91q-.525 0-.823-.297-.3-.296-.3-.827v-2.634q0-.531.3-.827.3-.297.822-.297h.912q.523 0 .823.297.299.296.299.827v.372q0 .105-.107.106h-.342q-.106.001-.107-.106v-.35q0-.66-.637-.659h-.782q-.63 0-.63.66v2.586q0 .66.63.66h.782q.639 0 .637-.66v-.349q.001-.105.107-.106h.342q.106 0 .107.106v.372q0 .53-.3.827-.298.296-.822.297zM49.653 63.594h-.334q-.106 0-.106-.106V58.82q-.001-.106.106-.106h.311q.092 0 .122.06l2.095 3.682h.03v-3.634q0-.105.106-.106h.333q.106 0 .107.106v4.668q-.001.105-.107.106h-.28q-.086 0-.16-.1l-2.087-3.642h-.03v3.634q0 .105-.106.106M55.567 63.594h-.902q-.523 0-.823-.297-.3-.296-.299-.827v-2.634q0-.531.3-.827.298-.297.822-.297h.902q.525 0 .823.299.3.3.3.823v2.634q0 .523-.3.823t-.823.299zm-.843-.485h.775q.636 0 .637-.66v-2.586q0-.66-.637-.66h-.775q-.63 0-.63.66v2.587q-.002.66.63.66M60.358 63.594h-2.435q-.106 0-.107-.106V58.82q.001-.106.107-.106h.342q.106 0 .107.106v4.205q0 .069.075.068h1.913q.105.001.106.113v.282q0 .105-.106.106zM63.19 63.594h-.902q-.523 0-.823-.297-.3-.296-.299-.827v-2.634q0-.531.3-.827.298-.297.822-.297h.902q.525 0 .823.299.3.3.3.823v2.634q0 .523-.3.823t-.823.299zm-.843-.485h.773q.636 0 .637-.66v-2.586q0-.66-.637-.66h-.773q-.63 0-.63.66v2.587q-.002.66.63.66M67.298 63.594h-.82q-.525 0-.823-.297-.3-.296-.3-.827v-2.634q0-.531.3-.827.3-.297.823-.297h.82q.523 0 .819.299.296.3.296.823v.31q0 .113-.106.114h-.342q-.106 0-.107-.114v-.288q0-.66-.63-.66h-.691q-.63 0-.63.66v2.587q-.001.66.63.66h.69q.63 0 .631-.66v-.85q0-.075-.068-.075h-.75q-.106 0-.107-.1v-.28q0-.107.107-.107h1.222q.15 0 .151.158v1.274q-.001.531-.296.828-.296.296-.819.297zM70.134 58.823v4.667q-.001.106-.107.107h-.342q-.106-.001-.107-.107v-4.667q-.001-.106.107-.107h.342q.106 0 .106.107M71.428 63.594h-.378q-.099 0-.068-.106L72.4 58.82q.03-.106.143-.106h.546q.114 0 .145.106l1.42 4.668q.03.105-.069.106h-.388q-.083 0-.106-.106l-.356-1.109H71.9l-.356 1.109q-.031.105-.113.106zm1.374-4.31-.782 2.626h1.594l-.782-2.625z"/></svg>