<svg xmlns="http://www.w3.org/2000/svg" width="216" height="83" fill="none"><path fill="#164772" d="M0 8.01V1.494Q0 .35 1.145.35H5.8q1.146 0 1.145 1.145V8.01q0 1.22-1.145 1.219H1.145Q0 9.228 0 8.009m0 41.38V15.31q0-1.216 1.145-1.218h4.582q1.217 0 1.218 1.218v34.08q0 .716-.25.968-.251.252-.895.25H1.218Q0 50.609 0 49.39M20.07 50.608h-4.512q-1.219 0-1.218-1.218V15.31q0-1.216 1.218-1.218h4.512q1.217 0 1.218 1.218v2.577h.286q1.718-3.795 7.23-3.795h3.151c3.483 0 6.159.956 8.018 2.865q2.794 2.864 2.793 8.233v24.2q0 1.219-1.289 1.218h-4.511q-1.22 0-1.219-1.218V25.476q-.001-5.298-5.225-5.299h-3.367q-5.87 0-5.87 6.086V49.39q0 1.219-1.218 1.218zM66.62 50.609h-6.3q-5.298.001-8.2-2.935-2.899-2.935-2.9-8.161v-14.32q.001-5.297 2.9-8.198 2.9-2.899 8.2-2.9h6.3q5.225.001 8.2 2.9 2.968 2.899 2.97 8.199v14.319q-.001 5.228-2.97 8.16c-1.983 1.96-4.714 2.935-8.2 2.935m-5.298-6.086h4.366q5.155 0 5.156-5.226v-13.89q-.001-5.225-5.156-5.226h-4.366q-2.723.002-3.938 1.253-1.219 1.254-1.218 3.972v13.891q0 2.724 1.218 3.973 1.217 1.254 3.938 1.253M82.73 14.095h4.796q1.147 0 1.362 1.218l7.446 28.781h.502l7.303-28.78q.285-1.218 1.504-1.219h4.725q1.289 0 .86 1.218l-9.665 34.01q-.288 1.289-1.574 1.288h-6.872q-1.29.001-1.574-1.288l-9.665-34.01q-.287-1.216.86-1.218zM129.225 50.609h-2.792q-5.298.001-8.199-2.935-2.899-2.935-2.9-8.161v-14.32q.001-5.297 2.9-8.198t8.199-2.9h16.038q1.29 0 1.289 1.218v34.08q0 1.219-1.289 1.218h-4.511q-1.22 0-1.219-1.218v-2.576h-.285q-1.719 3.794-7.231 3.794zm7.519-12.172V20.895q0-.717-.787-.717h-8.519q-5.155 0-5.156 5.298v13.748q.001 5.3 5.156 5.299h3.436q5.871 0 5.87-6.086M170.465 50.609h-13.174q-1.219 0-1.218-1.218v-3.51q0-1.145 1.218-1.145h12.029q4.653 0 4.654-3.22v-.86q0-2.866-3.366-4.366l-7.805-3.722q-3.65-1.718-5.299-3.795-1.648-2.075-1.647-5.442 0-9.237 10.239-9.236h11.886q1.145 0 1.145 1.218v3.51q0 1.219-1.145 1.218h-10.455q-2.148 0-3.293.752-1.146.751-1.146 1.97v.787q.001 2.292 3.652 4.01l7.876 4.01q3.722 1.649 5.117 3.904t1.397 5.834q0 9.31-10.668 9.31zM192.945 60.705h-4.512q-1.219 0-1.218-1.218V15.31q0-1.217 1.218-1.219h4.512q1.216-.001 1.218 1.219v2.576h.286q1.718-3.795 7.231-3.795h3.652q5.155 0 7.91 2.865t2.757 8.234v14.32c0 3.532-.921 6.262-2.757 8.198q-2.757 2.899-7.91 2.9h-3.652q-5.513 0-7.231-3.795h-.286v12.673q0 1.216-1.218 1.218m7.088-16.182h3.795q5.155 0 5.156-5.299V25.478q-.001-5.3-5.156-5.3h-3.795q-5.87 0-5.87 6.087v12.17q0 6.086 5.87 6.086zM.714 62.861v6.001q-.001.136-.137.137h-.44Q.001 69 0 68.862v-6q.001-.137.137-.138h.44q.136.001.137.137M2.87 69h-.428q-.136-.001-.137-.137v-6.001q0-.136.137-.137h.399q.118 0 .157.078l2.693 4.734h.038v-4.673q.001-.136.137-.136h.429q.136 0 .137.136v6.002q-.001.136-.137.137h-.362q-.109 0-.204-.129l-2.681-4.683H3.01v4.672q-.001.136-.137.137zM7.904 67.557v-.312q-.001-.136.137-.137h.44q.136.001.137.137v.254q0 .878.869.877h.86q.869 0 .868-.898v-.332q0-.704-1.16-.918-.488-.089-.976-.204c-.327-.079-.6-.23-.828-.455q-.34-.335-.34-.92v-.479q0-.673.384-1.058t1.058-.385h1.084q.663 0 1.055.385.39.386.39 1.058v.245q.001.145-.125.146h-.448q-.128-.001-.129-.146v-.175q.001-.888-.868-.889h-.83q-.87 0-.87.927v.39q.002.499.653.683c.196.052.408.099.645.14q.35.063.708.166.355.1.65.253.292.153.472.458.18.308.18.746v.44q0 .674-.39 1.058-.39.385-1.055.385H9.353q-.663 0-1.055-.385c-.263-.256-.39-.61-.39-1.058zM14.92 69h-.44q-.136-.001-.137-.137v-5.424q0-.088-.096-.088h-1.326q-.145 0-.146-.137v-.352q.001-.136.146-.137h3.562q.145 0 .145.137v.352q-.001.136-.145.137h-1.326q-.097 0-.097.088v5.424q0 .136-.137.137zM18.314 62.862v6q-.001.137-.137.138h-.44q-.136-.001-.137-.137v-6.001c0-.09.043-.137.137-.137h.44q.136 0 .137.137M21.436 69h-.44q-.136-.001-.137-.137v-5.424q0-.088-.096-.088h-1.326q-.145 0-.146-.137v-.352q.001-.136.146-.137h3.561q.145 0 .146.137v.352q-.001.136-.146.137h-1.326q-.096 0-.096.088v5.424q-.001.136-.137.137zM27.41 62.728h.44q.136 0 .136.128v4.701q.001.683-.379 1.064-.38.38-1.055.382h-1.084q-.673-.001-1.058-.382-.384-.382-.385-1.064v-4.693q-.001-.136.137-.136h.44q.136 0 .137.136v4.664q0 .848.81.848h.919q.818 0 .819-.848v-4.664q.001-.136.128-.136zM31.008 69h-.44q-.136-.001-.137-.137v-5.424q0-.088-.096-.088H29.01q-.145 0-.146-.137v-.352q.001-.136.146-.137h3.562q.145 0 .145.137v.352q-.001.136-.145.137h-1.326q-.097 0-.097.088v5.424q0 .136-.137.137zM36.15 69h-1.16q-.675-.001-1.058-.382-.385-.382-.385-1.064v-3.387q0-.682.385-1.064.384-.38 1.058-.381h1.16q.672 0 1.058.384.384.386.384 1.058v3.387q0 .674-.384 1.058-.386.385-1.058.385zm-1.085-.624h.997q.819 0 .82-.848v-3.326q-.001-.848-.82-.848h-.997q-.81 0-.81.848v3.326q-.002.848.81.848M42.089 69h-.44q-.136-.001-.137-.137v-6.001q0-.136.137-.137h2.282q.672 0 1.055.384.38.386.382 1.058v1.084q-.001.683-.382 1.064-.379.382-1.055.382h-1.609q-.096 0-.096.088v2.078q-.001.136-.137.137m.236-2.938h1.512q.821 0 .82-.84V64.2q0-.848-.82-.848h-1.512q-.096 0-.096.088v2.535q0 .088.096.088M46.726 69h-.487q-.126-.001-.087-.137l1.824-6.001q.04-.136.187-.137h.702q.145 0 .187.137l1.824 6q.04.137-.087.138h-.498q-.108-.001-.137-.137l-.458-1.426h-2.36l-.458 1.426q-.04.136-.146.137zm1.763-5.54-1.005 3.374h2.049l-1.006-3.375zM55.251 62.728h.44q.136 0 .137.128v4.701q.001.683-.379 1.064-.38.38-1.055.382H53.31q-.674-.001-1.058-.382-.385-.382-.385-1.064v-4.693q.001-.136.137-.136h.44q.136 0 .137.136v4.664q0 .848.81.848h.919q.82 0 .819-.848v-4.664q0-.136.128-.136zM60.588 69h-3.13q-.137-.001-.138-.137v-6.001q.001-.136.137-.137h.44q.136 0 .137.137v5.406q0 .088.097.088h2.46q.135.001.136.145v.362q0 .136-.137.137zM62.478 62.862v6q-.001.137-.137.138h-.44q-.136-.001-.137-.137v-6.001q0-.136.137-.137h.44q.136 0 .137.137M64.004 67.557v-.312q-.001-.136.137-.137h.44q.136.001.137.137v.254q-.001.878.868.877h.86q.87 0 .869-.898v-.332q-.001-.704-1.16-.918-.489-.089-.977-.204-.488-.118-.827-.455-.341-.335-.341-.92v-.479q0-.673.384-1.058.386-.385 1.058-.385h1.085c.443 0 .792.129 1.055.385q.39.386.39 1.058v.245q0 .145-.128.146h-.449q-.125-.001-.125-.146v-.175q0-.888-.869-.889h-.83q-.87 0-.869.927v.39q.001.499.653.683.291.078.644.14a7 7 0 0 1 .708.166q.359.1.65.253.294.153.472.458.18.308.181.746v.44q0 .674-.39 1.058-.39.385-1.055.385h-1.123q-.662 0-1.055-.385-.39-.385-.39-1.058zM71.016 69h-.44q-.136-.001-.137-.137v-5.424q0-.088-.096-.088h-1.326q-.145 0-.146-.137v-.352q.001-.136.146-.137h3.561q.146 0 .146.137v.352q-.001.136-.146.137h-1.326q-.096 0-.096.088v5.424q-.001.136-.137.137zM73.73 69h-.487q-.126-.001-.087-.137l1.824-6.001q.04-.136.184-.137h.702q.147 0 .184.137l1.825 6q.04.137-.088.138h-.498q-.108-.001-.137-.137l-.458-1.426h-2.36l-.458 1.426q-.04.136-.146.137m1.766-5.54-1.005 3.374h2.049l-1.006-3.375zM81.398 68.863v-6.001q.001-.136.137-.137h2.4q.672 0 1.057.384.385.386.385 1.058v3.387q0 .674-.385 1.058-.385.385-1.058.385h-2.399q-.136-.001-.137-.137zm.81-.487h1.639q.818 0 .819-.848v-3.326q0-.848-.82-.848H82.21q-.096 0-.097.088v4.85q0 .087.097.087zM90.023 69h-3.064q-.136-.001-.137-.137v-6.001q-.001-.136.137-.137h3.063q.136 0 .137.137v.352q0 .136-.137.137h-2.39q-.096 0-.096.088v1.97q0 .087.096.087h2.087q.136.001.137.137v.35q0 .136-.137.137h-2.087q-.096 0-.096.087v2.079q0 .087.096.087h2.39q.136.001.137.137v.353q0 .136-.137.137M.714 74.762v6q-.001.137-.137.138h-.44q-.136-.001-.137-.137V74.76q.001-.135.137-.136h.44q.136 0 .137.136M2.87 80.897h-.428q-.136-.001-.137-.137v-6.001q0-.136.137-.137h.399q.118 0 .157.078l2.693 4.733h.038v-4.672q.001-.135.137-.136h.429q.136 0 .137.136v6.002q-.001.136-.137.136h-.362q-.109 0-.204-.128l-2.681-4.683H3.01v4.672q-.001.136-.137.137zM10.482 80.897h-1.16q-.674 0-1.058-.382-.385-.382-.385-1.064v-3.386q0-.683.385-1.064.384-.382 1.058-.382h1.16q.672 0 1.058.385.384.384.384 1.058v3.386q0 .675-.384 1.058-.386.385-1.058.385zm-1.085-.624h.997q.821 0 .82-.848V76.1q-.001-.849-.82-.849h-.997q-.81 0-.81.849v3.325q0 .848.81.848M15.415 80.897h-.693q-.127-.001-.166-.137l-1.729-5.99q-.028-.144.126-.145h.478q.127 0 .154.136l1.454 5.337h.038l1.455-5.337q.029-.135.154-.136h.487q.146.001.116.145l-1.728 5.99q-.04.136-.157.137zM18.382 80.897h-.486q-.127-.001-.088-.137l1.825-6.001q.039-.136.183-.137h.703c.096 0 .16.046.183.137l1.825 6q.04.137-.088.138h-.498q-.108-.001-.137-.137l-.458-1.426h-2.36l-.458 1.426q-.04.136-.146.137m1.766-5.54-1.005 3.374h2.049l-1.006-3.375zM27.397 76.682h-.44q-.136.001-.137-.137v-.449q0-.848-.82-.848h-1.005q-.81 0-.81.848v3.326q0 .848.81.848h1.006q.818 0 .819-.848v-.449q0-.136.136-.137h.44q.137.001.138.137v.478q0 .683-.385 1.064-.386.38-1.058.382h-.137l-.428.448v.038q.751-.001.752.636v.128q0 .625-.84.624h-.303q-.126-.001-.125-.126v-.137q-.001-.127.125-.128h.233q.284.001.39-.064.109-.066.108-.219v-.029q-.001-.175-.101-.233c-.067-.038-.202-.058-.397-.058h-.157q-.175-.001-.23-.146t.064-.283l.39-.448h-.516q-.673-.001-1.058-.382-.384-.382-.384-1.064v-3.387q0-.682.384-1.064.386-.38 1.058-.381h1.172q.673 0 1.058.381.385.382.385 1.064v.478q-.001.136-.137.137M28.93 80.897h-.488q-.126-.001-.087-.137l1.825-6.001q.039-.136.183-.137h.703c.096 0 .16.046.183.137l1.825 6q.04.137-.088.138h-.498q-.108-.001-.137-.137l-.458-1.425h-2.36l-.458 1.425q-.04.136-.146.137m1.255-6.85q-.547 0-.548-.751v-.38q0-.095.088-.095h.204q.087 0 .087.096v.253q-.001.283.05.382c.035.067.09.096.172.096q.122 0 .183-.078.065-.077.187-.347.122-.267.239-.356.117-.087.39-.087.556 0 .557.76v.382q0 .109-.087.108h-.216q-.087 0-.087-.108v-.262q-.001-.285-.05-.376-.048-.092-.175-.093-.127 0-.175.058a.7.7 0 0 0-.096.175q-.205.438-.326.53t-.397.094m.51 1.31L29.69 78.73h2.049l-1.006-3.375zM36.616 80.897h-1.16q-.673 0-1.058-.382-.384-.382-.384-1.064v-3.386q0-.683.384-1.064.386-.382 1.058-.382h1.16q.675 0 1.058.385.385.384.385 1.058v3.386q0 .675-.385 1.058-.384.385-1.058.385zm-1.08-.624h.993q.818 0 .819-.848V76.1q0-.849-.82-.849h-.993q-.81 0-.81.849v3.325q-.002.848.81.848M45.18 80.897h-3.062q-.137-.001-.138-.137v-6.001q-.002-.136.138-.137h3.063q.136 0 .137.137v.352q-.001.136-.137.137h-2.39q-.096 0-.096.088v1.97q0 .087.096.087h2.087q.136.001.136.137v.35q0 .136-.137.137h-2.086q-.096 0-.096.088v2.078q0 .087.096.087h2.39q.136.001.137.137v.353q-.001.136-.137.137M50.674 80.897h-.44q-.136-.001-.137-.137v-5.424q0-.088-.096-.088h-1.326q-.145 0-.146-.137v-.352q.001-.136.146-.137h3.562q.145 0 .145.137v.352q-.001.136-.145.137H50.91q-.096 0-.096.088v5.424q0 .136-.137.137zM56.51 80.897h-3.062q-.137-.001-.138-.137v-6.001q-.001-.136.137-.137h3.064q.136 0 .137.137v.352q-.001.136-.137.137h-2.39q-.096 0-.096.088v1.97q0 .087.096.087h2.087q.136.001.137.137v.35q-.001.136-.137.137H54.12q-.096 0-.096.088v2.078q0 .087.096.087h2.39q.136.001.137.137v.353q-.001.136-.137.137M60.509 80.897h-1.172q-.673 0-1.058-.382-.384-.382-.385-1.064v-3.386q0-.683.385-1.064.386-.382 1.058-.382h1.172q.673 0 1.058.382.384.38.385 1.063v.479q-.001.136-.137.136h-.44q-.136.002-.138-.136v-.45q0-.847-.819-.847h-1.005q-.81 0-.81.848v3.325q-.002.849.81.848h1.006q.82 0 .819-.848v-.449q0-.136.136-.137h.44q.137.001.138.137v.478q0 .683-.385 1.064-.386.382-1.058.382zM63.837 80.897h-.429q-.136-.001-.136-.137v-6.001q-.002-.136.136-.137h.4q.117 0 .157.078l2.693 4.733h.038v-4.672q.001-.135.137-.136h.428q.137 0 .138.136v6.002q0 .136-.138.136h-.36q-.11 0-.205-.128l-2.684-4.683h-.038v4.672q-.001.136-.137.137M71.448 80.897h-1.16q-.672 0-1.058-.382-.384-.382-.384-1.064v-3.386q0-.683.384-1.064.386-.382 1.058-.382h1.16q.675 0 1.058.385.385.384.385 1.058v3.386q0 .675-.385 1.058-.384.385-1.058.385zm-1.084-.624h.997q.818 0 .819-.848V76.1q0-.849-.819-.849h-.997q-.81 0-.81.849v3.325q-.001.848.81.848M77.603 80.897h-3.13q-.136-.001-.137-.137v-6.001q.001-.136.137-.137h.44q.136 0 .137.137v5.406q0 .087.096.087h2.46q.136.001.137.146v.362q-.001.136-.137.137zM81.243 80.897h-1.16q-.672 0-1.058-.382-.384-.382-.384-1.064v-3.386q0-.683.384-1.064.386-.382 1.058-.382h1.16q.674 0 1.058.385.385.384.385 1.058v3.386q0 .675-.385 1.058-.384.385-1.058.385zm-1.084-.624h.994q.818 0 .819-.848V76.1q0-.849-.819-.849h-.994q-.81 0-.81.849v3.325q-.002.848.81.848M86.531 80.897h-1.055q-.674 0-1.058-.382-.385-.382-.385-1.064v-3.386q0-.683.385-1.064.385-.382 1.058-.382h1.055q.673 0 1.052.385.382.384.382 1.058v.399q-.001.145-.137.146h-.44q-.136-.001-.137-.146v-.37q0-.849-.81-.848h-.89q-.808 0-.81.848v3.325q0 .849.81.848h.89q.81 0 .81-.848v-1.093q0-.096-.088-.096H86.2q-.136-.001-.137-.128v-.362q0-.135.137-.136h1.57q.195 0 .196.204v1.637q0 .683-.382 1.064-.379.382-1.052.382zM90.171 74.762v6q-.001.137-.137.138h-.44q-.136-.001-.137-.137V74.76q-.001-.135.137-.136h.44q.136 0 .137.136M91.837 80.897h-.486q-.127-.001-.088-.137l1.825-6.001q.039-.136.183-.137h.703q.145 0 .186.137l1.825 6q.04.137-.088.138H95.4q-.108-.001-.137-.137l-.458-1.426h-2.36l-.458 1.426q-.04.136-.146.137zm1.767-5.54-1.006 3.374h2.049l-1.006-3.375z"/></svg>