<svg xmlns="http://www.w3.org/2000/svg" width="237" height="107" fill="none"><path fill="#fff" d="M12.697 3.74V2.515c0-1.186.63-1.784 1.895-1.784h4.343q1.783 0 1.783 1.784V3.74q-.001 6.239-3.787 13.813c.072 0 .335-.26.778-.779a24 24 0 0 1 1.672-1.724 51 51 0 0 1 2.34-2.06q3.227-2.563 7.016-3.676l1.337-.447q1.668-.444 2.227 1.226l1.337 4.122q.554 1.895-1.228 2.339c-4.231 1.56-9.395 1.892-15.482 1.002q.331 0 3.23 1.56c4.158 2.45 7.167 5.2 9.023 8.242.815.966.706 1.784-.335 2.45l-3.564 2.563q-1.671.892-2.562-.447c-2.822-3.265-4.754-8.058-5.792-14.368q-1.227 8.912-4.678 13.701l-.781 1.114q-1 1.336-2.562.223l-3.453-2.562c-1.189-.67-1.337-1.521-.444-2.562 2.599-3.86 6.573-7.168 11.918-9.914q-9.357 1.671-14.368-.112l-1.337-.446q-1.672-.67-1.002-2.34l1.337-4.23q.555-1.781 2.339-1.002 6.347 1.448 13.034 8.13-4.233-8.466-4.234-13.813zM44.56 39.922v-5.806q0-1.02 1.022-1.021h4.145q1.02 0 1.021 1.021v5.806q0 1.084-1.021 1.083h-4.145q-1.021 0-1.022-1.083m0 36.867V46.428q0-1.084 1.022-1.083h4.083q1.084.002 1.083 1.083v30.36q0 .637-.223.863-.224.224-.798.223h-4.083q-1.084 0-1.084-1.082zM62.438 77.872h-4.02q-1.083 0-1.082-1.083V46.428q0-1.084 1.083-1.083h4.019q1.084.002 1.083 1.083v2.297h.254q1.531-3.38 6.442-3.38h2.808q4.655 0 7.142 2.55c1.658 1.703 2.487 4.145 2.487 7.336v21.558q0 1.084-1.147 1.083h-4.02q-1.083 0-1.083-1.083V55.485q0-4.72-4.655-4.72H68.75q-5.23.002-5.23 5.42v20.601q-.001 1.084-1.083 1.083zM103.91 77.871h-5.613q-4.721.001-7.304-2.615t-2.585-7.27V55.228q.001-4.72 2.585-7.305 2.582-2.584 7.304-2.584h5.613q4.654 0 7.304 2.584 2.646 2.582 2.646 7.305v12.758c0 3.103-.882 5.529-2.646 7.27q-2.648 2.616-7.304 2.615m-4.72-5.42h3.891q4.592 0 4.591-4.655V55.423q.001-4.656-4.591-4.656h-3.89q-2.425.001-3.51 1.117-1.082 1.118-1.082 3.539v12.373q0 2.424 1.083 3.539 1.084 1.117 3.508 1.116M118.26 45.345h4.273q1.02.002 1.212 1.083l6.634 25.641h.447l6.505-25.641q.256-1.084 1.34-1.083h4.209q1.149.002.765 1.083l-8.611 30.297q-.256 1.147-1.403 1.147h-6.124q-1.148 0-1.404-1.147l-8.61-30.297q-.257-1.084.764-1.083zM159.68 77.871h-2.487q-4.721.001-7.304-2.615t-2.584-7.27V55.228q0-4.72 2.584-7.305t7.304-2.584h14.288q1.147.002 1.147 1.083v30.36q0 1.085-1.147 1.084h-4.019q-1.084 0-1.083-1.083v-2.297h-.254q-1.532 3.381-6.442 3.38zm6.699-10.843V51.401q-.001-.638-.701-.64h-7.589q-4.591.001-4.591 4.72V67.73q0 4.721 4.591 4.72h3.062q5.23 0 5.231-5.42zM196.419 77.87h-11.736q-1.084 0-1.083-1.082v-3.126q0-1.022 1.083-1.022h10.714q4.145 0 4.145-2.869v-.765q0-2.55-2.997-3.89l-6.953-3.316c-2.169-1.022-3.743-2.146-4.72-3.38q-1.468-1.851-1.468-4.848 0-8.228 9.121-8.228h10.59q1.021.002 1.021 1.083v3.126q0 1.084-1.021 1.083h-9.311q-1.915 0-2.934.67-1.021.67-1.021 1.752v.7q0 2.043 3.251 3.573l7.017 3.573q3.317 1.47 4.561 3.475c.829 1.337 1.245 3.073 1.245 5.197q0 8.293-9.504 8.292zM216.446 86.867h-4.019q-1.084-.001-1.083-1.084V46.43q0-1.084 1.083-1.083h4.019q1.084 0 1.083 1.083v2.297h.254q1.531-3.38 6.441-3.38h3.252q4.594 0 7.047 2.55c1.636 1.703 2.457 4.145 2.457 7.336V67.99q-.002 4.721-2.457 7.304t-7.047 2.584h-3.252q-4.91.001-6.441-3.38h-.254v11.29q-.001 1.084-1.083 1.083zm6.316-14.416h3.38q4.592.001 4.591-4.72V55.484q.001-4.72-4.591-4.72h-3.38q-5.23.002-5.23 5.42v10.844q0 5.42 5.23 5.42zM45.197 88.789v5.345q0 .121-.123.123h-.39q-.123 0-.123-.123v-5.345q0-.122.122-.123h.391q.122 0 .123.123M47.117 94.254h-.383q-.121 0-.123-.122v-5.345q0-.122.123-.123h.357q.106-.001.14.07l2.4 4.214h.034v-4.164q0-.122.123-.123h.382q.121 0 .123.123v5.345q0 .121-.123.123h-.321q-.097 0-.181-.112l-2.39-4.173h-.033v4.165q0 .121-.123.122zM51.604 92.968v-.28q-.001-.12.122-.12h.391c.081 0 .123.043.123.12v.227q0 .782.773.781h.765q.773-.001.773-.8v-.297q0-.626-1.036-.818-.436-.078-.868-.18a1.54 1.54 0 0 1-.74-.406q-.304-.3-.303-.82v-.427q0-.6.343-.944t.943-.343h.966q.59 0 .938.343.346.345.346.944v.218q0 .13-.112.13h-.399q-.112 0-.112-.13v-.157q.001-.79-.773-.79h-.74q-.774.001-.773.827v.348q.001.443.584.609.261.072.572.125.314.058.63.148.319.093.578.226.262.136.422.408c.106.181.162.405.162.664v.39q-.001.6-.346.944-.347.344-.938.344h-1q-.59 0-.937-.344t-.346-.943zM57.85 94.255h-.39q-.122 0-.123-.123V89.3q0-.079-.087-.078h-1.183q-.131-.001-.132-.122v-.313q0-.122.132-.123h3.173q.13 0 .131.123v.313q0 .121-.13.122h-1.184q-.088 0-.087.078v4.832q0 .121-.123.122zM60.875 88.789v5.345q-.002.121-.12.123h-.39q-.121 0-.12-.123v-5.345q-.002-.122.12-.123h.39q.12 0 .12.123M63.656 94.255h-.39q-.123 0-.123-.123V89.3q0-.079-.087-.078h-1.18q-.131-.001-.132-.122v-.313q.001-.122.131-.123h3.174q.13 0 .13.123v.313c0 .08-.04.122-.13.122h-1.184q-.087 0-.086.078v4.832q0 .121-.123.122M68.977 88.667h.391q.122 0 .123.111v4.19q0 .61-.338.946-.34.338-.938.338h-.965q-.6 0-.944-.338-.343-.339-.343-.946v-4.181q-.001-.122.123-.123h.39q.122 0 .123.123v4.156q0 .757.72.756h.818q.729 0 .729-.756v-4.156q0-.122.114-.123zM72.184 94.255h-.39q-.122 0-.123-.123V89.3q0-.079-.087-.078h-1.183q-.131-.001-.132-.122v-.313q-.001-.122.132-.123h3.173q.13 0 .131.123v.313q0 .121-.13.122h-1.181q-.089 0-.087.078v4.832q0 .121-.123.122M76.764 94.255h-1.036q-.599 0-.943-.338-.344-.339-.344-.946v-3.017q0-.607.344-.946t.943-.338h1.036q.599 0 .943.343.343.345.343.944v3.017q0 .599-.343.943t-.943.343zm-.966-.556h.887q.729.002.729-.756v-2.964q0-.757-.729-.756h-.887q-.72-.001-.72.756v2.964q0 .757.72.756M82.057 94.255h-.391q-.122 0-.123-.123v-5.345q0-.122.123-.123H83.7q.598 0 .937.343.338.345.338.944v.965q0 .607-.338.947-.339.338-.937.337h-1.435q-.088 0-.087.078v1.85q0 .123-.123.124zm.209-2.616h1.348q.73.001.731-.748v-.912q0-.757-.731-.757h-1.348q-.088 0-.087.078v2.261q0 .079.087.078M86.187 94.255h-.435q-.112 0-.078-.123l1.624-5.345q.034-.122.165-.123h.625q.131 0 .165.123l1.624 5.345q.035.121-.078.122h-.444q-.094 0-.123-.122l-.407-1.27H86.72l-.407 1.27q-.034.121-.131.122zm1.572-4.935-.896 3.006h1.825l-.896-3.006zM93.78 88.667h.392q.12 0 .12.111v4.19q0 .61-.338.946-.34.338-.938.338h-.966q-.599 0-.943-.338-.343-.339-.343-.946v-4.181q0-.122.123-.123h.39q.122 0 .123.123v4.156q0 .757.72.756h.818q.73 0 .731-.756v-4.156q-.001-.122.112-.123zM98.535 94.255h-2.791q-.122 0-.123-.123v-5.345q0-.122.123-.123h.39q.123 0 .123.123V93.6q0 .08.087.079h2.191q.121-.002.123.13v.322q0 .121-.123.122M100.221 88.789v5.345q0 .121-.12.123h-.39q-.122 0-.123-.123v-5.345q0-.122.123-.123h.39q.12 0 .12.123M101.577 92.968v-.28q-.001-.12.123-.12h.391c.081 0 .122.043.122.12v.227q0 .782.773.781h.765q.774-.001.773-.8v-.297q0-.626-1.035-.818-.436-.078-.871-.18a1.55 1.55 0 0 1-.74-.406q-.304-.3-.304-.82v-.427q0-.6.344-.944t.943-.343h.966q.59 0 .937.343.347.345.346.944v.218q0 .13-.111.13h-.399q-.113 0-.112-.13v-.157q0-.79-.773-.79h-.74q-.774.001-.773.827v.348q.001.443.584.609.26.072.572.125.313.058.63.148.319.093.578.226.261.136.422.408c.106.181.162.405.162.664v.39q-.002.6-.347.944-.347.344-.937.344h-1q-.59 0-.937-.344t-.346-.943zM107.824 94.255h-.391q-.122 0-.123-.123V89.3q.001-.079-.086-.078h-1.181q-.13-.001-.131-.122v-.313q.001-.122.131-.123h3.174q.13 0 .131.123v.313q.001.121-.131.122h-1.184q-.087 0-.086.078v4.832q0 .121-.123.122M110.244 94.255h-.435q-.113 0-.078-.123l1.624-5.345q.034-.122.165-.123h.625q.13 0 .164.123l1.625 5.345q.034.121-.078.122h-.444q-.094 0-.123-.122l-.407-1.27h-2.105l-.407 1.27q-.034.121-.132.122zm1.574-4.935-.896 3.006h1.826l-.896-3.006zM117.074 94.134v-5.345q0-.122.123-.123h2.138q.599 0 .943.343.344.345.344.944v3.017q0 .599-.344.943t-.943.344h-2.138q-.122 0-.123-.123m.72-.436h1.46q.73.001.731-.756v-2.964q0-.757-.731-.756h-1.46q-.086 0-.086.078v4.32q0 .079.086.078M124.755 94.255h-2.73q-.122 0-.123-.123v-5.345q-.002-.122.123-.123h2.73q.122 0 .123.123v.313q0 .121-.123.122h-2.13q-.087 0-.086.078v1.756q0 .079.086.078h1.859q.122 0 .123.123v.313q0 .121-.123.122h-1.859q-.087 0-.086.079v1.85q0 .079.086.078h2.13q.122.002.123.12v.313q0 .121-.123.122M45.197 99.388v5.344q0 .122-.123.123h-.39q-.123 0-.123-.123v-5.344q0-.123.122-.123h.391q.122 0 .123.123M47.117 104.855h-.383q-.121 0-.123-.123v-5.345q0-.121.123-.123h.357q.106 0 .14.07l2.4 4.215h.034v-4.165q0-.121.123-.122h.382q.121 0 .123.123v5.344q0 .122-.123.123h-.321q-.097 0-.181-.111l-2.39-4.173h-.033v4.164q0 .122-.123.123zM53.896 104.854h-1.035q-.6.001-.944-.337-.343-.34-.343-.946v-3.018q0-.606.343-.946.345-.339.944-.338h1.035q.6 0 .944.344t.343.943v3.017q0 .6-.343.944-.345.343-.944.343zm-.965-.555h.887q.73 0 .732-.756v-2.964q0-.758-.732-.757h-.887q-.72-.001-.72.757v2.964q0 .757.72.756M58.295 104.855h-.617q-.114 0-.148-.123l-1.538-5.336q-.026-.13.112-.131h.427q.111 0 .14.123l1.294 4.753H58l1.295-4.754q.026-.121.14-.122h.435q.132 0 .103.13l-1.538 5.337q-.034.122-.14.123M60.937 104.855h-.435q-.112 0-.078-.123l1.624-5.344q.034-.123.165-.123h.625q.13 0 .165.123l1.624 5.344q.034.122-.078.123h-.444q-.094 0-.123-.123l-.407-1.27H61.47l-.407 1.27q-.034.122-.131.123zm1.575-4.937-.896 3.006h1.825l-.896-3.006zM68.967 101.1h-.39q-.123 0-.123-.12v-.399q0-.757-.732-.756h-.896q-.72 0-.72.756v2.964q0 .757.72.757h.896q.73 0 .732-.757v-.399q0-.122.122-.123h.391q.122 0 .123.123v.424q0 .61-.343.947-.345.338-.944.337h-.123l-.382.399v.034q.67 0 .67.564v.111q0 .557-.748.556h-.27q-.113 0-.112-.112v-.123q0-.112.111-.111h.21q.251-.001.348-.056.095-.055.095-.196v-.025q0-.155-.092-.209-.091-.051-.352-.053h-.14q-.155-.001-.203-.131-.047-.13.056-.251l.349-.399h-.46q-.6 0-.944-.338-.343-.34-.343-.946v-3.018q0-.606.343-.946.344-.338.943-.337h1.044q.6-.001.944.337.342.34.343.946v.428q0 .12-.123.12zM70.33 104.855h-.435q-.112 0-.079-.123l1.625-5.345q.034-.122.165-.123h.625q.13 0 .164.123l1.625 5.345q.034.122-.078.123h-.444q-.094 0-.123-.123l-.407-1.27h-2.105l-.407 1.27q-.034.122-.132.123zm1.122-6.102q-.486 0-.486-.67v-.337q0-.088.079-.087h.18q.08 0 .08.087v.226q0 .252.04.338.043.084.154.086.112.001.165-.07c.04-.047.092-.148.165-.31q.108-.238.212-.318.103-.079.349-.078.494 0 .494.678v.338q0 .095-.078.095h-.193q-.079.001-.078-.095v-.234q0-.252-.042-.335t-.156-.084-.157.053a.7.7 0 0 0-.086.156q-.183.39-.29.475-.11.084-.352.084zm.452 1.164-.896 3.006h1.826l-.896-3.006zM77.18 104.854h-1.036q-.599.001-.943-.337-.344-.34-.344-.946v-3.018q0-.606.344-.946t.943-.338h1.036q.599 0 .943.344t.343.943v3.017q0 .6-.343.944t-.943.343zm-.963-.555h.887q.73 0 .731-.756v-2.964q.001-.758-.73-.757h-.888q-.72-.001-.72.757v2.964q0 .757.72.756M84.81 104.855h-2.73q-.122 0-.123-.123v-5.344q0-.123.123-.123h2.73q.121 0 .122.123v.312q0 .122-.123.123h-2.13q-.087 0-.086.078v1.756q0 .079.087.078h1.859q.121 0 .123.123v.312q0 .122-.123.123h-1.86q-.087 0-.086.078v1.851q0 .079.087.078h2.13q.121.001.122.12v.312q0 .122-.123.123M89.707 104.855h-.391q-.121 0-.123-.123v-4.831q0-.079-.086-.078h-1.18q-.131 0-.132-.123v-.312q.001-.123.131-.123H91.1q.13 0 .13.123v.312q.002.122-.13.123h-1.184q-.087 0-.086.078v4.831q0 .122-.123.123M94.905 104.855h-2.73q-.121 0-.122-.123v-5.344q-.002-.123.123-.123h2.73q.121 0 .122.123v.312q0 .122-.123.123h-2.13q-.087 0-.086.078v1.756q0 .079.087.078h1.861q.122 0 .123.123v.312q0 .122-.123.123h-1.861q-.088 0-.087.078v1.851q0 .079.087.078h2.13q.121.001.122.12v.312q0 .122-.123.123M98.467 104.854h-1.044q-.599.001-.943-.337-.343-.34-.343-.946v-3.018q0-.606.343-.946t.943-.338h1.044q.6 0 .944.338.343.34.343.946v.427q0 .12-.123.12h-.39q-.123 0-.123-.12v-.399q0-.757-.732-.756h-.896q-.72 0-.72.756v2.964q0 .758.72.757h.896q.73.001.732-.757v-.399q0-.122.122-.123h.391q.122 0 .123.123v.425c0 .404-.115.722-.343.946q-.345.338-.944.337M101.431 104.855h-.382q-.122 0-.123-.123v-5.345q-.002-.121.123-.123h.357q.105 0 .139.07l2.401 4.215h.033v-4.165q0-.121.123-.122h.382q.122 0 .123.123v5.344q0 .122-.123.123h-.321q-.097 0-.181-.111l-2.389-4.173h-.034v4.164q-.001.122-.122.123zM108.207 104.854h-1.036q-.599.001-.943-.337-.343-.34-.343-.946v-3.018q0-.606.343-.946t.943-.338h1.036q.599 0 .943.344t.344.943v3.017q0 .6-.344.944t-.943.343zm-.963-.555h.888q.728 0 .728-.756v-2.964q0-.758-.728-.757h-.888q-.72-.001-.72.757v2.964q0 .757.72.756M113.691 104.855H110.9q-.122 0-.123-.123v-5.344q0-.123.123-.123h.391q.122 0 .123.123v4.814q0 .079.086.078h2.191q.122-.001.123.131v.321q0 .122-.123.123M116.935 104.854H115.9q-.6.001-.943-.337-.344-.34-.344-.946v-3.018q0-.606.344-.946t.943-.338h1.035q.6 0 .944.344t.343.943v3.017q0 .6-.343.944t-.944.343zm-.965-.555h.887q.73 0 .732-.756v-2.964q0-.758-.732-.757h-.887q-.72-.001-.72.757v2.964q0 .757.72.756M121.646 104.854h-.937q-.6.001-.944-.337-.343-.34-.343-.946v-3.018q0-.606.343-.946t.944-.338h.937q.599 0 .938.344t.338.943v.357q-.002.131-.12.132h-.391q-.12 0-.12-.132v-.329q0-.757-.723-.756h-.79q-.72 0-.72.756v2.964q0 .757.72.757h.79q.722 0 .723-.757v-.974q0-.087-.078-.086h-.86q-.122 0-.123-.112v-.321q0-.122.123-.123h1.399q.172.001.173.182v1.459q0 .61-.338.947-.34.338-.938.337zM124.887 99.388v5.344q-.002.122-.12.123h-.391q-.12 0-.12-.123v-5.344q0-.123.12-.123h.391q.12 0 .12.123M126.375 104.855h-.435q-.113 0-.079-.123l1.625-5.344q.034-.123.164-.123h.626q.13 0 .164.123l1.625 5.344q.034.122-.078.123h-.444q-.095 0-.123-.123l-.408-1.27h-2.104l-.407 1.27q-.034.122-.132.123zm1.571-4.937-.896 3.006h1.826l-.896-3.006z"/></svg>