<svg xmlns="http://www.w3.org/2000/svg" width="45" height="15" fill="none"><path fill="#fff" d="m11.845 7.438-9.972 4.996h10.929v1.718H1.857c-.941 0-1.703-.777-1.703-1.718 0-.653.397-1.232.96-1.52l9.953-4.996H.154V4.216h10.948c.922 0 1.703.759 1.703 1.702 0 .688-.416 1.248-.96 1.52M14.506 4.227h1.702v9.933h-1.702zM30.557 7.803l-.02 2.75c-.018 1.97-1.593 3.6-3.564 3.6H21.49c-1.971 0-3.584-1.63-3.584-3.6v-2.75a3.593 3.593 0 0 1 3.584-3.584h5.483c1.971 0 3.565 1.61 3.584 3.584m-1.719 0c0-1.03-.832-1.882-1.863-1.882h-5.482c-1.03 0-1.863.851-1.863 1.882v2.75c0 1.03.832 1.88 1.863 1.88h5.482c1.03 0 1.863-.85 1.863-1.88zM44.907 7.81v6.353h-1.703V7.811c0-1.031-.85-1.882-1.862-1.882h-7.364v8.234h-1.703V4.227h9.067c1.955 0 3.565 1.61 3.565 3.584M27.92.827h-7.375v1.7h7.375z"/></svg>