<svg xmlns="http://www.w3.org/2000/svg" width="43" height="43" fill="none"><path fill="#fff" d="M40.118.07H3.138a2.773 2.773 0 0 0 0 5.548h36.98a2.774 2.774 0 0 0 0-5.547M13.307 11.257v3.606h3.605a4.62 4.62 0 0 0-3.605-3.606"/><path fill="#fff" d="M3.139 31.504A3.7 3.7 0 0 0 6.837 35.2h13.867v2.016a2.773 2.773 0 1 0 1.849 0V35.2H36.42a3.7 3.7 0 0 0 3.698-3.698V7.467H3.138zm18.49 9.244a.924.924 0 1 1 0-1.848.924.924 0 0 1 0 1.848m1.848-31.432H36.42a.925.925 0 0 1 0 1.849H23.477a.925.925 0 0 1 0-1.85m0 3.698H36.42a.925.925 0 1 1 0 1.849H23.477a.924.924 0 0 1 0-1.85m0 3.698h7.396a.924.924 0 1 1 0 1.849h-7.396a.924.924 0 0 1 0-1.85m-.924 8.32a.924.924 0 1 1 1.849 0v6.471h1.849V28.73a.924.924 0 0 1 1.849 0v2.773h1.849v-5.546a.925.925 0 1 1 1.849 0v5.546h1.849v-3.698a.924.924 0 0 1 1.849 0v3.698h.924a.925.925 0 1 1 0 1.85H23.477a.924.924 0 0 1-.924-.925zM12.383 9.316a6.471 6.471 0 1 1 0 12.942 6.471 6.471 0 0 1 0-12.942M6.838 24.108h12.942a.925.925 0 0 1 0 1.849H6.837a.924.924 0 0 1 0-1.85m0 3.697h12.942a.925.925 0 0 1 0 1.85H6.837a.924.924 0 0 1 0-1.85m0 3.698h7.396a.924.924 0 1 1 0 1.85H6.837a.924.924 0 0 1 0-1.85"/><path fill="#fff" d="M12.385 20.41a4.62 4.62 0 0 0 4.53-3.698h-4.53a.924.924 0 0 1-.925-.925v-4.53a4.622 4.622 0 0 0 .925 9.153"/></svg>