<svg xmlns="http://www.w3.org/2000/svg" width="43" height="43" fill="none"><path fill="#fff" d="M20.093 25.086c-.423-.598-.304-.267-.304-15.64A14.72 14.72 0 0 0 7.378 27.753h10.571a1.84 1.84 0 0 1 1.573 2.76l-2.493 4.187v3.358a14.72 14.72 0 0 0 13.635-2.355C16 21.038 21.252 26.246 20.093 25.086"/><path fill="#fff" d="M32.368 14.874c-3.266 2.447-3.469 2.76-4.297 2.76a1.84 1.84 0 0 1-1.84-1.84V6.262a18 18 0 0 0-4.6-.589v18.401h18.4a18.24 18.24 0 0 0-2.465-9.2zM33.34 35.787a16.56 16.56 0 0 0 4.748-9.872h-14.62zM3.229 29.594a2.76 2.76 0 0 0-2.76 2.76v7.36a2.76 2.76 0 0 0 2.76 2.761h9.2a2.76 2.76 0 0 0 2.76-2.76v-5.52l2.76-4.6zm8.28 9.2H4.15a.92.92 0 0 1 0-1.84h7.36a.92.92 0 1 1 0 1.84m0-3.68H4.15a.92.92 0 1 1 0-1.84h7.36a.92.92 0 0 1 0 1.84"/><path fill="#fff" d="M40.95.152H29.907a1.84 1.84 0 0 0-1.84 1.84v13.801l3.68-2.76h9.201a1.84 1.84 0 0 0 1.84-1.84v-9.2a1.84 1.84 0 0 0-1.84-1.84m-8.281 9.2a.92.92 0 1 1-1.84 0v-2.76a.92.92 0 1 1 1.84 0zm3.68 0a.92.92 0 1 1-1.84 0v-4.6a.92.92 0 0 1 1.84 0zm3.68 0a.92.92 0 1 1-1.84 0v-5.52a.92.92 0 0 1 1.84 0z"/></svg>