<svg width="49" height="48" viewBox="0 0 49 48" fill="none" xmlns="http://www.w3.org/2000/svg">
<path d="M34.9056 38.7204C36.0411 38.7204 36.9616 37.7999 36.9616 36.6644C36.9616 35.5289 36.0411 34.6084 34.9056 34.6084C33.7701 34.6084 32.8496 35.5289 32.8496 36.6644C32.8496 37.7999 33.7701 38.7204 34.9056 38.7204Z" fill="white"/>
<path d="M41.5405 45.1661C40.6784 46.0521 39.6475 46.7563 38.5086 47.2371C37.3698 47.7179 36.1461 47.9657 34.9099 47.9657C33.6737 47.9657 32.4501 47.7179 31.3112 47.2371C30.1724 46.7563 29.1414 46.0521 28.2793 45.1661C28.8293 43.8619 29.7517 42.7488 30.9311 41.9662C32.1105 41.1836 33.4945 40.7661 34.9099 40.7661C36.3254 40.7661 37.7094 41.1836 38.8888 41.9662C40.0682 42.7488 40.9906 43.8619 41.5405 45.1661Z" fill="white"/>
<path d="M42.9184 43.3563C41.8352 41.4534 40.1123 39.9964 38.0559 39.2443C38.5604 38.645 38.8832 37.9142 38.9864 37.1377C39.0896 36.3612 38.9689 35.5714 38.6384 34.8612C38.3079 34.151 37.7815 33.55 37.121 33.1289C36.4606 32.7077 35.6935 32.484 34.9102 32.484C34.1269 32.484 33.3599 32.7077 32.6994 33.1289C32.039 33.55 31.5125 34.151 31.1821 34.8612C30.8516 35.5714 30.7309 36.3612 30.8341 37.1377C30.9372 37.9142 31.2601 38.645 31.7645 39.2443C29.7082 39.9964 27.9853 41.4534 26.9021 43.3563C26.0884 41.9499 25.6593 40.3541 25.6582 38.7293C25.6571 37.1044 26.0838 35.508 26.8956 34.1005C27.7073 32.693 28.8754 31.5241 30.2823 30.7113C31.6893 29.8986 33.2854 29.4707 34.9102 29.4707C36.535 29.4707 38.1312 29.8986 39.5381 30.7113C40.9451 31.5241 42.1132 32.693 42.9249 34.1005C43.7366 35.508 44.1634 37.1044 44.1623 38.7293C44.1611 40.3541 43.7321 41.9499 42.9184 43.3563Z" fill="white"/>
<path d="M11.2676 25.3555C12.9709 25.3555 14.3516 23.9748 14.3516 22.2715C14.3516 20.5683 12.9709 19.1875 11.2676 19.1875C9.56435 19.1875 8.18359 20.5683 8.18359 22.2715C8.18359 23.9748 9.56435 25.3555 11.2676 25.3555Z" fill="white"/>
<path d="M18.4604 31.6679C16.5388 33.5515 13.9552 34.6065 11.2644 34.6065C8.57356 34.6065 5.99 33.5515 4.06836 31.6679C4.77956 30.3825 5.8221 29.311 7.08759 28.5649C8.35309 27.8188 9.79533 27.4253 11.2644 27.4253C12.7334 27.4253 14.1757 27.8188 15.4412 28.5649C16.7067 29.311 17.7492 30.3825 18.4604 31.6679Z" fill="white"/>
<path d="M19.8482 29.9816C18.6385 28.1479 16.8731 26.7501 14.811 25.9929C15.5544 25.2842 16.0685 24.3691 16.2869 23.3655C16.5053 22.3619 16.418 21.3159 16.0363 20.3624C15.6547 19.4089 14.9961 18.5916 14.1456 18.0159C13.295 17.4402 12.2915 17.1325 11.2644 17.1325C10.2373 17.1325 9.23383 17.4402 8.38328 18.0159C7.53273 18.5916 6.87415 19.4089 6.49248 20.3624C6.11081 21.3159 6.02355 22.3619 6.24195 23.3655C6.46035 24.3691 6.9744 25.2842 7.7178 25.9929C5.65569 26.7501 3.89036 28.1479 2.68058 29.9816C1.65931 28.4318 1.07665 26.6344 0.994462 24.7802C0.91227 22.926 1.3336 21.0841 2.21375 19.4501C3.09389 17.816 4.40001 16.4507 5.9935 15.4991C7.58699 14.5474 9.40839 14.0449 11.2644 14.0449C13.1204 14.0449 14.9418 14.5474 16.5353 15.4991C18.1288 16.4507 19.4349 17.816 20.3151 19.4501C21.1952 21.0841 21.6166 22.926 21.5344 24.7802C21.4522 26.6344 20.8695 28.4318 19.8482 29.9816Z" fill="white"/>
<path d="M22.5746 19.1884C22.3494 19.1883 22.1304 19.1143 21.9513 18.9777C21.7723 18.8411 21.643 18.6494 21.5835 18.4322C21.5239 18.215 21.5373 17.9843 21.6217 17.7754C21.706 17.5666 21.8566 17.3912 22.0503 17.2763L27.1903 14.1923C27.4222 14.0875 27.6848 14.0724 27.9271 14.15C28.1695 14.2276 28.3745 14.3924 28.5024 14.6124C28.6303 14.8324 28.6721 15.092 28.6196 15.3411C28.5671 15.5901 28.4241 15.8108 28.2183 15.9605C22.626 19.3323 22.9652 19.1884 22.5746 19.1884Z" fill="white"/>
<path d="M23.6006 33.5792C23.2716 33.5792 23.323 33.5792 21.082 32.4381C20.8596 32.3043 20.696 32.0913 20.6242 31.8419C20.5523 31.5925 20.5775 31.3251 20.6946 31.0934C20.8117 30.8618 21.0121 30.683 21.2556 30.5931C21.4991 30.5031 21.7676 30.5085 22.0072 30.6083L24.0632 31.6363C24.2681 31.7412 24.4318 31.9119 24.5281 32.121C24.6245 32.3301 24.6479 32.5654 24.5945 32.7893C24.5412 33.0133 24.4143 33.2128 24.2341 33.3561C24.0538 33.4993 23.8308 33.5779 23.6006 33.5792Z" fill="white"/>
<path d="M39.0228 9.93623C40.1583 9.93623 41.0788 9.01573 41.0788 7.88023C41.0788 6.74472 40.1583 5.82422 39.0228 5.82422C37.8873 5.82422 36.9668 6.74472 36.9668 7.88023C36.9668 9.01573 37.8873 9.93623 39.0228 9.93623Z" fill="white"/>
<path d="M45.6499 16.382C44.7878 17.2679 43.7568 17.9721 42.618 18.4529C41.4791 18.9337 40.2555 19.1815 39.0193 19.1815C37.7831 19.1815 36.5594 18.9337 35.4206 18.4529C34.2818 17.9721 33.2508 17.2679 32.3887 16.382C32.9386 15.0777 33.861 13.9646 35.0404 13.182C36.2198 12.3994 37.6038 11.9819 39.0193 11.9819C40.4347 11.9819 41.8188 12.3994 42.9982 13.182C44.1776 13.9646 45.1 15.0777 45.6499 16.382Z" fill="white"/>
<path d="M47.0278 14.5721C45.9446 12.6692 44.2216 11.2122 42.1653 10.4601C42.6698 9.86085 42.9926 9.12999 43.0958 8.35351C43.199 7.57702 43.0782 6.78722 42.7478 6.07703C42.4173 5.36684 41.8909 4.76582 41.2304 4.34468C40.5699 3.92354 39.8029 3.6998 39.0196 3.6998C38.2363 3.6998 37.4693 3.92354 36.8088 4.34468C36.1484 4.76582 35.6219 5.36684 35.2915 6.07703C34.961 6.78722 34.8402 7.57702 34.9434 8.35351C35.0466 9.12999 35.3694 9.86085 35.8739 10.4601C33.8176 11.2122 32.0947 12.6692 31.0115 14.5721C30.1977 13.1657 29.7687 11.5699 29.7676 9.94507C29.7664 8.32027 30.1932 6.72381 31.0049 5.3163C31.8167 3.9088 32.9848 2.73988 34.3917 1.92715C35.7986 1.11441 37.3948 0.686523 39.0196 0.686523C40.6444 0.686523 42.2406 1.11441 43.6475 1.92715C45.0544 2.73988 46.2225 3.9088 47.0343 5.3163C47.846 6.72381 48.2728 8.32027 48.2716 9.94507C48.2705 11.5699 47.8415 13.1657 47.0278 14.5721Z" fill="white"/>
</svg>
