<svg xmlns="http://www.w3.org/2000/svg" width="49" height="48" fill="none"><path fill="#fff" d="M34.906 38.72a2.056 2.056 0 1 0 0-4.112 2.056 2.056 0 0 0 0 4.112M41.54 45.166a9.25 9.25 0 0 1-13.26 0 7.196 7.196 0 0 1 13.26 0"/><path fill="#fff" d="M42.918 43.356a9.25 9.25 0 0 0-4.862-4.112 4.112 4.112 0 1 0-6.291 0 9.25 9.25 0 0 0-4.863 4.112 9.252 9.252 0 1 1 16.016 0M11.268 25.356a3.084 3.084 0 1 0 0-6.168 3.084 3.084 0 0 0 0 6.168M18.46 31.668a10.28 10.28 0 0 1-14.392 0 8.224 8.224 0 0 1 14.392 0"/><path fill="#fff" d="M19.848 29.982a10.28 10.28 0 0 0-5.037-3.99 5.14 5.14 0 1 0-7.093 0 10.28 10.28 0 0 0-5.037 3.99 10.28 10.28 0 1 1 17.167 0M22.575 19.188a1.029 1.029 0 0 1-.525-1.912l5.14-3.084a1.028 1.028 0 0 1 1.028 1.768c-5.592 3.372-5.253 3.228-5.643 3.228M23.6 33.58c-.328 0-.277 0-2.518-1.142a1.028 1.028 0 0 1 .925-1.83l2.056 1.028a1.027 1.027 0 0 1-.462 1.943M39.023 9.936a2.056 2.056 0 1 0 0-4.112 2.056 2.056 0 0 0 0 4.112M45.65 16.382a9.25 9.25 0 0 1-13.261 0 7.195 7.195 0 0 1 13.26 0"/><path fill="#fff" d="M47.028 14.572a9.25 9.25 0 0 0-4.863-4.112 4.112 4.112 0 1 0-6.291 0 9.25 9.25 0 0 0-4.863 4.112 9.25 9.25 0 1 1 16.017 0"/></svg>