<svg xmlns="http://www.w3.org/2000/svg" width="61" height="61" fill="none"><circle cx="30.343" cy="30.343" r="30.343" fill="#5C7383"/><path fill="#fff" fill-rule="evenodd" d="M37.245 33.333c-.376-.187-2.219-1.089-2.562-1.214s-.593-.186-.844.188c-.25.372-.967 1.213-1.185 1.461-.22.25-.438.28-.813.094-.374-.188-1.582-.58-3.014-1.851-1.114-.99-1.867-2.21-2.085-2.585-.218-.373-.024-.575.164-.76.169-.168.375-.436.563-.653.188-.219.25-.374.374-.624.126-.249.063-.466-.031-.653s-.843-2.023-1.156-2.77c-.304-.727-.613-.628-.842-.64-.22-.01-.47-.013-.72-.013-.249 0-.655.093-.998.467-.344.373-1.312 1.275-1.312 3.112 0 1.835 1.342 3.609 1.53 3.858s2.642 4.017 6.402 5.633c.896.384 1.593.614 2.137.784.898.285 1.715.245 2.361.148.72-.106 2.218-.902 2.53-1.773s.312-1.618.219-1.774c-.094-.156-.343-.248-.72-.435zm-6.839 9.292h-.005c-2.233 0-4.425-.597-6.347-1.73l-.454-.268-4.72 1.233 1.26-4.58-.296-.47a12.33 12.33 0 0 1-1.906-6.602c.003-6.841 5.595-12.407 12.473-12.407 3.33 0 6.46 1.293 8.814 3.638a12.3 12.3 0 0 1 2.707 4.025c.626 1.507.946 3.123.94 4.753-.002 6.841-5.594 12.408-12.466 12.408m10.61-22.967a14.9 14.9 0 0 0-4.864-3.248 15 15 0 0 0-5.747-1.13c-8.267 0-14.997 6.696-15 14.927a14.84 14.84 0 0 0 2.002 7.462l-2.128 7.737 7.952-2.076a15.04 15.04 0 0 0 7.169 1.817h.006c8.267 0 14.997-6.697 15-14.929a14.8 14.8 0 0 0-1.133-5.717 14.8 14.8 0 0 0-3.257-4.843" clip-rule="evenodd"/></svg>